%TF.GenerationSoftware,KiCad,Pcbnew,10.0.1*%
%TF.CreationDate,2026-09-29T18:55:30+03:00*%
%TF.ProjectId,hakkit_badusb,68616b6b-6974-45f6-9261-647573622e6b,rev?*%
%TF.SameCoordinates,Original*%
%TF.FileFunction,Profile,NP*%
%FSLAX46Y46*%
G04 Gerber Fmt 4.6, Leading zero omitted, Abs format (unit mm)*
G04 Created by KiCad (PCBNEW 10.0.1) date 2026-09-29 18:55:30*
%MOMM*%
%LPD*%
G01*
G04 APERTURE LIST*
%TA.AperFunction,Profile*%
%ADD10C,0.050000*%
%TD*%
%ADD11C,0.150000*%
G04 APERTURE END LIST*
D10*
X104500000Y-39500000D02*
X104500000Y-39500000D01*
G75*
G02*
X106500000Y-37500000I2000000J0D01*
G01*
X139000000Y-37500000D01*
G75*
G02*
X141000000Y-39500000I0J-2000000D01*
G01*
X141000000Y-52000000D01*
G75*
G02*
X139000000Y-54000000I-2000000J0D01*
G01*
X106500000Y-54000000D01*
G75*
G02*
X104500000Y-52000000I0J2000000D01*
G01*
X104500000Y-39500000D01*
X124000000Y-52000000D02*
G75*
G02*
X122000000Y-52000000I-1000000J0D01*
G01*
X122000000Y-52000000D02*
G75*
G02*
X124000000Y-52000000I1000000J0D01*
G01*
D11*
X102304819Y-46654761D02*
X102304819Y-47226189D01*
X102304819Y-46940475D02*
X101304819Y-46940475D01*
X101304819Y-46940475D02*
X101447676Y-47035713D01*
X101447676Y-47035713D02*
X101542914Y-47130951D01*
X101542914Y-47130951D02*
X101590533Y-47226189D01*
X101304819Y-45797618D02*
X101304819Y-45988094D01*
X101304819Y-45988094D02*
X101352438Y-46083332D01*
X101352438Y-46083332D02*
X101400057Y-46130951D01*
X101400057Y-46130951D02*
X101542914Y-46226189D01*
X101542914Y-46226189D02*
X101733390Y-46273808D01*
X101733390Y-46273808D02*
X102114342Y-46273808D01*
X102114342Y-46273808D02*
X102209580Y-46226189D01*
X102209580Y-46226189D02*
X102257200Y-46178570D01*
X102257200Y-46178570D02*
X102304819Y-46083332D01*
X102304819Y-46083332D02*
X102304819Y-45892856D01*
X102304819Y-45892856D02*
X102257200Y-45797618D01*
X102257200Y-45797618D02*
X102209580Y-45749999D01*
X102209580Y-45749999D02*
X102114342Y-45702380D01*
X102114342Y-45702380D02*
X101876247Y-45702380D01*
X101876247Y-45702380D02*
X101781009Y-45749999D01*
X101781009Y-45749999D02*
X101733390Y-45797618D01*
X101733390Y-45797618D02*
X101685771Y-45892856D01*
X101685771Y-45892856D02*
X101685771Y-46083332D01*
X101685771Y-46083332D02*
X101733390Y-46178570D01*
X101733390Y-46178570D02*
X101781009Y-46226189D01*
X101781009Y-46226189D02*
X101876247Y-46273808D01*
X102209580Y-45273808D02*
X102257200Y-45226189D01*
X102257200Y-45226189D02*
X102304819Y-45273808D01*
X102304819Y-45273808D02*
X102257200Y-45321427D01*
X102257200Y-45321427D02*
X102209580Y-45273808D01*
X102209580Y-45273808D02*
X102304819Y-45273808D01*
X101304819Y-44321428D02*
X101304819Y-44797618D01*
X101304819Y-44797618D02*
X101781009Y-44845237D01*
X101781009Y-44845237D02*
X101733390Y-44797618D01*
X101733390Y-44797618D02*
X101685771Y-44702380D01*
X101685771Y-44702380D02*
X101685771Y-44464285D01*
X101685771Y-44464285D02*
X101733390Y-44369047D01*
X101733390Y-44369047D02*
X101781009Y-44321428D01*
X101781009Y-44321428D02*
X101876247Y-44273809D01*
X101876247Y-44273809D02*
X102114342Y-44273809D01*
X102114342Y-44273809D02*
X102209580Y-44321428D01*
X102209580Y-44321428D02*
X102257200Y-44369047D01*
X102257200Y-44369047D02*
X102304819Y-44464285D01*
X102304819Y-44464285D02*
X102304819Y-44702380D01*
X102304819Y-44702380D02*
X102257200Y-44797618D01*
X102257200Y-44797618D02*
X102209580Y-44845237D01*
D10*
X106000000Y-37500000D02*
X102413580Y-37500000D01*
X102413580Y-54000000D02*
X106000000Y-54000000D01*
X103000000Y-37500000D02*
X103000000Y-54000000D01*
X103000000Y-37500000D02*
X103586421Y-38626504D01*
X103000000Y-37500000D02*
X102413579Y-38626504D01*
X103000000Y-54000000D02*
X102413579Y-52873496D01*
X103000000Y-54000000D02*
X103586421Y-52873496D01*
D11*
X121304819Y-53214285D02*
X121304819Y-53785713D01*
X121304819Y-53499999D02*
X120304819Y-53499999D01*
X120304819Y-53499999D02*
X120447676Y-53595237D01*
X120447676Y-53595237D02*
X120542914Y-53690475D01*
X120542914Y-53690475D02*
X120590533Y-53785713D01*
D10*
X122500000Y-53000000D02*
X121413580Y-53000000D01*
X121413580Y-54000000D02*
X122500000Y-54000000D01*
X122000000Y-53000000D02*
X122000000Y-54000000D01*
X122000000Y-53000000D02*
X122586421Y-54126504D01*
X122000000Y-53000000D02*
X121413579Y-54126504D01*
X122000000Y-54000000D02*
X121413579Y-52873496D01*
X122000000Y-54000000D02*
X122586421Y-52873496D01*
D11*
X121226191Y-61804819D02*
X121845238Y-61804819D01*
X121845238Y-61804819D02*
X121511905Y-62185771D01*
X121511905Y-62185771D02*
X121654762Y-62185771D01*
X121654762Y-62185771D02*
X121750000Y-62233390D01*
X121750000Y-62233390D02*
X121797619Y-62281009D01*
X121797619Y-62281009D02*
X121845238Y-62376247D01*
X121845238Y-62376247D02*
X121845238Y-62614342D01*
X121845238Y-62614342D02*
X121797619Y-62709580D01*
X121797619Y-62709580D02*
X121750000Y-62757200D01*
X121750000Y-62757200D02*
X121654762Y-62804819D01*
X121654762Y-62804819D02*
X121369048Y-62804819D01*
X121369048Y-62804819D02*
X121273810Y-62757200D01*
X121273810Y-62757200D02*
X121226191Y-62709580D01*
X122702381Y-61804819D02*
X122511905Y-61804819D01*
X122511905Y-61804819D02*
X122416667Y-61852438D01*
X122416667Y-61852438D02*
X122369048Y-61900057D01*
X122369048Y-61900057D02*
X122273810Y-62042914D01*
X122273810Y-62042914D02*
X122226191Y-62233390D01*
X122226191Y-62233390D02*
X122226191Y-62614342D01*
X122226191Y-62614342D02*
X122273810Y-62709580D01*
X122273810Y-62709580D02*
X122321429Y-62757200D01*
X122321429Y-62757200D02*
X122416667Y-62804819D01*
X122416667Y-62804819D02*
X122607143Y-62804819D01*
X122607143Y-62804819D02*
X122702381Y-62757200D01*
X122702381Y-62757200D02*
X122750000Y-62709580D01*
X122750000Y-62709580D02*
X122797619Y-62614342D01*
X122797619Y-62614342D02*
X122797619Y-62376247D01*
X122797619Y-62376247D02*
X122750000Y-62281009D01*
X122750000Y-62281009D02*
X122702381Y-62233390D01*
X122702381Y-62233390D02*
X122607143Y-62185771D01*
X122607143Y-62185771D02*
X122416667Y-62185771D01*
X122416667Y-62185771D02*
X122321429Y-62233390D01*
X122321429Y-62233390D02*
X122273810Y-62281009D01*
X122273810Y-62281009D02*
X122226191Y-62376247D01*
X123226191Y-62709580D02*
X123273810Y-62757200D01*
X123273810Y-62757200D02*
X123226191Y-62804819D01*
X123226191Y-62804819D02*
X123178572Y-62757200D01*
X123178572Y-62757200D02*
X123226191Y-62709580D01*
X123226191Y-62709580D02*
X123226191Y-62804819D01*
X124178571Y-61804819D02*
X123702381Y-61804819D01*
X123702381Y-61804819D02*
X123654762Y-62281009D01*
X123654762Y-62281009D02*
X123702381Y-62233390D01*
X123702381Y-62233390D02*
X123797619Y-62185771D01*
X123797619Y-62185771D02*
X124035714Y-62185771D01*
X124035714Y-62185771D02*
X124130952Y-62233390D01*
X124130952Y-62233390D02*
X124178571Y-62281009D01*
X124178571Y-62281009D02*
X124226190Y-62376247D01*
X124226190Y-62376247D02*
X124226190Y-62614342D01*
X124226190Y-62614342D02*
X124178571Y-62709580D01*
X124178571Y-62709580D02*
X124130952Y-62757200D01*
X124130952Y-62757200D02*
X124035714Y-62804819D01*
X124035714Y-62804819D02*
X123797619Y-62804819D01*
X123797619Y-62804819D02*
X123702381Y-62757200D01*
X123702381Y-62757200D02*
X123654762Y-62709580D01*
D10*
X104500000Y-48155000D02*
X104500000Y-64086420D01*
X141000000Y-64086420D02*
X141000000Y-48000000D01*
X104500000Y-63500000D02*
X141000000Y-63500000D01*
X104500000Y-63500000D02*
X105626504Y-62913579D01*
X104500000Y-63500000D02*
X105626504Y-64086421D01*
X141000000Y-63500000D02*
X139873496Y-64086421D01*
X141000000Y-63500000D02*
X139873496Y-62913579D01*
M02*
