%TF.GenerationSoftware,KiCad,Pcbnew,10.0.1*%
%TF.CreationDate,2026-10-01T15:16:06+03:00*%
%TF.ProjectId,hakkit_badusb,68616b6b-6974-45f6-9261-647573622e6b,rev?*%
%TF.SameCoordinates,Original*%
%TF.FileFunction,Paste,Bot*%
%TF.FilePolarity,Positive*%
%FSLAX46Y46*%
G04 Gerber Fmt 4.6, Leading zero omitted, Abs format (unit mm)*
G04 Created by KiCad (PCBNEW 10.0.1) date 2026-10-01 15:16:06*
%MOMM*%
%LPD*%
G01*
G04 APERTURE LIST*
G04 Aperture macros list*
%AMRoundRect*
0 Rectangle with rounded corners*
0 $1 Rounding radius*
0 $2 $3 $4 $5 $6 $7 $8 $9 X,Y pos of 4 corners*
0 Add a 4 corners polygon primitive as box body*
4,1,4,$2,$3,$4,$5,$6,$7,$8,$9,$2,$3,0*
0 Add four circle primitives for the rounded corners*
1,1,$1+$1,$2,$3*
1,1,$1+$1,$4,$5*
1,1,$1+$1,$6,$7*
1,1,$1+$1,$8,$9*
0 Add four rect primitives between the rounded corners*
20,1,$1+$1,$2,$3,$4,$5,0*
20,1,$1+$1,$4,$5,$6,$7,0*
20,1,$1+$1,$6,$7,$8,$9,0*
20,1,$1+$1,$8,$9,$2,$3,0*%
G04 Aperture macros list end*
%ADD10RoundRect,0.250000X-1.250000X-0.550000X1.250000X-0.550000X1.250000X0.550000X-1.250000X0.550000X0*%
%ADD11RoundRect,0.100000X-0.712500X-0.100000X0.712500X-0.100000X0.712500X0.100000X-0.712500X0.100000X0*%
%ADD12RoundRect,0.225000X0.225000X0.250000X-0.225000X0.250000X-0.225000X-0.250000X0.225000X-0.250000X0*%
%ADD13RoundRect,0.200000X0.200000X0.275000X-0.200000X0.275000X-0.200000X-0.275000X0.200000X-0.275000X0*%
%ADD14RoundRect,0.200000X-0.275000X0.200000X-0.275000X-0.200000X0.275000X-0.200000X0.275000X0.200000X0*%
%ADD15RoundRect,0.250000X-1.000000X-0.250000X1.000000X-0.250000X1.000000X0.250000X-1.000000X0.250000X0*%
%ADD16R,1.500000X0.800000*%
%ADD17RoundRect,0.362500X0.637500X-0.362500X0.637500X0.362500X-0.637500X0.362500X-0.637500X-0.362500X0*%
G04 APERTURE END LIST*
D10*
%TO.C,C3*%
X127808219Y-44213574D03*
X132208219Y-44213574D03*
%TD*%
D11*
%TO.C,U3*%
X128275000Y-50000000D03*
X128275000Y-49350000D03*
X128275000Y-48700000D03*
X128275000Y-48050000D03*
X132500000Y-48050000D03*
X132500000Y-48700000D03*
X132500000Y-49350000D03*
X132500000Y-50000000D03*
%TD*%
D12*
%TO.C,C2*%
X128500000Y-52000000D03*
X126950000Y-52000000D03*
%TD*%
D13*
%TO.C,R1*%
X134650000Y-52000000D03*
X133000000Y-52000000D03*
%TD*%
D14*
%TO.C,R5*%
X133772110Y-39175000D03*
X133772110Y-40825000D03*
%TD*%
D12*
%TO.C,C1*%
X132050000Y-40000000D03*
X130500000Y-40000000D03*
%TD*%
D14*
%TO.C,R4*%
X122500000Y-46175000D03*
X122500000Y-47825000D03*
%TD*%
D15*
%TO.C,J3*%
X135750000Y-49500000D03*
X135750000Y-47000000D03*
X135750000Y-45000000D03*
X135750000Y-42500000D03*
%TD*%
D12*
%TO.C,C4*%
X131526185Y-52013178D03*
X129976185Y-52013178D03*
%TD*%
D13*
%TO.C,R3*%
X128925000Y-40000000D03*
X127275000Y-40000000D03*
%TD*%
D16*
%TO.C,J2*%
X114500000Y-48955000D03*
X114500000Y-47855000D03*
X114500000Y-46755000D03*
X114500000Y-45655000D03*
X114500000Y-44555000D03*
X114500000Y-43455000D03*
X114500000Y-42355000D03*
X114500000Y-41255000D03*
D17*
X108800000Y-52625000D03*
X117100000Y-52625000D03*
X108800000Y-38875000D03*
X117100000Y-38875000D03*
%TD*%
M02*
