%TF.GenerationSoftware,KiCad,Pcbnew,10.0.1*%
%TF.CreationDate,2026-09-29T18:55:30+03:00*%
%TF.ProjectId,hakkit_badusb,68616b6b-6974-45f6-9261-647573622e6b,rev?*%
%TF.SameCoordinates,Original*%
%TF.FileFunction,Legend,Top*%
%TF.FilePolarity,Positive*%
%FSLAX46Y46*%
G04 Gerber Fmt 4.6, Leading zero omitted, Abs format (unit mm)*
G04 Created by KiCad (PCBNEW 10.0.1) date 2026-09-29 18:55:30*
%MOMM*%
%LPD*%
G01*
G04 APERTURE LIST*
%ADD10C,0.150000*%
%ADD11C,0.120000*%
G04 APERTURE END LIST*
D10*
X105956667Y-53297200D02*
X106099524Y-53344819D01*
X106099524Y-53344819D02*
X106337619Y-53344819D01*
X106337619Y-53344819D02*
X106432857Y-53297200D01*
X106432857Y-53297200D02*
X106480476Y-53249580D01*
X106480476Y-53249580D02*
X106528095Y-53154342D01*
X106528095Y-53154342D02*
X106528095Y-53059104D01*
X106528095Y-53059104D02*
X106480476Y-52963866D01*
X106480476Y-52963866D02*
X106432857Y-52916247D01*
X106432857Y-52916247D02*
X106337619Y-52868628D01*
X106337619Y-52868628D02*
X106147143Y-52821009D01*
X106147143Y-52821009D02*
X106051905Y-52773390D01*
X106051905Y-52773390D02*
X106004286Y-52725771D01*
X106004286Y-52725771D02*
X105956667Y-52630533D01*
X105956667Y-52630533D02*
X105956667Y-52535295D01*
X105956667Y-52535295D02*
X106004286Y-52440057D01*
X106004286Y-52440057D02*
X106051905Y-52392438D01*
X106051905Y-52392438D02*
X106147143Y-52344819D01*
X106147143Y-52344819D02*
X106385238Y-52344819D01*
X106385238Y-52344819D02*
X106528095Y-52392438D01*
X106861429Y-52344819D02*
X107099524Y-53344819D01*
X107099524Y-53344819D02*
X107290000Y-52630533D01*
X107290000Y-52630533D02*
X107480476Y-53344819D01*
X107480476Y-53344819D02*
X107718572Y-52344819D01*
X108623333Y-53344819D02*
X108051905Y-53344819D01*
X108337619Y-53344819D02*
X108337619Y-52344819D01*
X108337619Y-52344819D02*
X108242381Y-52487676D01*
X108242381Y-52487676D02*
X108147143Y-52582914D01*
X108147143Y-52582914D02*
X108051905Y-52630533D01*
X133278628Y-45826191D02*
X133754819Y-45826191D01*
X132754819Y-46159524D02*
X133278628Y-45826191D01*
X133278628Y-45826191D02*
X132754819Y-45492858D01*
X133754819Y-44635715D02*
X133754819Y-45207143D01*
X133754819Y-44921429D02*
X132754819Y-44921429D01*
X132754819Y-44921429D02*
X132897676Y-45016667D01*
X132897676Y-45016667D02*
X132992914Y-45111905D01*
X132992914Y-45111905D02*
X133040533Y-45207143D01*
X118502537Y-41941392D02*
X119074957Y-42513812D01*
X119074957Y-42513812D02*
X119175972Y-42547484D01*
X119175972Y-42547484D02*
X119243316Y-42547484D01*
X119243316Y-42547484D02*
X119344331Y-42513812D01*
X119344331Y-42513812D02*
X119479018Y-42379125D01*
X119479018Y-42379125D02*
X119512690Y-42278110D01*
X119512690Y-42278110D02*
X119512690Y-42210766D01*
X119512690Y-42210766D02*
X119479018Y-42109751D01*
X119479018Y-42109751D02*
X118906598Y-41537331D01*
X120320812Y-41537331D02*
X119916751Y-41941392D01*
X120118781Y-41739362D02*
X119411675Y-41032255D01*
X119411675Y-41032255D02*
X119445346Y-41200614D01*
X119445346Y-41200614D02*
X119445346Y-41335301D01*
X119445346Y-41335301D02*
X119411675Y-41436316D01*
X111336905Y-49954819D02*
X111336905Y-48954819D01*
X111336905Y-48954819D02*
X111575000Y-48954819D01*
X111575000Y-48954819D02*
X111717857Y-49002438D01*
X111717857Y-49002438D02*
X111813095Y-49097676D01*
X111813095Y-49097676D02*
X111860714Y-49192914D01*
X111860714Y-49192914D02*
X111908333Y-49383390D01*
X111908333Y-49383390D02*
X111908333Y-49526247D01*
X111908333Y-49526247D02*
X111860714Y-49716723D01*
X111860714Y-49716723D02*
X111813095Y-49811961D01*
X111813095Y-49811961D02*
X111717857Y-49907200D01*
X111717857Y-49907200D02*
X111575000Y-49954819D01*
X111575000Y-49954819D02*
X111336905Y-49954819D01*
X112860714Y-49954819D02*
X112289286Y-49954819D01*
X112575000Y-49954819D02*
X112575000Y-48954819D01*
X112575000Y-48954819D02*
X112479762Y-49097676D01*
X112479762Y-49097676D02*
X112384524Y-49192914D01*
X112384524Y-49192914D02*
X112289286Y-49240533D01*
D11*
X109786529Y-52229144D02*
X110243672Y-52229144D01*
X110015100Y-52229144D02*
X110015100Y-53029144D01*
X110015100Y-53029144D02*
X110091291Y-52914859D01*
X110091291Y-52914859D02*
X110167481Y-52838668D01*
X110167481Y-52838668D02*
X110243672Y-52800573D01*
D10*
X130333333Y-48359580D02*
X130285714Y-48407200D01*
X130285714Y-48407200D02*
X130142857Y-48454819D01*
X130142857Y-48454819D02*
X130047619Y-48454819D01*
X130047619Y-48454819D02*
X129904762Y-48407200D01*
X129904762Y-48407200D02*
X129809524Y-48311961D01*
X129809524Y-48311961D02*
X129761905Y-48216723D01*
X129761905Y-48216723D02*
X129714286Y-48026247D01*
X129714286Y-48026247D02*
X129714286Y-47883390D01*
X129714286Y-47883390D02*
X129761905Y-47692914D01*
X129761905Y-47692914D02*
X129809524Y-47597676D01*
X129809524Y-47597676D02*
X129904762Y-47502438D01*
X129904762Y-47502438D02*
X130047619Y-47454819D01*
X130047619Y-47454819D02*
X130142857Y-47454819D01*
X130142857Y-47454819D02*
X130285714Y-47502438D01*
X130285714Y-47502438D02*
X130333333Y-47550057D01*
X131190476Y-47454819D02*
X131000000Y-47454819D01*
X131000000Y-47454819D02*
X130904762Y-47502438D01*
X130904762Y-47502438D02*
X130857143Y-47550057D01*
X130857143Y-47550057D02*
X130761905Y-47692914D01*
X130761905Y-47692914D02*
X130714286Y-47883390D01*
X130714286Y-47883390D02*
X130714286Y-48264342D01*
X130714286Y-48264342D02*
X130761905Y-48359580D01*
X130761905Y-48359580D02*
X130809524Y-48407200D01*
X130809524Y-48407200D02*
X130904762Y-48454819D01*
X130904762Y-48454819D02*
X131095238Y-48454819D01*
X131095238Y-48454819D02*
X131190476Y-48407200D01*
X131190476Y-48407200D02*
X131238095Y-48359580D01*
X131238095Y-48359580D02*
X131285714Y-48264342D01*
X131285714Y-48264342D02*
X131285714Y-48026247D01*
X131285714Y-48026247D02*
X131238095Y-47931009D01*
X131238095Y-47931009D02*
X131190476Y-47883390D01*
X131190476Y-47883390D02*
X131095238Y-47835771D01*
X131095238Y-47835771D02*
X130904762Y-47835771D01*
X130904762Y-47835771D02*
X130809524Y-47883390D01*
X130809524Y-47883390D02*
X130761905Y-47931009D01*
X130761905Y-47931009D02*
X130714286Y-48026247D01*
X110775051Y-40852547D02*
X111347471Y-41424967D01*
X111347471Y-41424967D02*
X111448486Y-41458639D01*
X111448486Y-41458639D02*
X111515830Y-41458639D01*
X111515830Y-41458639D02*
X111616845Y-41424967D01*
X111616845Y-41424967D02*
X111751532Y-41290280D01*
X111751532Y-41290280D02*
X111785204Y-41189265D01*
X111785204Y-41189265D02*
X111785204Y-41121921D01*
X111785204Y-41121921D02*
X111751532Y-41020906D01*
X111751532Y-41020906D02*
X111179112Y-40448486D01*
X111549502Y-40212784D02*
X111549502Y-40145441D01*
X111549502Y-40145441D02*
X111583173Y-40044425D01*
X111583173Y-40044425D02*
X111751532Y-39876067D01*
X111751532Y-39876067D02*
X111852547Y-39842395D01*
X111852547Y-39842395D02*
X111919891Y-39842395D01*
X111919891Y-39842395D02*
X112020906Y-39876067D01*
X112020906Y-39876067D02*
X112088250Y-39943410D01*
X112088250Y-39943410D02*
X112155593Y-40078097D01*
X112155593Y-40078097D02*
X112155593Y-40886219D01*
X112155593Y-40886219D02*
X112593326Y-40448486D01*
X130558333Y-39929580D02*
X130510714Y-39977200D01*
X130510714Y-39977200D02*
X130367857Y-40024819D01*
X130367857Y-40024819D02*
X130272619Y-40024819D01*
X130272619Y-40024819D02*
X130129762Y-39977200D01*
X130129762Y-39977200D02*
X130034524Y-39881961D01*
X130034524Y-39881961D02*
X129986905Y-39786723D01*
X129986905Y-39786723D02*
X129939286Y-39596247D01*
X129939286Y-39596247D02*
X129939286Y-39453390D01*
X129939286Y-39453390D02*
X129986905Y-39262914D01*
X129986905Y-39262914D02*
X130034524Y-39167676D01*
X130034524Y-39167676D02*
X130129762Y-39072438D01*
X130129762Y-39072438D02*
X130272619Y-39024819D01*
X130272619Y-39024819D02*
X130367857Y-39024819D01*
X130367857Y-39024819D02*
X130510714Y-39072438D01*
X130510714Y-39072438D02*
X130558333Y-39120057D01*
X131463095Y-39024819D02*
X130986905Y-39024819D01*
X130986905Y-39024819D02*
X130939286Y-39501009D01*
X130939286Y-39501009D02*
X130986905Y-39453390D01*
X130986905Y-39453390D02*
X131082143Y-39405771D01*
X131082143Y-39405771D02*
X131320238Y-39405771D01*
X131320238Y-39405771D02*
X131415476Y-39453390D01*
X131415476Y-39453390D02*
X131463095Y-39501009D01*
X131463095Y-39501009D02*
X131510714Y-39596247D01*
X131510714Y-39596247D02*
X131510714Y-39834342D01*
X131510714Y-39834342D02*
X131463095Y-39929580D01*
X131463095Y-39929580D02*
X131415476Y-39977200D01*
X131415476Y-39977200D02*
X131320238Y-40024819D01*
X131320238Y-40024819D02*
X131082143Y-40024819D01*
X131082143Y-40024819D02*
X130986905Y-39977200D01*
X130986905Y-39977200D02*
X130939286Y-39929580D01*
X115749970Y-51038182D02*
X115416637Y-50561991D01*
X115178542Y-51038182D02*
X115178542Y-50038182D01*
X115178542Y-50038182D02*
X115559494Y-50038182D01*
X115559494Y-50038182D02*
X115654732Y-50085801D01*
X115654732Y-50085801D02*
X115702351Y-50133420D01*
X115702351Y-50133420D02*
X115749970Y-50228658D01*
X115749970Y-50228658D02*
X115749970Y-50371515D01*
X115749970Y-50371515D02*
X115702351Y-50466753D01*
X115702351Y-50466753D02*
X115654732Y-50514372D01*
X115654732Y-50514372D02*
X115559494Y-50561991D01*
X115559494Y-50561991D02*
X115178542Y-50561991D01*
X116321399Y-50466753D02*
X116226161Y-50419134D01*
X116226161Y-50419134D02*
X116178542Y-50371515D01*
X116178542Y-50371515D02*
X116130923Y-50276277D01*
X116130923Y-50276277D02*
X116130923Y-50228658D01*
X116130923Y-50228658D02*
X116178542Y-50133420D01*
X116178542Y-50133420D02*
X116226161Y-50085801D01*
X116226161Y-50085801D02*
X116321399Y-50038182D01*
X116321399Y-50038182D02*
X116511875Y-50038182D01*
X116511875Y-50038182D02*
X116607113Y-50085801D01*
X116607113Y-50085801D02*
X116654732Y-50133420D01*
X116654732Y-50133420D02*
X116702351Y-50228658D01*
X116702351Y-50228658D02*
X116702351Y-50276277D01*
X116702351Y-50276277D02*
X116654732Y-50371515D01*
X116654732Y-50371515D02*
X116607113Y-50419134D01*
X116607113Y-50419134D02*
X116511875Y-50466753D01*
X116511875Y-50466753D02*
X116321399Y-50466753D01*
X116321399Y-50466753D02*
X116226161Y-50514372D01*
X116226161Y-50514372D02*
X116178542Y-50561991D01*
X116178542Y-50561991D02*
X116130923Y-50657229D01*
X116130923Y-50657229D02*
X116130923Y-50847705D01*
X116130923Y-50847705D02*
X116178542Y-50942943D01*
X116178542Y-50942943D02*
X116226161Y-50990563D01*
X116226161Y-50990563D02*
X116321399Y-51038182D01*
X116321399Y-51038182D02*
X116511875Y-51038182D01*
X116511875Y-51038182D02*
X116607113Y-50990563D01*
X116607113Y-50990563D02*
X116654732Y-50942943D01*
X116654732Y-50942943D02*
X116702351Y-50847705D01*
X116702351Y-50847705D02*
X116702351Y-50657229D01*
X116702351Y-50657229D02*
X116654732Y-50561991D01*
X116654732Y-50561991D02*
X116607113Y-50514372D01*
X116607113Y-50514372D02*
X116511875Y-50466753D01*
X118214917Y-49450619D02*
X117642498Y-49349604D01*
X117810856Y-49854680D02*
X117103750Y-49147573D01*
X117103750Y-49147573D02*
X117373124Y-48878199D01*
X117373124Y-48878199D02*
X117474139Y-48844527D01*
X117474139Y-48844527D02*
X117541482Y-48844527D01*
X117541482Y-48844527D02*
X117642498Y-48878199D01*
X117642498Y-48878199D02*
X117743513Y-48979214D01*
X117743513Y-48979214D02*
X117777185Y-49080230D01*
X117777185Y-49080230D02*
X117777185Y-49147573D01*
X117777185Y-49147573D02*
X117743513Y-49248588D01*
X117743513Y-49248588D02*
X117474139Y-49517962D01*
X118113902Y-48137421D02*
X117979215Y-48272108D01*
X117979215Y-48272108D02*
X117945543Y-48373123D01*
X117945543Y-48373123D02*
X117945543Y-48440466D01*
X117945543Y-48440466D02*
X117979215Y-48608825D01*
X117979215Y-48608825D02*
X118080230Y-48777184D01*
X118080230Y-48777184D02*
X118349604Y-49046558D01*
X118349604Y-49046558D02*
X118450620Y-49080230D01*
X118450620Y-49080230D02*
X118517963Y-49080230D01*
X118517963Y-49080230D02*
X118618978Y-49046558D01*
X118618978Y-49046558D02*
X118753665Y-48911871D01*
X118753665Y-48911871D02*
X118787337Y-48810856D01*
X118787337Y-48810856D02*
X118787337Y-48743512D01*
X118787337Y-48743512D02*
X118753665Y-48642497D01*
X118753665Y-48642497D02*
X118585307Y-48474138D01*
X118585307Y-48474138D02*
X118484291Y-48440466D01*
X118484291Y-48440466D02*
X118416948Y-48440466D01*
X118416948Y-48440466D02*
X118315933Y-48474138D01*
X118315933Y-48474138D02*
X118181246Y-48608825D01*
X118181246Y-48608825D02*
X118147574Y-48709840D01*
X118147574Y-48709840D02*
X118147574Y-48777184D01*
X118147574Y-48777184D02*
X118181246Y-48878199D01*
X120131554Y-51533982D02*
X119559135Y-51432967D01*
X119727493Y-51938043D02*
X119020387Y-51230936D01*
X119020387Y-51230936D02*
X119289761Y-50961562D01*
X119289761Y-50961562D02*
X119390776Y-50927890D01*
X119390776Y-50927890D02*
X119458119Y-50927890D01*
X119458119Y-50927890D02*
X119559135Y-50961562D01*
X119559135Y-50961562D02*
X119660150Y-51062577D01*
X119660150Y-51062577D02*
X119693822Y-51163593D01*
X119693822Y-51163593D02*
X119693822Y-51230936D01*
X119693822Y-51230936D02*
X119660150Y-51331951D01*
X119660150Y-51331951D02*
X119390776Y-51601325D01*
X119660150Y-50591173D02*
X120131554Y-50119768D01*
X120131554Y-50119768D02*
X120535615Y-51129921D01*
X109014819Y-45526666D02*
X108538628Y-45859999D01*
X109014819Y-46098094D02*
X108014819Y-46098094D01*
X108014819Y-46098094D02*
X108014819Y-45717142D01*
X108014819Y-45717142D02*
X108062438Y-45621904D01*
X108062438Y-45621904D02*
X108110057Y-45574285D01*
X108110057Y-45574285D02*
X108205295Y-45526666D01*
X108205295Y-45526666D02*
X108348152Y-45526666D01*
X108348152Y-45526666D02*
X108443390Y-45574285D01*
X108443390Y-45574285D02*
X108491009Y-45621904D01*
X108491009Y-45621904D02*
X108538628Y-45717142D01*
X108538628Y-45717142D02*
X108538628Y-46098094D01*
X108110057Y-45145713D02*
X108062438Y-45098094D01*
X108062438Y-45098094D02*
X108014819Y-45002856D01*
X108014819Y-45002856D02*
X108014819Y-44764761D01*
X108014819Y-44764761D02*
X108062438Y-44669523D01*
X108062438Y-44669523D02*
X108110057Y-44621904D01*
X108110057Y-44621904D02*
X108205295Y-44574285D01*
X108205295Y-44574285D02*
X108300533Y-44574285D01*
X108300533Y-44574285D02*
X108443390Y-44621904D01*
X108443390Y-44621904D02*
X109014819Y-45193332D01*
X109014819Y-45193332D02*
X109014819Y-44574285D01*
%TO.C,SW1*%
D11*
X107410000Y-51370000D02*
X107310000Y-51370000D01*
X108910000Y-51370000D02*
X108910000Y-46970000D01*
X105810000Y-46970000D02*
X105810000Y-51370000D01*
X107410000Y-46970000D02*
X107310000Y-46970000D01*
%TO.C,Y1*%
X128639999Y-42240001D02*
X128640000Y-48110001D01*
X132360000Y-48110001D02*
X132360001Y-42240001D01*
X132360001Y-42240001D02*
X128639999Y-42240001D01*
%TO.C,U1*%
X117736802Y-45203472D02*
X118196421Y-44743853D01*
X118196421Y-45663091D02*
X117736802Y-45203472D01*
X122382494Y-40557780D02*
X122842113Y-40098161D01*
X122842113Y-40098161D02*
X123301732Y-40557780D01*
X122842113Y-50308783D02*
X122382494Y-49849164D01*
X123301732Y-49849164D02*
X122842113Y-50308783D01*
X127487805Y-44743853D02*
X127947424Y-45203472D01*
X127947424Y-45203472D02*
X127487805Y-45663091D01*
X118012574Y-46695467D02*
X117673162Y-46356056D01*
X118076213Y-46292416D01*
X118012574Y-46695467D01*
G36*
X118012574Y-46695467D02*
G01*
X117673162Y-46356056D01*
X118076213Y-46292416D01*
X118012574Y-46695467D01*
G37*
%TO.C,D1*%
X110575000Y-50235000D02*
X113575000Y-50235000D01*
X110575000Y-53015000D02*
X113775000Y-53015000D01*
X113775000Y-53015000D02*
X113775000Y-51825000D01*
%TO.C,C6*%
X130584420Y-48990000D02*
X130865580Y-48990000D01*
X130584420Y-50010000D02*
X130865580Y-50010000D01*
%TO.C,U2*%
X110094168Y-43492372D02*
X114492372Y-39094168D01*
X110232054Y-43630258D02*
X110094168Y-43492372D01*
X113785266Y-47183470D02*
X113647380Y-47045584D01*
X114492372Y-39094168D02*
X114630258Y-39232054D01*
X118045584Y-42647380D02*
X118183470Y-42785266D01*
X118183470Y-42785266D02*
X113785266Y-47183470D01*
X110362869Y-44553033D02*
X110023458Y-44213621D01*
X110426508Y-44149982D01*
X110362869Y-44553033D01*
G36*
X110362869Y-44553033D02*
G01*
X110023458Y-44213621D01*
X110426508Y-44149982D01*
X110362869Y-44553033D01*
G37*
%TO.C,C5*%
X130584420Y-40490000D02*
X130865580Y-40490000D01*
X130584420Y-41510000D02*
X130865580Y-41510000D01*
%TO.C,R8*%
X116237258Y-51477500D02*
X115762742Y-51477500D01*
X116237258Y-52522500D02*
X115762742Y-52522500D01*
%TO.C,R6*%
X116798303Y-47462770D02*
X116462770Y-47798303D01*
X117537230Y-48201697D02*
X117201697Y-48537230D01*
%TO.C,R7*%
X118714940Y-49546133D02*
X118379407Y-49881666D01*
X119453867Y-50285060D02*
X119118334Y-50620593D01*
%TO.C,R2*%
X109477500Y-46412258D02*
X109477500Y-45937742D01*
X110522500Y-46412258D02*
X110522500Y-45937742D01*
%TD*%
M02*
