%TF.GenerationSoftware,KiCad,Pcbnew,10.0.1*%
%TF.CreationDate,2026-09-29T18:55:30+03:00*%
%TF.ProjectId,hakkit_badusb,68616b6b-6974-45f6-9261-647573622e6b,rev?*%
%TF.SameCoordinates,Original*%
%TF.FileFunction,Legend,Bot*%
%TF.FilePolarity,Positive*%
%FSLAX46Y46*%
G04 Gerber Fmt 4.6, Leading zero omitted, Abs format (unit mm)*
G04 Created by KiCad (PCBNEW 10.0.1) date 2026-09-29 18:55:30*
%MOMM*%
%LPD*%
G01*
G04 APERTURE LIST*
%ADD10C,0.150000*%
%ADD11C,0.120000*%
G04 APERTURE END LIST*
D10*
X125236666Y-44589580D02*
X125284285Y-44637200D01*
X125284285Y-44637200D02*
X125427142Y-44684819D01*
X125427142Y-44684819D02*
X125522380Y-44684819D01*
X125522380Y-44684819D02*
X125665237Y-44637200D01*
X125665237Y-44637200D02*
X125760475Y-44541961D01*
X125760475Y-44541961D02*
X125808094Y-44446723D01*
X125808094Y-44446723D02*
X125855713Y-44256247D01*
X125855713Y-44256247D02*
X125855713Y-44113390D01*
X125855713Y-44113390D02*
X125808094Y-43922914D01*
X125808094Y-43922914D02*
X125760475Y-43827676D01*
X125760475Y-43827676D02*
X125665237Y-43732438D01*
X125665237Y-43732438D02*
X125522380Y-43684819D01*
X125522380Y-43684819D02*
X125427142Y-43684819D01*
X125427142Y-43684819D02*
X125284285Y-43732438D01*
X125284285Y-43732438D02*
X125236666Y-43780057D01*
X124903332Y-43684819D02*
X124284285Y-43684819D01*
X124284285Y-43684819D02*
X124617618Y-44065771D01*
X124617618Y-44065771D02*
X124474761Y-44065771D01*
X124474761Y-44065771D02*
X124379523Y-44113390D01*
X124379523Y-44113390D02*
X124331904Y-44161009D01*
X124331904Y-44161009D02*
X124284285Y-44256247D01*
X124284285Y-44256247D02*
X124284285Y-44494342D01*
X124284285Y-44494342D02*
X124331904Y-44589580D01*
X124331904Y-44589580D02*
X124379523Y-44637200D01*
X124379523Y-44637200D02*
X124474761Y-44684819D01*
X124474761Y-44684819D02*
X124760475Y-44684819D01*
X124760475Y-44684819D02*
X124855713Y-44637200D01*
X124855713Y-44637200D02*
X124903332Y-44589580D01*
X147233333Y-52704819D02*
X147233333Y-53419104D01*
X147233333Y-53419104D02*
X147280952Y-53561961D01*
X147280952Y-53561961D02*
X147376190Y-53657200D01*
X147376190Y-53657200D02*
X147519047Y-53704819D01*
X147519047Y-53704819D02*
X147614285Y-53704819D01*
X146233333Y-53704819D02*
X146804761Y-53704819D01*
X146519047Y-53704819D02*
X146519047Y-52704819D01*
X146519047Y-52704819D02*
X146614285Y-52847676D01*
X146614285Y-52847676D02*
X146709523Y-52942914D01*
X146709523Y-52942914D02*
X146804761Y-52990533D01*
X127111904Y-48704819D02*
X127111904Y-49514342D01*
X127111904Y-49514342D02*
X127064285Y-49609580D01*
X127064285Y-49609580D02*
X127016666Y-49657200D01*
X127016666Y-49657200D02*
X126921428Y-49704819D01*
X126921428Y-49704819D02*
X126730952Y-49704819D01*
X126730952Y-49704819D02*
X126635714Y-49657200D01*
X126635714Y-49657200D02*
X126588095Y-49609580D01*
X126588095Y-49609580D02*
X126540476Y-49514342D01*
X126540476Y-49514342D02*
X126540476Y-48704819D01*
X126159523Y-48704819D02*
X125540476Y-48704819D01*
X125540476Y-48704819D02*
X125873809Y-49085771D01*
X125873809Y-49085771D02*
X125730952Y-49085771D01*
X125730952Y-49085771D02*
X125635714Y-49133390D01*
X125635714Y-49133390D02*
X125588095Y-49181009D01*
X125588095Y-49181009D02*
X125540476Y-49276247D01*
X125540476Y-49276247D02*
X125540476Y-49514342D01*
X125540476Y-49514342D02*
X125588095Y-49609580D01*
X125588095Y-49609580D02*
X125635714Y-49657200D01*
X125635714Y-49657200D02*
X125730952Y-49704819D01*
X125730952Y-49704819D02*
X126016666Y-49704819D01*
X126016666Y-49704819D02*
X126111904Y-49657200D01*
X126111904Y-49657200D02*
X126159523Y-49609580D01*
X127891666Y-53859580D02*
X127939285Y-53907200D01*
X127939285Y-53907200D02*
X128082142Y-53954819D01*
X128082142Y-53954819D02*
X128177380Y-53954819D01*
X128177380Y-53954819D02*
X128320237Y-53907200D01*
X128320237Y-53907200D02*
X128415475Y-53811961D01*
X128415475Y-53811961D02*
X128463094Y-53716723D01*
X128463094Y-53716723D02*
X128510713Y-53526247D01*
X128510713Y-53526247D02*
X128510713Y-53383390D01*
X128510713Y-53383390D02*
X128463094Y-53192914D01*
X128463094Y-53192914D02*
X128415475Y-53097676D01*
X128415475Y-53097676D02*
X128320237Y-53002438D01*
X128320237Y-53002438D02*
X128177380Y-52954819D01*
X128177380Y-52954819D02*
X128082142Y-52954819D01*
X128082142Y-52954819D02*
X127939285Y-53002438D01*
X127939285Y-53002438D02*
X127891666Y-53050057D01*
X127510713Y-53050057D02*
X127463094Y-53002438D01*
X127463094Y-53002438D02*
X127367856Y-52954819D01*
X127367856Y-52954819D02*
X127129761Y-52954819D01*
X127129761Y-52954819D02*
X127034523Y-53002438D01*
X127034523Y-53002438D02*
X126986904Y-53050057D01*
X126986904Y-53050057D02*
X126939285Y-53145295D01*
X126939285Y-53145295D02*
X126939285Y-53240533D01*
X126939285Y-53240533D02*
X126986904Y-53383390D01*
X126986904Y-53383390D02*
X127558332Y-53954819D01*
X127558332Y-53954819D02*
X126939285Y-53954819D01*
X133991666Y-53954819D02*
X134324999Y-53478628D01*
X134563094Y-53954819D02*
X134563094Y-52954819D01*
X134563094Y-52954819D02*
X134182142Y-52954819D01*
X134182142Y-52954819D02*
X134086904Y-53002438D01*
X134086904Y-53002438D02*
X134039285Y-53050057D01*
X134039285Y-53050057D02*
X133991666Y-53145295D01*
X133991666Y-53145295D02*
X133991666Y-53288152D01*
X133991666Y-53288152D02*
X134039285Y-53383390D01*
X134039285Y-53383390D02*
X134086904Y-53431009D01*
X134086904Y-53431009D02*
X134182142Y-53478628D01*
X134182142Y-53478628D02*
X134563094Y-53478628D01*
X133039285Y-53954819D02*
X133610713Y-53954819D01*
X133324999Y-53954819D02*
X133324999Y-52954819D01*
X133324999Y-52954819D02*
X133420237Y-53097676D01*
X133420237Y-53097676D02*
X133515475Y-53192914D01*
X133515475Y-53192914D02*
X133610713Y-53240533D01*
X135672924Y-39665246D02*
X135196733Y-39331913D01*
X135672924Y-39093818D02*
X134672924Y-39093818D01*
X134672924Y-39093818D02*
X134672924Y-39474770D01*
X134672924Y-39474770D02*
X134720543Y-39570008D01*
X134720543Y-39570008D02*
X134768162Y-39617627D01*
X134768162Y-39617627D02*
X134863400Y-39665246D01*
X134863400Y-39665246D02*
X135006257Y-39665246D01*
X135006257Y-39665246D02*
X135101495Y-39617627D01*
X135101495Y-39617627D02*
X135149114Y-39570008D01*
X135149114Y-39570008D02*
X135196733Y-39474770D01*
X135196733Y-39474770D02*
X135196733Y-39093818D01*
X134672924Y-40570008D02*
X134672924Y-40093818D01*
X134672924Y-40093818D02*
X135149114Y-40046199D01*
X135149114Y-40046199D02*
X135101495Y-40093818D01*
X135101495Y-40093818D02*
X135053876Y-40189056D01*
X135053876Y-40189056D02*
X135053876Y-40427151D01*
X135053876Y-40427151D02*
X135101495Y-40522389D01*
X135101495Y-40522389D02*
X135149114Y-40570008D01*
X135149114Y-40570008D02*
X135244352Y-40617627D01*
X135244352Y-40617627D02*
X135482447Y-40617627D01*
X135482447Y-40617627D02*
X135577685Y-40570008D01*
X135577685Y-40570008D02*
X135625305Y-40522389D01*
X135625305Y-40522389D02*
X135672924Y-40427151D01*
X135672924Y-40427151D02*
X135672924Y-40189056D01*
X135672924Y-40189056D02*
X135625305Y-40093818D01*
X135625305Y-40093818D02*
X135577685Y-40046199D01*
X131441666Y-38929580D02*
X131489285Y-38977200D01*
X131489285Y-38977200D02*
X131632142Y-39024819D01*
X131632142Y-39024819D02*
X131727380Y-39024819D01*
X131727380Y-39024819D02*
X131870237Y-38977200D01*
X131870237Y-38977200D02*
X131965475Y-38881961D01*
X131965475Y-38881961D02*
X132013094Y-38786723D01*
X132013094Y-38786723D02*
X132060713Y-38596247D01*
X132060713Y-38596247D02*
X132060713Y-38453390D01*
X132060713Y-38453390D02*
X132013094Y-38262914D01*
X132013094Y-38262914D02*
X131965475Y-38167676D01*
X131965475Y-38167676D02*
X131870237Y-38072438D01*
X131870237Y-38072438D02*
X131727380Y-38024819D01*
X131727380Y-38024819D02*
X131632142Y-38024819D01*
X131632142Y-38024819D02*
X131489285Y-38072438D01*
X131489285Y-38072438D02*
X131441666Y-38120057D01*
X130489285Y-39024819D02*
X131060713Y-39024819D01*
X130774999Y-39024819D02*
X130774999Y-38024819D01*
X130774999Y-38024819D02*
X130870237Y-38167676D01*
X130870237Y-38167676D02*
X130965475Y-38262914D01*
X130965475Y-38262914D02*
X131060713Y-38310533D01*
X122954819Y-46833333D02*
X122478628Y-46500000D01*
X122954819Y-46261905D02*
X121954819Y-46261905D01*
X121954819Y-46261905D02*
X121954819Y-46642857D01*
X121954819Y-46642857D02*
X122002438Y-46738095D01*
X122002438Y-46738095D02*
X122050057Y-46785714D01*
X122050057Y-46785714D02*
X122145295Y-46833333D01*
X122145295Y-46833333D02*
X122288152Y-46833333D01*
X122288152Y-46833333D02*
X122383390Y-46785714D01*
X122383390Y-46785714D02*
X122431009Y-46738095D01*
X122431009Y-46738095D02*
X122478628Y-46642857D01*
X122478628Y-46642857D02*
X122478628Y-46261905D01*
X122288152Y-47690476D02*
X122954819Y-47690476D01*
X121907200Y-47452381D02*
X122621485Y-47214286D01*
X122621485Y-47214286D02*
X122621485Y-47833333D01*
X130917851Y-53872758D02*
X130965470Y-53920378D01*
X130965470Y-53920378D02*
X131108327Y-53967997D01*
X131108327Y-53967997D02*
X131203565Y-53967997D01*
X131203565Y-53967997D02*
X131346422Y-53920378D01*
X131346422Y-53920378D02*
X131441660Y-53825139D01*
X131441660Y-53825139D02*
X131489279Y-53729901D01*
X131489279Y-53729901D02*
X131536898Y-53539425D01*
X131536898Y-53539425D02*
X131536898Y-53396568D01*
X131536898Y-53396568D02*
X131489279Y-53206092D01*
X131489279Y-53206092D02*
X131441660Y-53110854D01*
X131441660Y-53110854D02*
X131346422Y-53015616D01*
X131346422Y-53015616D02*
X131203565Y-52967997D01*
X131203565Y-52967997D02*
X131108327Y-52967997D01*
X131108327Y-52967997D02*
X130965470Y-53015616D01*
X130965470Y-53015616D02*
X130917851Y-53063235D01*
X130060708Y-53301330D02*
X130060708Y-53967997D01*
X130298803Y-52920378D02*
X130536898Y-53634663D01*
X130536898Y-53634663D02*
X129917851Y-53634663D01*
X128266666Y-39024819D02*
X128599999Y-38548628D01*
X128838094Y-39024819D02*
X128838094Y-38024819D01*
X128838094Y-38024819D02*
X128457142Y-38024819D01*
X128457142Y-38024819D02*
X128361904Y-38072438D01*
X128361904Y-38072438D02*
X128314285Y-38120057D01*
X128314285Y-38120057D02*
X128266666Y-38215295D01*
X128266666Y-38215295D02*
X128266666Y-38358152D01*
X128266666Y-38358152D02*
X128314285Y-38453390D01*
X128314285Y-38453390D02*
X128361904Y-38501009D01*
X128361904Y-38501009D02*
X128457142Y-38548628D01*
X128457142Y-38548628D02*
X128838094Y-38548628D01*
X127933332Y-38024819D02*
X127314285Y-38024819D01*
X127314285Y-38024819D02*
X127647618Y-38405771D01*
X127647618Y-38405771D02*
X127504761Y-38405771D01*
X127504761Y-38405771D02*
X127409523Y-38453390D01*
X127409523Y-38453390D02*
X127361904Y-38501009D01*
X127361904Y-38501009D02*
X127314285Y-38596247D01*
X127314285Y-38596247D02*
X127314285Y-38834342D01*
X127314285Y-38834342D02*
X127361904Y-38929580D01*
X127361904Y-38929580D02*
X127409523Y-38977200D01*
X127409523Y-38977200D02*
X127504761Y-39024819D01*
X127504761Y-39024819D02*
X127790475Y-39024819D01*
X127790475Y-39024819D02*
X127885713Y-38977200D01*
X127885713Y-38977200D02*
X127933332Y-38929580D01*
X121455180Y-43713333D02*
X120740895Y-43713333D01*
X120740895Y-43713333D02*
X120598038Y-43760952D01*
X120598038Y-43760952D02*
X120502800Y-43856190D01*
X120502800Y-43856190D02*
X120455180Y-43999047D01*
X120455180Y-43999047D02*
X120455180Y-44094285D01*
X121359942Y-43284761D02*
X121407561Y-43237142D01*
X121407561Y-43237142D02*
X121455180Y-43141904D01*
X121455180Y-43141904D02*
X121455180Y-42903809D01*
X121455180Y-42903809D02*
X121407561Y-42808571D01*
X121407561Y-42808571D02*
X121359942Y-42760952D01*
X121359942Y-42760952D02*
X121264704Y-42713333D01*
X121264704Y-42713333D02*
X121169466Y-42713333D01*
X121169466Y-42713333D02*
X121026609Y-42760952D01*
X121026609Y-42760952D02*
X120455180Y-43332380D01*
X120455180Y-43332380D02*
X120455180Y-42713333D01*
%TO.C,C3*%
D11*
X126383219Y-45898574D02*
X127008219Y-45898574D01*
X126695719Y-46211074D02*
X126695719Y-45586074D01*
X127248219Y-42518011D02*
X127248219Y-43153574D01*
X127248219Y-42518011D02*
X128312656Y-41453574D01*
X127248219Y-45909137D02*
X127248219Y-45273574D01*
X127248219Y-45909137D02*
X128312656Y-46973574D01*
X128312656Y-41453574D02*
X132768219Y-41453574D01*
X128312656Y-46973574D02*
X132768219Y-46973574D01*
X132768219Y-41453574D02*
X132768219Y-43153574D01*
X132768219Y-46973574D02*
X132768219Y-45273574D01*
%TO.C,J1*%
X134890000Y-48450000D02*
X134890000Y-49050000D01*
X136400000Y-41140000D02*
X136400000Y-40560000D01*
X136400000Y-50360000D02*
X136400000Y-50940000D01*
%TO.C,U3*%
X128777500Y-47415000D02*
X128777500Y-47590000D01*
X128777500Y-50460000D02*
X128777500Y-50635000D01*
X128777500Y-50635000D02*
X131997500Y-50635000D01*
X131997500Y-47415000D02*
X128777500Y-47415000D01*
X131997500Y-47590000D02*
X131997500Y-47415000D01*
X131997500Y-50635000D02*
X131997500Y-50460000D01*
X128467500Y-50795000D02*
X127987500Y-50795000D01*
X128227500Y-50465000D01*
X128467500Y-50795000D01*
G36*
X128467500Y-50795000D02*
G01*
X127987500Y-50795000D01*
X128227500Y-50465000D01*
X128467500Y-50795000D01*
G37*
%TO.C,C2*%
X127865580Y-51490000D02*
X127584420Y-51490000D01*
X127865580Y-52510000D02*
X127584420Y-52510000D01*
%TO.C,R1*%
X134062258Y-51477500D02*
X133587742Y-51477500D01*
X134062258Y-52522500D02*
X133587742Y-52522500D01*
%TO.C,R5*%
X133249610Y-41123017D02*
X133249610Y-41597533D01*
X134294610Y-41123017D02*
X134294610Y-41597533D01*
%TO.C,C1*%
X131415580Y-39490000D02*
X131134420Y-39490000D01*
X131415580Y-40510000D02*
X131134420Y-40510000D01*
%TO.C,R4*%
X120477500Y-46762742D02*
X120477500Y-47237258D01*
X121522500Y-46762742D02*
X121522500Y-47237258D01*
%TO.C,C4*%
X130891765Y-51503178D02*
X130610605Y-51503178D01*
X130891765Y-52523178D02*
X130610605Y-52523178D01*
%TO.C,R3*%
X128337258Y-39477500D02*
X127862742Y-39477500D01*
X128337258Y-40522500D02*
X127862742Y-40522500D01*
%TO.C,J2*%
X105040000Y-52660000D02*
X105040000Y-38840000D01*
X107540000Y-38840000D02*
X105040000Y-38840000D01*
X107540000Y-52660000D02*
X105040000Y-52660000D01*
X110060000Y-52660000D02*
X115840000Y-52660000D01*
X115840000Y-38840000D02*
X110060000Y-38840000D01*
X119760000Y-38840000D02*
X118360000Y-38840000D01*
X119760000Y-52660000D02*
X118360000Y-52660000D01*
X119760000Y-52660000D02*
X119760000Y-38840000D01*
%TD*%
M02*
