M48
; DRILL file KiCad 10.0.1 date 2026-09-30T19:08:33
; FORMAT={-:-/ absolute / metric / decimal}
; #@! TF.CreationDate,2026-09-30T19:08:33+03:00
; #@! TF.GenerationSoftware,Kicad,Pcbnew,10.0.1
; #@! TF.FileFunction,Plated,1,2,PTH
FMAT,2
METRIC
; #@! TA.AperFunction,Plated,PTH,ViaDrill
T1C0.300
; #@! TA.AperFunction,Plated,PTH,ComponentDrill
T2C0.900
%
G90
G05
T1
X111.0Y-50.0
X111.4Y-41.0
X111.42Y-48.2
X117.499Y-46.499
X119.03Y-40.595
X120.29Y-39.2
X120.76Y-52.66
X123.79Y-39.94
X124.71Y-40.582
X125.25Y-41.39
X126.0Y-50.5
X126.394Y-40.707
X126.5Y-41.5
X126.5Y-42.5
X128.98Y-41.9
X129.0Y-39.0
X129.0Y-41.068
X132.78Y-42.89
X134.0Y-49.78
T2
G00X137.2Y-40.15
M15
G01X138.8Y-40.15
M16
G05
G00X137.2Y-51.85
M15
G01X138.8Y-51.85
M16
G05
M30
