%TF.GenerationSoftware,KiCad,Pcbnew,10.0.1*%
%TF.CreationDate,2026-09-30T19:08:30+03:00*%
%TF.ProjectId,hakkit_badusb,68616b6b-6974-45f6-9261-647573622e6b,rev?*%
%TF.SameCoordinates,Original*%
%TF.FileFunction,Legend,Top*%
%TF.FilePolarity,Positive*%
%FSLAX46Y46*%
G04 Gerber Fmt 4.6, Leading zero omitted, Abs format (unit mm)*
G04 Created by KiCad (PCBNEW 10.0.1) date 2026-09-30 19:08:30*
%MOMM*%
%LPD*%
G01*
G04 APERTURE LIST*
%ADD10C,0.150000*%
%ADD11C,0.120000*%
G04 APERTURE END LIST*
D10*
X118502537Y-41941392D02*
X119074957Y-42513812D01*
X119074957Y-42513812D02*
X119175972Y-42547484D01*
X119175972Y-42547484D02*
X119243316Y-42547484D01*
X119243316Y-42547484D02*
X119344331Y-42513812D01*
X119344331Y-42513812D02*
X119479018Y-42379125D01*
X119479018Y-42379125D02*
X119512690Y-42278110D01*
X119512690Y-42278110D02*
X119512690Y-42210766D01*
X119512690Y-42210766D02*
X119479018Y-42109751D01*
X119479018Y-42109751D02*
X118906598Y-41537331D01*
X120320812Y-41537331D02*
X119916751Y-41941392D01*
X120118781Y-41739362D02*
X119411675Y-41032255D01*
X119411675Y-41032255D02*
X119445346Y-41200614D01*
X119445346Y-41200614D02*
X119445346Y-41335301D01*
X119445346Y-41335301D02*
X119411675Y-41436316D01*
X105956667Y-53297200D02*
X106099524Y-53344819D01*
X106099524Y-53344819D02*
X106337619Y-53344819D01*
X106337619Y-53344819D02*
X106432857Y-53297200D01*
X106432857Y-53297200D02*
X106480476Y-53249580D01*
X106480476Y-53249580D02*
X106528095Y-53154342D01*
X106528095Y-53154342D02*
X106528095Y-53059104D01*
X106528095Y-53059104D02*
X106480476Y-52963866D01*
X106480476Y-52963866D02*
X106432857Y-52916247D01*
X106432857Y-52916247D02*
X106337619Y-52868628D01*
X106337619Y-52868628D02*
X106147143Y-52821009D01*
X106147143Y-52821009D02*
X106051905Y-52773390D01*
X106051905Y-52773390D02*
X106004286Y-52725771D01*
X106004286Y-52725771D02*
X105956667Y-52630533D01*
X105956667Y-52630533D02*
X105956667Y-52535295D01*
X105956667Y-52535295D02*
X106004286Y-52440057D01*
X106004286Y-52440057D02*
X106051905Y-52392438D01*
X106051905Y-52392438D02*
X106147143Y-52344819D01*
X106147143Y-52344819D02*
X106385238Y-52344819D01*
X106385238Y-52344819D02*
X106528095Y-52392438D01*
X106861429Y-52344819D02*
X107099524Y-53344819D01*
X107099524Y-53344819D02*
X107290000Y-52630533D01*
X107290000Y-52630533D02*
X107480476Y-53344819D01*
X107480476Y-53344819D02*
X107718572Y-52344819D01*
X108623333Y-53344819D02*
X108051905Y-53344819D01*
X108337619Y-53344819D02*
X108337619Y-52344819D01*
X108337619Y-52344819D02*
X108242381Y-52487676D01*
X108242381Y-52487676D02*
X108147143Y-52582914D01*
X108147143Y-52582914D02*
X108051905Y-52630533D01*
X130333333Y-48359580D02*
X130285714Y-48407200D01*
X130285714Y-48407200D02*
X130142857Y-48454819D01*
X130142857Y-48454819D02*
X130047619Y-48454819D01*
X130047619Y-48454819D02*
X129904762Y-48407200D01*
X129904762Y-48407200D02*
X129809524Y-48311961D01*
X129809524Y-48311961D02*
X129761905Y-48216723D01*
X129761905Y-48216723D02*
X129714286Y-48026247D01*
X129714286Y-48026247D02*
X129714286Y-47883390D01*
X129714286Y-47883390D02*
X129761905Y-47692914D01*
X129761905Y-47692914D02*
X129809524Y-47597676D01*
X129809524Y-47597676D02*
X129904762Y-47502438D01*
X129904762Y-47502438D02*
X130047619Y-47454819D01*
X130047619Y-47454819D02*
X130142857Y-47454819D01*
X130142857Y-47454819D02*
X130285714Y-47502438D01*
X130285714Y-47502438D02*
X130333333Y-47550057D01*
X131190476Y-47454819D02*
X131000000Y-47454819D01*
X131000000Y-47454819D02*
X130904762Y-47502438D01*
X130904762Y-47502438D02*
X130857143Y-47550057D01*
X130857143Y-47550057D02*
X130761905Y-47692914D01*
X130761905Y-47692914D02*
X130714286Y-47883390D01*
X130714286Y-47883390D02*
X130714286Y-48264342D01*
X130714286Y-48264342D02*
X130761905Y-48359580D01*
X130761905Y-48359580D02*
X130809524Y-48407200D01*
X130809524Y-48407200D02*
X130904762Y-48454819D01*
X130904762Y-48454819D02*
X131095238Y-48454819D01*
X131095238Y-48454819D02*
X131190476Y-48407200D01*
X131190476Y-48407200D02*
X131238095Y-48359580D01*
X131238095Y-48359580D02*
X131285714Y-48264342D01*
X131285714Y-48264342D02*
X131285714Y-48026247D01*
X131285714Y-48026247D02*
X131238095Y-47931009D01*
X131238095Y-47931009D02*
X131190476Y-47883390D01*
X131190476Y-47883390D02*
X131095238Y-47835771D01*
X131095238Y-47835771D02*
X130904762Y-47835771D01*
X130904762Y-47835771D02*
X130809524Y-47883390D01*
X130809524Y-47883390D02*
X130761905Y-47931009D01*
X130761905Y-47931009D02*
X130714286Y-48026247D01*
X130243809Y-42378628D02*
X130243809Y-42854819D01*
X129910476Y-41854819D02*
X130243809Y-42378628D01*
X130243809Y-42378628D02*
X130577142Y-41854819D01*
X130862857Y-41950057D02*
X130910476Y-41902438D01*
X130910476Y-41902438D02*
X131005714Y-41854819D01*
X131005714Y-41854819D02*
X131243809Y-41854819D01*
X131243809Y-41854819D02*
X131339047Y-41902438D01*
X131339047Y-41902438D02*
X131386666Y-41950057D01*
X131386666Y-41950057D02*
X131434285Y-42045295D01*
X131434285Y-42045295D02*
X131434285Y-42140533D01*
X131434285Y-42140533D02*
X131386666Y-42283390D01*
X131386666Y-42283390D02*
X130815238Y-42854819D01*
X130815238Y-42854819D02*
X131434285Y-42854819D01*
X130558333Y-39929580D02*
X130510714Y-39977200D01*
X130510714Y-39977200D02*
X130367857Y-40024819D01*
X130367857Y-40024819D02*
X130272619Y-40024819D01*
X130272619Y-40024819D02*
X130129762Y-39977200D01*
X130129762Y-39977200D02*
X130034524Y-39881961D01*
X130034524Y-39881961D02*
X129986905Y-39786723D01*
X129986905Y-39786723D02*
X129939286Y-39596247D01*
X129939286Y-39596247D02*
X129939286Y-39453390D01*
X129939286Y-39453390D02*
X129986905Y-39262914D01*
X129986905Y-39262914D02*
X130034524Y-39167676D01*
X130034524Y-39167676D02*
X130129762Y-39072438D01*
X130129762Y-39072438D02*
X130272619Y-39024819D01*
X130272619Y-39024819D02*
X130367857Y-39024819D01*
X130367857Y-39024819D02*
X130510714Y-39072438D01*
X130510714Y-39072438D02*
X130558333Y-39120057D01*
X131463095Y-39024819D02*
X130986905Y-39024819D01*
X130986905Y-39024819D02*
X130939286Y-39501009D01*
X130939286Y-39501009D02*
X130986905Y-39453390D01*
X130986905Y-39453390D02*
X131082143Y-39405771D01*
X131082143Y-39405771D02*
X131320238Y-39405771D01*
X131320238Y-39405771D02*
X131415476Y-39453390D01*
X131415476Y-39453390D02*
X131463095Y-39501009D01*
X131463095Y-39501009D02*
X131510714Y-39596247D01*
X131510714Y-39596247D02*
X131510714Y-39834342D01*
X131510714Y-39834342D02*
X131463095Y-39929580D01*
X131463095Y-39929580D02*
X131415476Y-39977200D01*
X131415476Y-39977200D02*
X131320238Y-40024819D01*
X131320238Y-40024819D02*
X131082143Y-40024819D01*
X131082143Y-40024819D02*
X130986905Y-39977200D01*
X130986905Y-39977200D02*
X130939286Y-39929580D01*
X112425595Y-45759819D02*
X112425595Y-46569342D01*
X112425595Y-46569342D02*
X112473214Y-46664580D01*
X112473214Y-46664580D02*
X112520833Y-46712200D01*
X112520833Y-46712200D02*
X112616071Y-46759819D01*
X112616071Y-46759819D02*
X112806547Y-46759819D01*
X112806547Y-46759819D02*
X112901785Y-46712200D01*
X112901785Y-46712200D02*
X112949404Y-46664580D01*
X112949404Y-46664580D02*
X112997023Y-46569342D01*
X112997023Y-46569342D02*
X112997023Y-45759819D01*
X113901785Y-46093152D02*
X113901785Y-46759819D01*
X113663690Y-45712200D02*
X113425595Y-46426485D01*
X113425595Y-46426485D02*
X114044642Y-46426485D01*
X111483333Y-48374819D02*
X111150000Y-47898628D01*
X110911905Y-48374819D02*
X110911905Y-47374819D01*
X110911905Y-47374819D02*
X111292857Y-47374819D01*
X111292857Y-47374819D02*
X111388095Y-47422438D01*
X111388095Y-47422438D02*
X111435714Y-47470057D01*
X111435714Y-47470057D02*
X111483333Y-47565295D01*
X111483333Y-47565295D02*
X111483333Y-47708152D01*
X111483333Y-47708152D02*
X111435714Y-47803390D01*
X111435714Y-47803390D02*
X111388095Y-47851009D01*
X111388095Y-47851009D02*
X111292857Y-47898628D01*
X111292857Y-47898628D02*
X110911905Y-47898628D01*
X111864286Y-47470057D02*
X111911905Y-47422438D01*
X111911905Y-47422438D02*
X112007143Y-47374819D01*
X112007143Y-47374819D02*
X112245238Y-47374819D01*
X112245238Y-47374819D02*
X112340476Y-47422438D01*
X112340476Y-47422438D02*
X112388095Y-47470057D01*
X112388095Y-47470057D02*
X112435714Y-47565295D01*
X112435714Y-47565295D02*
X112435714Y-47660533D01*
X112435714Y-47660533D02*
X112388095Y-47803390D01*
X112388095Y-47803390D02*
X111816667Y-48374819D01*
X111816667Y-48374819D02*
X112435714Y-48374819D01*
X114321905Y-46604819D02*
X114321905Y-45604819D01*
X114321905Y-45604819D02*
X114560000Y-45604819D01*
X114560000Y-45604819D02*
X114702857Y-45652438D01*
X114702857Y-45652438D02*
X114798095Y-45747676D01*
X114798095Y-45747676D02*
X114845714Y-45842914D01*
X114845714Y-45842914D02*
X114893333Y-46033390D01*
X114893333Y-46033390D02*
X114893333Y-46176247D01*
X114893333Y-46176247D02*
X114845714Y-46366723D01*
X114845714Y-46366723D02*
X114798095Y-46461961D01*
X114798095Y-46461961D02*
X114702857Y-46557200D01*
X114702857Y-46557200D02*
X114560000Y-46604819D01*
X114560000Y-46604819D02*
X114321905Y-46604819D01*
X115274286Y-45700057D02*
X115321905Y-45652438D01*
X115321905Y-45652438D02*
X115417143Y-45604819D01*
X115417143Y-45604819D02*
X115655238Y-45604819D01*
X115655238Y-45604819D02*
X115750476Y-45652438D01*
X115750476Y-45652438D02*
X115798095Y-45700057D01*
X115798095Y-45700057D02*
X115845714Y-45795295D01*
X115845714Y-45795295D02*
X115845714Y-45890533D01*
X115845714Y-45890533D02*
X115798095Y-46033390D01*
X115798095Y-46033390D02*
X115226667Y-46604819D01*
X115226667Y-46604819D02*
X115845714Y-46604819D01*
X111288571Y-48412295D02*
X110831428Y-48412295D01*
X111060000Y-48412295D02*
X111060000Y-47612295D01*
X111060000Y-47612295D02*
X110983809Y-47726580D01*
X110983809Y-47726580D02*
X110907619Y-47802771D01*
X110907619Y-47802771D02*
X110831428Y-47840866D01*
%TO.C,U1*%
D11*
X117736802Y-45203472D02*
X118196421Y-44743853D01*
X118196421Y-45663091D02*
X117736802Y-45203472D01*
X122382494Y-40557780D02*
X122842113Y-40098161D01*
X122842113Y-40098161D02*
X123301732Y-40557780D01*
X122842113Y-50308783D02*
X122382494Y-49849164D01*
X123301732Y-49849164D02*
X122842113Y-50308783D01*
X127487805Y-44743853D02*
X127947424Y-45203472D01*
X127947424Y-45203472D02*
X127487805Y-45663091D01*
X118012574Y-46695467D02*
X117673162Y-46356056D01*
X118076213Y-46292416D01*
X118012574Y-46695467D01*
G36*
X118012574Y-46695467D02*
G01*
X117673162Y-46356056D01*
X118076213Y-46292416D01*
X118012574Y-46695467D01*
G37*
%TO.C,SW1*%
X105810000Y-46970000D02*
X105810000Y-51370000D01*
X107410000Y-46970000D02*
X107310000Y-46970000D01*
X107410000Y-51370000D02*
X107310000Y-51370000D01*
X108910000Y-51370000D02*
X108910000Y-46970000D01*
%TO.C,C6*%
X130584420Y-48990000D02*
X130865580Y-48990000D01*
X130584420Y-50010000D02*
X130865580Y-50010000D01*
%TO.C,Y2*%
X128660000Y-43140000D02*
X128660000Y-46560000D01*
X128660000Y-46560000D02*
X132780000Y-46560000D01*
%TO.C,C5*%
X130584420Y-40490000D02*
X130865580Y-40490000D01*
X130584420Y-41510000D02*
X130865580Y-41510000D01*
%TO.C,U4*%
X109840000Y-39640000D02*
X115360000Y-39640000D01*
X109840000Y-39910000D02*
X109840000Y-39640000D01*
X109840000Y-45160000D02*
X109840000Y-44890000D01*
X115360000Y-39640000D02*
X115360000Y-39910000D01*
X115360000Y-44890000D02*
X115360000Y-45160000D01*
X115360000Y-45160000D02*
X109840000Y-45160000D01*
X109010000Y-39900000D02*
X108670000Y-39430000D01*
X109350000Y-39430000D01*
X109010000Y-39900000D01*
G36*
X109010000Y-39900000D02*
G01*
X108670000Y-39430000D01*
X109350000Y-39430000D01*
X109010000Y-39900000D01*
G37*
%TO.C,R2*%
X109477500Y-48237258D02*
X109477500Y-47762742D01*
X110522500Y-48237258D02*
X110522500Y-47762742D01*
%TO.C,D2*%
X111560000Y-46900000D02*
X111560000Y-52400000D01*
X111560000Y-46900000D02*
X118560000Y-46900000D01*
X111560000Y-52400000D02*
X118110000Y-52400000D01*
X112360000Y-50550000D02*
X112360000Y-48750000D01*
X117760000Y-50550000D02*
X117760000Y-48750000D01*
X118110000Y-52400000D02*
X118560000Y-51950000D01*
X118560000Y-51950000D02*
X118560000Y-46900000D01*
%TD*%
M02*
