%TF.GenerationSoftware,KiCad,Pcbnew,10.0.1*%
%TF.CreationDate,2026-10-01T15:16:09+03:00*%
%TF.ProjectId,hakkit_badusb,68616b6b-6974-45f6-9261-647573622e6b,rev?*%
%TF.SameCoordinates,Original*%
%TF.FileFunction,Drillmap*%
%TF.FilePolarity,Positive*%
%FSLAX45Y45*%
G04 Gerber Fmt 4.5, Leading zero omitted, Abs format (unit mm)*
G04 Created by KiCad (PCBNEW 10.0.1) date 2026-10-01 15:16:09*
%MOMM*%
%LPD*%
G01*
G04 APERTURE LIST*
%ADD10C,0.050000*%
%ADD11C,0.200000*%
%ADD12C,0.100000*%
G04 APERTURE END LIST*
D10*
X10450000Y-3950000D02*
X10450000Y-3950000D01*
G75*
G02*
X10650000Y-3750000I200000J0D01*
G01*
X13900000Y-3750000D01*
G75*
G02*
X14100000Y-3950000I0J-200000D01*
G01*
X14100000Y-5200000D01*
G75*
G02*
X13900000Y-5400000I-200000J0D01*
G01*
X10650000Y-5400000D01*
G75*
G02*
X10450000Y-5200000I0J200000D01*
G01*
X10450000Y-3950000D01*
X12400000Y-5200000D02*
G75*
G02*
X12200000Y-5200000I-100000J0D01*
G01*
X12200000Y-5200000D02*
G75*
G02*
X12400000Y-5200000I100000J0D01*
G01*
D11*
D12*
X11085000Y-4985000D02*
X11115000Y-5015000D01*
X11115000Y-4985000D02*
X11085000Y-5015000D01*
X11125000Y-4085000D02*
X11155000Y-4115000D01*
X11155000Y-4085000D02*
X11125000Y-4115000D01*
X11127000Y-4805000D02*
X11157000Y-4835000D01*
X11157000Y-4805000D02*
X11127000Y-4835000D01*
X11734870Y-4634870D02*
X11764870Y-4664870D01*
X11764870Y-4634870D02*
X11734870Y-4664870D01*
X11888000Y-4044500D02*
X11918000Y-4074500D01*
X11918000Y-4044500D02*
X11888000Y-4074500D01*
X12014000Y-3905000D02*
X12044000Y-3935000D01*
X12044000Y-3905000D02*
X12014000Y-3935000D01*
X12061000Y-5251000D02*
X12091000Y-5281000D01*
X12091000Y-5251000D02*
X12061000Y-5281000D01*
X12364000Y-3979000D02*
X12394000Y-4009000D01*
X12394000Y-3979000D02*
X12364000Y-4009000D01*
X12456000Y-4043182D02*
X12486000Y-4073182D01*
X12486000Y-4043182D02*
X12456000Y-4073182D01*
X12510000Y-4124000D02*
X12540000Y-4154000D01*
X12540000Y-4124000D02*
X12510000Y-4154000D01*
X12585000Y-5035000D02*
X12615000Y-5065000D01*
X12615000Y-5035000D02*
X12585000Y-5065000D01*
X12624389Y-4055707D02*
X12654389Y-4085707D01*
X12654389Y-4055707D02*
X12624389Y-4085707D01*
X12635000Y-4135000D02*
X12665000Y-4165000D01*
X12665000Y-4135000D02*
X12635000Y-4165000D01*
X12635000Y-4235000D02*
X12665000Y-4265000D01*
X12665000Y-4235000D02*
X12635000Y-4265000D01*
X12883000Y-4175000D02*
X12913000Y-4205000D01*
X12913000Y-4175000D02*
X12883000Y-4205000D01*
X12885000Y-3885000D02*
X12915000Y-3915000D01*
X12915000Y-3885000D02*
X12885000Y-3915000D01*
X12885000Y-4091807D02*
X12915000Y-4121807D01*
X12915000Y-4091807D02*
X12885000Y-4121807D01*
X13263000Y-4274000D02*
X13293000Y-4304000D01*
X13293000Y-4274000D02*
X13263000Y-4304000D01*
X13385000Y-4963000D02*
X13415000Y-4993000D01*
X13415000Y-4963000D02*
X13385000Y-4993000D01*
X13845000Y-4015000D02*
G75*
G02*
X13755000Y-4015000I-45000J0D01*
G01*
X13755000Y-4015000D02*
G75*
G02*
X13845000Y-4015000I45000J0D01*
G01*
X13720000Y-4060000D02*
X13880000Y-4060000D01*
X13880000Y-3970000D02*
G75*
G02*
X13880000Y-4060000I0J-45000D01*
G01*
X13880000Y-3970000D02*
X13720000Y-3970000D01*
X13720000Y-3970000D02*
G75*
G03*
X13720000Y-4060000I0J-45000D01*
G01*
X13845000Y-5185000D02*
G75*
G02*
X13755000Y-5185000I-45000J0D01*
G01*
X13755000Y-5185000D02*
G75*
G02*
X13845000Y-5185000I45000J0D01*
G01*
X13720000Y-5230000D02*
X13880000Y-5230000D01*
X13880000Y-5140000D02*
G75*
G02*
X13880000Y-5230000I0J-45000D01*
G01*
X13880000Y-5140000D02*
X13720000Y-5140000D01*
X13720000Y-5140000D02*
G75*
G03*
X13720000Y-5230000I0J-45000D01*
G01*
D11*
X10708277Y-5713984D02*
X10708277Y-5513984D01*
X10708277Y-5513984D02*
X10755896Y-5513984D01*
X10755896Y-5513984D02*
X10784467Y-5523508D01*
X10784467Y-5523508D02*
X10803515Y-5542555D01*
X10803515Y-5542555D02*
X10813039Y-5561603D01*
X10813039Y-5561603D02*
X10822563Y-5599698D01*
X10822563Y-5599698D02*
X10822563Y-5628269D01*
X10822563Y-5628269D02*
X10813039Y-5666365D01*
X10813039Y-5666365D02*
X10803515Y-5685412D01*
X10803515Y-5685412D02*
X10784467Y-5704460D01*
X10784467Y-5704460D02*
X10755896Y-5713984D01*
X10755896Y-5713984D02*
X10708277Y-5713984D01*
X10908277Y-5713984D02*
X10908277Y-5580650D01*
X10908277Y-5618746D02*
X10917801Y-5599698D01*
X10917801Y-5599698D02*
X10927324Y-5590174D01*
X10927324Y-5590174D02*
X10946372Y-5580650D01*
X10946372Y-5580650D02*
X10965420Y-5580650D01*
X11032086Y-5713984D02*
X11032086Y-5580650D01*
X11032086Y-5513984D02*
X11022563Y-5523508D01*
X11022563Y-5523508D02*
X11032086Y-5533031D01*
X11032086Y-5533031D02*
X11041610Y-5523508D01*
X11041610Y-5523508D02*
X11032086Y-5513984D01*
X11032086Y-5513984D02*
X11032086Y-5533031D01*
X11155896Y-5713984D02*
X11136848Y-5704460D01*
X11136848Y-5704460D02*
X11127324Y-5685412D01*
X11127324Y-5685412D02*
X11127324Y-5513984D01*
X11260658Y-5713984D02*
X11241610Y-5704460D01*
X11241610Y-5704460D02*
X11232086Y-5685412D01*
X11232086Y-5685412D02*
X11232086Y-5513984D01*
X11489229Y-5713984D02*
X11489229Y-5513984D01*
X11489229Y-5513984D02*
X11555896Y-5656841D01*
X11555896Y-5656841D02*
X11622562Y-5513984D01*
X11622562Y-5513984D02*
X11622562Y-5713984D01*
X11803515Y-5713984D02*
X11803515Y-5609222D01*
X11803515Y-5609222D02*
X11793991Y-5590174D01*
X11793991Y-5590174D02*
X11774943Y-5580650D01*
X11774943Y-5580650D02*
X11736848Y-5580650D01*
X11736848Y-5580650D02*
X11717801Y-5590174D01*
X11803515Y-5704460D02*
X11784467Y-5713984D01*
X11784467Y-5713984D02*
X11736848Y-5713984D01*
X11736848Y-5713984D02*
X11717801Y-5704460D01*
X11717801Y-5704460D02*
X11708277Y-5685412D01*
X11708277Y-5685412D02*
X11708277Y-5666365D01*
X11708277Y-5666365D02*
X11717801Y-5647317D01*
X11717801Y-5647317D02*
X11736848Y-5637793D01*
X11736848Y-5637793D02*
X11784467Y-5637793D01*
X11784467Y-5637793D02*
X11803515Y-5628269D01*
X11898753Y-5580650D02*
X11898753Y-5780650D01*
X11898753Y-5590174D02*
X11917801Y-5580650D01*
X11917801Y-5580650D02*
X11955896Y-5580650D01*
X11955896Y-5580650D02*
X11974943Y-5590174D01*
X11974943Y-5590174D02*
X11984467Y-5599698D01*
X11984467Y-5599698D02*
X11993991Y-5618746D01*
X11993991Y-5618746D02*
X11993991Y-5675888D01*
X11993991Y-5675888D02*
X11984467Y-5694936D01*
X11984467Y-5694936D02*
X11974943Y-5704460D01*
X11974943Y-5704460D02*
X11955896Y-5713984D01*
X11955896Y-5713984D02*
X11917801Y-5713984D01*
X11917801Y-5713984D02*
X11898753Y-5704460D01*
X12079705Y-5694936D02*
X12089229Y-5704460D01*
X12089229Y-5704460D02*
X12079705Y-5713984D01*
X12079705Y-5713984D02*
X12070182Y-5704460D01*
X12070182Y-5704460D02*
X12079705Y-5694936D01*
X12079705Y-5694936D02*
X12079705Y-5713984D01*
X12079705Y-5590174D02*
X12089229Y-5599698D01*
X12089229Y-5599698D02*
X12079705Y-5609222D01*
X12079705Y-5609222D02*
X12070182Y-5599698D01*
X12070182Y-5599698D02*
X12079705Y-5590174D01*
X12079705Y-5590174D02*
X12079705Y-5609222D01*
D12*
X10417500Y-6027500D02*
X10447500Y-6057500D01*
X10447500Y-6027500D02*
X10417500Y-6057500D01*
D11*
X10746372Y-5933984D02*
X10765420Y-5933984D01*
X10765420Y-5933984D02*
X10784467Y-5943508D01*
X10784467Y-5943508D02*
X10793991Y-5953031D01*
X10793991Y-5953031D02*
X10803515Y-5972079D01*
X10803515Y-5972079D02*
X10813039Y-6010174D01*
X10813039Y-6010174D02*
X10813039Y-6057793D01*
X10813039Y-6057793D02*
X10803515Y-6095888D01*
X10803515Y-6095888D02*
X10793991Y-6114936D01*
X10793991Y-6114936D02*
X10784467Y-6124460D01*
X10784467Y-6124460D02*
X10765420Y-6133984D01*
X10765420Y-6133984D02*
X10746372Y-6133984D01*
X10746372Y-6133984D02*
X10727324Y-6124460D01*
X10727324Y-6124460D02*
X10717801Y-6114936D01*
X10717801Y-6114936D02*
X10708277Y-6095888D01*
X10708277Y-6095888D02*
X10698753Y-6057793D01*
X10698753Y-6057793D02*
X10698753Y-6010174D01*
X10698753Y-6010174D02*
X10708277Y-5972079D01*
X10708277Y-5972079D02*
X10717801Y-5953031D01*
X10717801Y-5953031D02*
X10727324Y-5943508D01*
X10727324Y-5943508D02*
X10746372Y-5933984D01*
X10898753Y-6114936D02*
X10908277Y-6124460D01*
X10908277Y-6124460D02*
X10898753Y-6133984D01*
X10898753Y-6133984D02*
X10889229Y-6124460D01*
X10889229Y-6124460D02*
X10898753Y-6114936D01*
X10898753Y-6114936D02*
X10898753Y-6133984D01*
X10974944Y-5933984D02*
X11098753Y-5933984D01*
X11098753Y-5933984D02*
X11032086Y-6010174D01*
X11032086Y-6010174D02*
X11060658Y-6010174D01*
X11060658Y-6010174D02*
X11079705Y-6019698D01*
X11079705Y-6019698D02*
X11089229Y-6029222D01*
X11089229Y-6029222D02*
X11098753Y-6048269D01*
X11098753Y-6048269D02*
X11098753Y-6095888D01*
X11098753Y-6095888D02*
X11089229Y-6114936D01*
X11089229Y-6114936D02*
X11079705Y-6124460D01*
X11079705Y-6124460D02*
X11060658Y-6133984D01*
X11060658Y-6133984D02*
X11003515Y-6133984D01*
X11003515Y-6133984D02*
X10984467Y-6124460D01*
X10984467Y-6124460D02*
X10974944Y-6114936D01*
X11222562Y-5933984D02*
X11241610Y-5933984D01*
X11241610Y-5933984D02*
X11260658Y-5943508D01*
X11260658Y-5943508D02*
X11270182Y-5953031D01*
X11270182Y-5953031D02*
X11279705Y-5972079D01*
X11279705Y-5972079D02*
X11289229Y-6010174D01*
X11289229Y-6010174D02*
X11289229Y-6057793D01*
X11289229Y-6057793D02*
X11279705Y-6095888D01*
X11279705Y-6095888D02*
X11270182Y-6114936D01*
X11270182Y-6114936D02*
X11260658Y-6124460D01*
X11260658Y-6124460D02*
X11241610Y-6133984D01*
X11241610Y-6133984D02*
X11222562Y-6133984D01*
X11222562Y-6133984D02*
X11203515Y-6124460D01*
X11203515Y-6124460D02*
X11193991Y-6114936D01*
X11193991Y-6114936D02*
X11184467Y-6095888D01*
X11184467Y-6095888D02*
X11174944Y-6057793D01*
X11174944Y-6057793D02*
X11174944Y-6010174D01*
X11174944Y-6010174D02*
X11184467Y-5972079D01*
X11184467Y-5972079D02*
X11193991Y-5953031D01*
X11193991Y-5953031D02*
X11203515Y-5943508D01*
X11203515Y-5943508D02*
X11222562Y-5933984D01*
X11413039Y-5933984D02*
X11432086Y-5933984D01*
X11432086Y-5933984D02*
X11451134Y-5943508D01*
X11451134Y-5943508D02*
X11460658Y-5953031D01*
X11460658Y-5953031D02*
X11470182Y-5972079D01*
X11470182Y-5972079D02*
X11479705Y-6010174D01*
X11479705Y-6010174D02*
X11479705Y-6057793D01*
X11479705Y-6057793D02*
X11470182Y-6095888D01*
X11470182Y-6095888D02*
X11460658Y-6114936D01*
X11460658Y-6114936D02*
X11451134Y-6124460D01*
X11451134Y-6124460D02*
X11432086Y-6133984D01*
X11432086Y-6133984D02*
X11413039Y-6133984D01*
X11413039Y-6133984D02*
X11393991Y-6124460D01*
X11393991Y-6124460D02*
X11384467Y-6114936D01*
X11384467Y-6114936D02*
X11374943Y-6095888D01*
X11374943Y-6095888D02*
X11365420Y-6057793D01*
X11365420Y-6057793D02*
X11365420Y-6010174D01*
X11365420Y-6010174D02*
X11374943Y-5972079D01*
X11374943Y-5972079D02*
X11384467Y-5953031D01*
X11384467Y-5953031D02*
X11393991Y-5943508D01*
X11393991Y-5943508D02*
X11413039Y-5933984D01*
X11565420Y-6133984D02*
X11565420Y-6000650D01*
X11565420Y-6019698D02*
X11574943Y-6010174D01*
X11574943Y-6010174D02*
X11593991Y-6000650D01*
X11593991Y-6000650D02*
X11622563Y-6000650D01*
X11622563Y-6000650D02*
X11641610Y-6010174D01*
X11641610Y-6010174D02*
X11651134Y-6029222D01*
X11651134Y-6029222D02*
X11651134Y-6133984D01*
X11651134Y-6029222D02*
X11660658Y-6010174D01*
X11660658Y-6010174D02*
X11679705Y-6000650D01*
X11679705Y-6000650D02*
X11708277Y-6000650D01*
X11708277Y-6000650D02*
X11727324Y-6010174D01*
X11727324Y-6010174D02*
X11736848Y-6029222D01*
X11736848Y-6029222D02*
X11736848Y-6133984D01*
X11832086Y-6133984D02*
X11832086Y-6000650D01*
X11832086Y-6019698D02*
X11841610Y-6010174D01*
X11841610Y-6010174D02*
X11860658Y-6000650D01*
X11860658Y-6000650D02*
X11889229Y-6000650D01*
X11889229Y-6000650D02*
X11908277Y-6010174D01*
X11908277Y-6010174D02*
X11917801Y-6029222D01*
X11917801Y-6029222D02*
X11917801Y-6133984D01*
X11917801Y-6029222D02*
X11927324Y-6010174D01*
X11927324Y-6010174D02*
X11946372Y-6000650D01*
X11946372Y-6000650D02*
X11974943Y-6000650D01*
X11974943Y-6000650D02*
X11993991Y-6010174D01*
X11993991Y-6010174D02*
X12003515Y-6029222D01*
X12003515Y-6029222D02*
X12003515Y-6133984D01*
X12393991Y-5924460D02*
X12222563Y-6181603D01*
X12651134Y-5933984D02*
X12670182Y-5933984D01*
X12670182Y-5933984D02*
X12689229Y-5943508D01*
X12689229Y-5943508D02*
X12698753Y-5953031D01*
X12698753Y-5953031D02*
X12708277Y-5972079D01*
X12708277Y-5972079D02*
X12717801Y-6010174D01*
X12717801Y-6010174D02*
X12717801Y-6057793D01*
X12717801Y-6057793D02*
X12708277Y-6095888D01*
X12708277Y-6095888D02*
X12698753Y-6114936D01*
X12698753Y-6114936D02*
X12689229Y-6124460D01*
X12689229Y-6124460D02*
X12670182Y-6133984D01*
X12670182Y-6133984D02*
X12651134Y-6133984D01*
X12651134Y-6133984D02*
X12632086Y-6124460D01*
X12632086Y-6124460D02*
X12622563Y-6114936D01*
X12622563Y-6114936D02*
X12613039Y-6095888D01*
X12613039Y-6095888D02*
X12603515Y-6057793D01*
X12603515Y-6057793D02*
X12603515Y-6010174D01*
X12603515Y-6010174D02*
X12613039Y-5972079D01*
X12613039Y-5972079D02*
X12622563Y-5953031D01*
X12622563Y-5953031D02*
X12632086Y-5943508D01*
X12632086Y-5943508D02*
X12651134Y-5933984D01*
X12803515Y-6114936D02*
X12813039Y-6124460D01*
X12813039Y-6124460D02*
X12803515Y-6133984D01*
X12803515Y-6133984D02*
X12793991Y-6124460D01*
X12793991Y-6124460D02*
X12803515Y-6114936D01*
X12803515Y-6114936D02*
X12803515Y-6133984D01*
X12936848Y-5933984D02*
X12955896Y-5933984D01*
X12955896Y-5933984D02*
X12974944Y-5943508D01*
X12974944Y-5943508D02*
X12984467Y-5953031D01*
X12984467Y-5953031D02*
X12993991Y-5972079D01*
X12993991Y-5972079D02*
X13003515Y-6010174D01*
X13003515Y-6010174D02*
X13003515Y-6057793D01*
X13003515Y-6057793D02*
X12993991Y-6095888D01*
X12993991Y-6095888D02*
X12984467Y-6114936D01*
X12984467Y-6114936D02*
X12974944Y-6124460D01*
X12974944Y-6124460D02*
X12955896Y-6133984D01*
X12955896Y-6133984D02*
X12936848Y-6133984D01*
X12936848Y-6133984D02*
X12917801Y-6124460D01*
X12917801Y-6124460D02*
X12908277Y-6114936D01*
X12908277Y-6114936D02*
X12898753Y-6095888D01*
X12898753Y-6095888D02*
X12889229Y-6057793D01*
X12889229Y-6057793D02*
X12889229Y-6010174D01*
X12889229Y-6010174D02*
X12898753Y-5972079D01*
X12898753Y-5972079D02*
X12908277Y-5953031D01*
X12908277Y-5953031D02*
X12917801Y-5943508D01*
X12917801Y-5943508D02*
X12936848Y-5933984D01*
X13193991Y-6133984D02*
X13079706Y-6133984D01*
X13136848Y-6133984D02*
X13136848Y-5933984D01*
X13136848Y-5933984D02*
X13117801Y-5962555D01*
X13117801Y-5962555D02*
X13098753Y-5981603D01*
X13098753Y-5981603D02*
X13079706Y-5991127D01*
X13384467Y-6133984D02*
X13270182Y-6133984D01*
X13327325Y-6133984D02*
X13327325Y-5933984D01*
X13327325Y-5933984D02*
X13308277Y-5962555D01*
X13308277Y-5962555D02*
X13289229Y-5981603D01*
X13289229Y-5981603D02*
X13270182Y-5991127D01*
X13498753Y-6019698D02*
X13479706Y-6010174D01*
X13479706Y-6010174D02*
X13470182Y-6000650D01*
X13470182Y-6000650D02*
X13460658Y-5981603D01*
X13460658Y-5981603D02*
X13460658Y-5972079D01*
X13460658Y-5972079D02*
X13470182Y-5953031D01*
X13470182Y-5953031D02*
X13479706Y-5943508D01*
X13479706Y-5943508D02*
X13498753Y-5933984D01*
X13498753Y-5933984D02*
X13536848Y-5933984D01*
X13536848Y-5933984D02*
X13555896Y-5943508D01*
X13555896Y-5943508D02*
X13565420Y-5953031D01*
X13565420Y-5953031D02*
X13574944Y-5972079D01*
X13574944Y-5972079D02*
X13574944Y-5981603D01*
X13574944Y-5981603D02*
X13565420Y-6000650D01*
X13565420Y-6000650D02*
X13555896Y-6010174D01*
X13555896Y-6010174D02*
X13536848Y-6019698D01*
X13536848Y-6019698D02*
X13498753Y-6019698D01*
X13498753Y-6019698D02*
X13479706Y-6029222D01*
X13479706Y-6029222D02*
X13470182Y-6038746D01*
X13470182Y-6038746D02*
X13460658Y-6057793D01*
X13460658Y-6057793D02*
X13460658Y-6095888D01*
X13460658Y-6095888D02*
X13470182Y-6114936D01*
X13470182Y-6114936D02*
X13479706Y-6124460D01*
X13479706Y-6124460D02*
X13498753Y-6133984D01*
X13498753Y-6133984D02*
X13536848Y-6133984D01*
X13536848Y-6133984D02*
X13555896Y-6124460D01*
X13555896Y-6124460D02*
X13565420Y-6114936D01*
X13565420Y-6114936D02*
X13574944Y-6095888D01*
X13574944Y-6095888D02*
X13574944Y-6057793D01*
X13574944Y-6057793D02*
X13565420Y-6038746D01*
X13565420Y-6038746D02*
X13555896Y-6029222D01*
X13555896Y-6029222D02*
X13536848Y-6019698D01*
X13651134Y-5933984D02*
X13651134Y-5972079D01*
X13727325Y-5933984D02*
X13727325Y-5972079D01*
X14022563Y-6210174D02*
X14013039Y-6200650D01*
X14013039Y-6200650D02*
X13993991Y-6172079D01*
X13993991Y-6172079D02*
X13984468Y-6153031D01*
X13984468Y-6153031D02*
X13974944Y-6124460D01*
X13974944Y-6124460D02*
X13965420Y-6076841D01*
X13965420Y-6076841D02*
X13965420Y-6038746D01*
X13965420Y-6038746D02*
X13974944Y-5991127D01*
X13974944Y-5991127D02*
X13984468Y-5962555D01*
X13984468Y-5962555D02*
X13993991Y-5943508D01*
X13993991Y-5943508D02*
X14013039Y-5914936D01*
X14013039Y-5914936D02*
X14022563Y-5905412D01*
X14203515Y-6133984D02*
X14089229Y-6133984D01*
X14146372Y-6133984D02*
X14146372Y-5933984D01*
X14146372Y-5933984D02*
X14127325Y-5962555D01*
X14127325Y-5962555D02*
X14108277Y-5981603D01*
X14108277Y-5981603D02*
X14089229Y-5991127D01*
X14298753Y-6133984D02*
X14336848Y-6133984D01*
X14336848Y-6133984D02*
X14355896Y-6124460D01*
X14355896Y-6124460D02*
X14365420Y-6114936D01*
X14365420Y-6114936D02*
X14384468Y-6086365D01*
X14384468Y-6086365D02*
X14393991Y-6048269D01*
X14393991Y-6048269D02*
X14393991Y-5972079D01*
X14393991Y-5972079D02*
X14384468Y-5953031D01*
X14384468Y-5953031D02*
X14374944Y-5943508D01*
X14374944Y-5943508D02*
X14355896Y-5933984D01*
X14355896Y-5933984D02*
X14317801Y-5933984D01*
X14317801Y-5933984D02*
X14298753Y-5943508D01*
X14298753Y-5943508D02*
X14289229Y-5953031D01*
X14289229Y-5953031D02*
X14279706Y-5972079D01*
X14279706Y-5972079D02*
X14279706Y-6019698D01*
X14279706Y-6019698D02*
X14289229Y-6038746D01*
X14289229Y-6038746D02*
X14298753Y-6048269D01*
X14298753Y-6048269D02*
X14317801Y-6057793D01*
X14317801Y-6057793D02*
X14355896Y-6057793D01*
X14355896Y-6057793D02*
X14374944Y-6048269D01*
X14374944Y-6048269D02*
X14384468Y-6038746D01*
X14384468Y-6038746D02*
X14393991Y-6019698D01*
X14632087Y-6133984D02*
X14632087Y-5933984D01*
X14717801Y-6133984D02*
X14717801Y-6029222D01*
X14717801Y-6029222D02*
X14708277Y-6010174D01*
X14708277Y-6010174D02*
X14689230Y-6000650D01*
X14689230Y-6000650D02*
X14660658Y-6000650D01*
X14660658Y-6000650D02*
X14641610Y-6010174D01*
X14641610Y-6010174D02*
X14632087Y-6019698D01*
X14841610Y-6133984D02*
X14822563Y-6124460D01*
X14822563Y-6124460D02*
X14813039Y-6114936D01*
X14813039Y-6114936D02*
X14803515Y-6095888D01*
X14803515Y-6095888D02*
X14803515Y-6038746D01*
X14803515Y-6038746D02*
X14813039Y-6019698D01*
X14813039Y-6019698D02*
X14822563Y-6010174D01*
X14822563Y-6010174D02*
X14841610Y-6000650D01*
X14841610Y-6000650D02*
X14870182Y-6000650D01*
X14870182Y-6000650D02*
X14889230Y-6010174D01*
X14889230Y-6010174D02*
X14898753Y-6019698D01*
X14898753Y-6019698D02*
X14908277Y-6038746D01*
X14908277Y-6038746D02*
X14908277Y-6095888D01*
X14908277Y-6095888D02*
X14898753Y-6114936D01*
X14898753Y-6114936D02*
X14889230Y-6124460D01*
X14889230Y-6124460D02*
X14870182Y-6133984D01*
X14870182Y-6133984D02*
X14841610Y-6133984D01*
X15022563Y-6133984D02*
X15003515Y-6124460D01*
X15003515Y-6124460D02*
X14993991Y-6105412D01*
X14993991Y-6105412D02*
X14993991Y-5933984D01*
X15174944Y-6124460D02*
X15155896Y-6133984D01*
X15155896Y-6133984D02*
X15117801Y-6133984D01*
X15117801Y-6133984D02*
X15098753Y-6124460D01*
X15098753Y-6124460D02*
X15089230Y-6105412D01*
X15089230Y-6105412D02*
X15089230Y-6029222D01*
X15089230Y-6029222D02*
X15098753Y-6010174D01*
X15098753Y-6010174D02*
X15117801Y-6000650D01*
X15117801Y-6000650D02*
X15155896Y-6000650D01*
X15155896Y-6000650D02*
X15174944Y-6010174D01*
X15174944Y-6010174D02*
X15184468Y-6029222D01*
X15184468Y-6029222D02*
X15184468Y-6048269D01*
X15184468Y-6048269D02*
X15089230Y-6067317D01*
X15260658Y-6124460D02*
X15279706Y-6133984D01*
X15279706Y-6133984D02*
X15317801Y-6133984D01*
X15317801Y-6133984D02*
X15336849Y-6124460D01*
X15336849Y-6124460D02*
X15346372Y-6105412D01*
X15346372Y-6105412D02*
X15346372Y-6095888D01*
X15346372Y-6095888D02*
X15336849Y-6076841D01*
X15336849Y-6076841D02*
X15317801Y-6067317D01*
X15317801Y-6067317D02*
X15289230Y-6067317D01*
X15289230Y-6067317D02*
X15270182Y-6057793D01*
X15270182Y-6057793D02*
X15260658Y-6038746D01*
X15260658Y-6038746D02*
X15260658Y-6029222D01*
X15260658Y-6029222D02*
X15270182Y-6010174D01*
X15270182Y-6010174D02*
X15289230Y-6000650D01*
X15289230Y-6000650D02*
X15317801Y-6000650D01*
X15317801Y-6000650D02*
X15336849Y-6010174D01*
X15413039Y-6210174D02*
X15422563Y-6200650D01*
X15422563Y-6200650D02*
X15441611Y-6172079D01*
X15441611Y-6172079D02*
X15451134Y-6153031D01*
X15451134Y-6153031D02*
X15460658Y-6124460D01*
X15460658Y-6124460D02*
X15470182Y-6076841D01*
X15470182Y-6076841D02*
X15470182Y-6038746D01*
X15470182Y-6038746D02*
X15460658Y-5991127D01*
X15460658Y-5991127D02*
X15451134Y-5962555D01*
X15451134Y-5962555D02*
X15441611Y-5943508D01*
X15441611Y-5943508D02*
X15422563Y-5914936D01*
X15422563Y-5914936D02*
X15413039Y-5905412D01*
D12*
X10447500Y-6306500D02*
G75*
G02*
X10357500Y-6306500I-45000J0D01*
G01*
X10357500Y-6306500D02*
G75*
G02*
X10447500Y-6306500I45000J0D01*
G01*
D11*
X10746372Y-6197984D02*
X10765420Y-6197984D01*
X10765420Y-6197984D02*
X10784467Y-6207508D01*
X10784467Y-6207508D02*
X10793991Y-6217031D01*
X10793991Y-6217031D02*
X10803515Y-6236079D01*
X10803515Y-6236079D02*
X10813039Y-6274174D01*
X10813039Y-6274174D02*
X10813039Y-6321793D01*
X10813039Y-6321793D02*
X10803515Y-6359888D01*
X10803515Y-6359888D02*
X10793991Y-6378936D01*
X10793991Y-6378936D02*
X10784467Y-6388460D01*
X10784467Y-6388460D02*
X10765420Y-6397984D01*
X10765420Y-6397984D02*
X10746372Y-6397984D01*
X10746372Y-6397984D02*
X10727324Y-6388460D01*
X10727324Y-6388460D02*
X10717801Y-6378936D01*
X10717801Y-6378936D02*
X10708277Y-6359888D01*
X10708277Y-6359888D02*
X10698753Y-6321793D01*
X10698753Y-6321793D02*
X10698753Y-6274174D01*
X10698753Y-6274174D02*
X10708277Y-6236079D01*
X10708277Y-6236079D02*
X10717801Y-6217031D01*
X10717801Y-6217031D02*
X10727324Y-6207508D01*
X10727324Y-6207508D02*
X10746372Y-6197984D01*
X10898753Y-6378936D02*
X10908277Y-6388460D01*
X10908277Y-6388460D02*
X10898753Y-6397984D01*
X10898753Y-6397984D02*
X10889229Y-6388460D01*
X10889229Y-6388460D02*
X10898753Y-6378936D01*
X10898753Y-6378936D02*
X10898753Y-6397984D01*
X11003515Y-6397984D02*
X11041610Y-6397984D01*
X11041610Y-6397984D02*
X11060658Y-6388460D01*
X11060658Y-6388460D02*
X11070182Y-6378936D01*
X11070182Y-6378936D02*
X11089229Y-6350365D01*
X11089229Y-6350365D02*
X11098753Y-6312269D01*
X11098753Y-6312269D02*
X11098753Y-6236079D01*
X11098753Y-6236079D02*
X11089229Y-6217031D01*
X11089229Y-6217031D02*
X11079705Y-6207508D01*
X11079705Y-6207508D02*
X11060658Y-6197984D01*
X11060658Y-6197984D02*
X11022563Y-6197984D01*
X11022563Y-6197984D02*
X11003515Y-6207508D01*
X11003515Y-6207508D02*
X10993991Y-6217031D01*
X10993991Y-6217031D02*
X10984467Y-6236079D01*
X10984467Y-6236079D02*
X10984467Y-6283698D01*
X10984467Y-6283698D02*
X10993991Y-6302746D01*
X10993991Y-6302746D02*
X11003515Y-6312269D01*
X11003515Y-6312269D02*
X11022563Y-6321793D01*
X11022563Y-6321793D02*
X11060658Y-6321793D01*
X11060658Y-6321793D02*
X11079705Y-6312269D01*
X11079705Y-6312269D02*
X11089229Y-6302746D01*
X11089229Y-6302746D02*
X11098753Y-6283698D01*
X11222562Y-6197984D02*
X11241610Y-6197984D01*
X11241610Y-6197984D02*
X11260658Y-6207508D01*
X11260658Y-6207508D02*
X11270182Y-6217031D01*
X11270182Y-6217031D02*
X11279705Y-6236079D01*
X11279705Y-6236079D02*
X11289229Y-6274174D01*
X11289229Y-6274174D02*
X11289229Y-6321793D01*
X11289229Y-6321793D02*
X11279705Y-6359888D01*
X11279705Y-6359888D02*
X11270182Y-6378936D01*
X11270182Y-6378936D02*
X11260658Y-6388460D01*
X11260658Y-6388460D02*
X11241610Y-6397984D01*
X11241610Y-6397984D02*
X11222562Y-6397984D01*
X11222562Y-6397984D02*
X11203515Y-6388460D01*
X11203515Y-6388460D02*
X11193991Y-6378936D01*
X11193991Y-6378936D02*
X11184467Y-6359888D01*
X11184467Y-6359888D02*
X11174944Y-6321793D01*
X11174944Y-6321793D02*
X11174944Y-6274174D01*
X11174944Y-6274174D02*
X11184467Y-6236079D01*
X11184467Y-6236079D02*
X11193991Y-6217031D01*
X11193991Y-6217031D02*
X11203515Y-6207508D01*
X11203515Y-6207508D02*
X11222562Y-6197984D01*
X11413039Y-6197984D02*
X11432086Y-6197984D01*
X11432086Y-6197984D02*
X11451134Y-6207508D01*
X11451134Y-6207508D02*
X11460658Y-6217031D01*
X11460658Y-6217031D02*
X11470182Y-6236079D01*
X11470182Y-6236079D02*
X11479705Y-6274174D01*
X11479705Y-6274174D02*
X11479705Y-6321793D01*
X11479705Y-6321793D02*
X11470182Y-6359888D01*
X11470182Y-6359888D02*
X11460658Y-6378936D01*
X11460658Y-6378936D02*
X11451134Y-6388460D01*
X11451134Y-6388460D02*
X11432086Y-6397984D01*
X11432086Y-6397984D02*
X11413039Y-6397984D01*
X11413039Y-6397984D02*
X11393991Y-6388460D01*
X11393991Y-6388460D02*
X11384467Y-6378936D01*
X11384467Y-6378936D02*
X11374943Y-6359888D01*
X11374943Y-6359888D02*
X11365420Y-6321793D01*
X11365420Y-6321793D02*
X11365420Y-6274174D01*
X11365420Y-6274174D02*
X11374943Y-6236079D01*
X11374943Y-6236079D02*
X11384467Y-6217031D01*
X11384467Y-6217031D02*
X11393991Y-6207508D01*
X11393991Y-6207508D02*
X11413039Y-6197984D01*
X11565420Y-6397984D02*
X11565420Y-6264650D01*
X11565420Y-6283698D02*
X11574943Y-6274174D01*
X11574943Y-6274174D02*
X11593991Y-6264650D01*
X11593991Y-6264650D02*
X11622563Y-6264650D01*
X11622563Y-6264650D02*
X11641610Y-6274174D01*
X11641610Y-6274174D02*
X11651134Y-6293222D01*
X11651134Y-6293222D02*
X11651134Y-6397984D01*
X11651134Y-6293222D02*
X11660658Y-6274174D01*
X11660658Y-6274174D02*
X11679705Y-6264650D01*
X11679705Y-6264650D02*
X11708277Y-6264650D01*
X11708277Y-6264650D02*
X11727324Y-6274174D01*
X11727324Y-6274174D02*
X11736848Y-6293222D01*
X11736848Y-6293222D02*
X11736848Y-6397984D01*
X11832086Y-6397984D02*
X11832086Y-6264650D01*
X11832086Y-6283698D02*
X11841610Y-6274174D01*
X11841610Y-6274174D02*
X11860658Y-6264650D01*
X11860658Y-6264650D02*
X11889229Y-6264650D01*
X11889229Y-6264650D02*
X11908277Y-6274174D01*
X11908277Y-6274174D02*
X11917801Y-6293222D01*
X11917801Y-6293222D02*
X11917801Y-6397984D01*
X11917801Y-6293222D02*
X11927324Y-6274174D01*
X11927324Y-6274174D02*
X11946372Y-6264650D01*
X11946372Y-6264650D02*
X11974943Y-6264650D01*
X11974943Y-6264650D02*
X11993991Y-6274174D01*
X11993991Y-6274174D02*
X12003515Y-6293222D01*
X12003515Y-6293222D02*
X12003515Y-6397984D01*
X12393991Y-6188460D02*
X12222563Y-6445603D01*
X12651134Y-6197984D02*
X12670182Y-6197984D01*
X12670182Y-6197984D02*
X12689229Y-6207508D01*
X12689229Y-6207508D02*
X12698753Y-6217031D01*
X12698753Y-6217031D02*
X12708277Y-6236079D01*
X12708277Y-6236079D02*
X12717801Y-6274174D01*
X12717801Y-6274174D02*
X12717801Y-6321793D01*
X12717801Y-6321793D02*
X12708277Y-6359888D01*
X12708277Y-6359888D02*
X12698753Y-6378936D01*
X12698753Y-6378936D02*
X12689229Y-6388460D01*
X12689229Y-6388460D02*
X12670182Y-6397984D01*
X12670182Y-6397984D02*
X12651134Y-6397984D01*
X12651134Y-6397984D02*
X12632086Y-6388460D01*
X12632086Y-6388460D02*
X12622563Y-6378936D01*
X12622563Y-6378936D02*
X12613039Y-6359888D01*
X12613039Y-6359888D02*
X12603515Y-6321793D01*
X12603515Y-6321793D02*
X12603515Y-6274174D01*
X12603515Y-6274174D02*
X12613039Y-6236079D01*
X12613039Y-6236079D02*
X12622563Y-6217031D01*
X12622563Y-6217031D02*
X12632086Y-6207508D01*
X12632086Y-6207508D02*
X12651134Y-6197984D01*
X12803515Y-6378936D02*
X12813039Y-6388460D01*
X12813039Y-6388460D02*
X12803515Y-6397984D01*
X12803515Y-6397984D02*
X12793991Y-6388460D01*
X12793991Y-6388460D02*
X12803515Y-6378936D01*
X12803515Y-6378936D02*
X12803515Y-6397984D01*
X12936848Y-6197984D02*
X12955896Y-6197984D01*
X12955896Y-6197984D02*
X12974944Y-6207508D01*
X12974944Y-6207508D02*
X12984467Y-6217031D01*
X12984467Y-6217031D02*
X12993991Y-6236079D01*
X12993991Y-6236079D02*
X13003515Y-6274174D01*
X13003515Y-6274174D02*
X13003515Y-6321793D01*
X13003515Y-6321793D02*
X12993991Y-6359888D01*
X12993991Y-6359888D02*
X12984467Y-6378936D01*
X12984467Y-6378936D02*
X12974944Y-6388460D01*
X12974944Y-6388460D02*
X12955896Y-6397984D01*
X12955896Y-6397984D02*
X12936848Y-6397984D01*
X12936848Y-6397984D02*
X12917801Y-6388460D01*
X12917801Y-6388460D02*
X12908277Y-6378936D01*
X12908277Y-6378936D02*
X12898753Y-6359888D01*
X12898753Y-6359888D02*
X12889229Y-6321793D01*
X12889229Y-6321793D02*
X12889229Y-6274174D01*
X12889229Y-6274174D02*
X12898753Y-6236079D01*
X12898753Y-6236079D02*
X12908277Y-6217031D01*
X12908277Y-6217031D02*
X12917801Y-6207508D01*
X12917801Y-6207508D02*
X12936848Y-6197984D01*
X13070182Y-6197984D02*
X13193991Y-6197984D01*
X13193991Y-6197984D02*
X13127325Y-6274174D01*
X13127325Y-6274174D02*
X13155896Y-6274174D01*
X13155896Y-6274174D02*
X13174944Y-6283698D01*
X13174944Y-6283698D02*
X13184467Y-6293222D01*
X13184467Y-6293222D02*
X13193991Y-6312269D01*
X13193991Y-6312269D02*
X13193991Y-6359888D01*
X13193991Y-6359888D02*
X13184467Y-6378936D01*
X13184467Y-6378936D02*
X13174944Y-6388460D01*
X13174944Y-6388460D02*
X13155896Y-6397984D01*
X13155896Y-6397984D02*
X13098753Y-6397984D01*
X13098753Y-6397984D02*
X13079706Y-6388460D01*
X13079706Y-6388460D02*
X13070182Y-6378936D01*
X13374944Y-6197984D02*
X13279706Y-6197984D01*
X13279706Y-6197984D02*
X13270182Y-6293222D01*
X13270182Y-6293222D02*
X13279706Y-6283698D01*
X13279706Y-6283698D02*
X13298753Y-6274174D01*
X13298753Y-6274174D02*
X13346372Y-6274174D01*
X13346372Y-6274174D02*
X13365420Y-6283698D01*
X13365420Y-6283698D02*
X13374944Y-6293222D01*
X13374944Y-6293222D02*
X13384467Y-6312269D01*
X13384467Y-6312269D02*
X13384467Y-6359888D01*
X13384467Y-6359888D02*
X13374944Y-6378936D01*
X13374944Y-6378936D02*
X13365420Y-6388460D01*
X13365420Y-6388460D02*
X13346372Y-6397984D01*
X13346372Y-6397984D02*
X13298753Y-6397984D01*
X13298753Y-6397984D02*
X13279706Y-6388460D01*
X13279706Y-6388460D02*
X13270182Y-6378936D01*
X13555896Y-6264650D02*
X13555896Y-6397984D01*
X13508277Y-6188460D02*
X13460658Y-6331317D01*
X13460658Y-6331317D02*
X13584467Y-6331317D01*
X13651134Y-6197984D02*
X13651134Y-6236079D01*
X13727325Y-6197984D02*
X13727325Y-6236079D01*
X14022563Y-6474174D02*
X14013039Y-6464650D01*
X14013039Y-6464650D02*
X13993991Y-6436079D01*
X13993991Y-6436079D02*
X13984468Y-6417031D01*
X13984468Y-6417031D02*
X13974944Y-6388460D01*
X13974944Y-6388460D02*
X13965420Y-6340841D01*
X13965420Y-6340841D02*
X13965420Y-6302746D01*
X13965420Y-6302746D02*
X13974944Y-6255127D01*
X13974944Y-6255127D02*
X13984468Y-6226555D01*
X13984468Y-6226555D02*
X13993991Y-6207508D01*
X13993991Y-6207508D02*
X14013039Y-6178936D01*
X14013039Y-6178936D02*
X14022563Y-6169412D01*
X14136848Y-6197984D02*
X14155896Y-6197984D01*
X14155896Y-6197984D02*
X14174944Y-6207508D01*
X14174944Y-6207508D02*
X14184468Y-6217031D01*
X14184468Y-6217031D02*
X14193991Y-6236079D01*
X14193991Y-6236079D02*
X14203515Y-6274174D01*
X14203515Y-6274174D02*
X14203515Y-6321793D01*
X14203515Y-6321793D02*
X14193991Y-6359888D01*
X14193991Y-6359888D02*
X14184468Y-6378936D01*
X14184468Y-6378936D02*
X14174944Y-6388460D01*
X14174944Y-6388460D02*
X14155896Y-6397984D01*
X14155896Y-6397984D02*
X14136848Y-6397984D01*
X14136848Y-6397984D02*
X14117801Y-6388460D01*
X14117801Y-6388460D02*
X14108277Y-6378936D01*
X14108277Y-6378936D02*
X14098753Y-6359888D01*
X14098753Y-6359888D02*
X14089229Y-6321793D01*
X14089229Y-6321793D02*
X14089229Y-6274174D01*
X14089229Y-6274174D02*
X14098753Y-6236079D01*
X14098753Y-6236079D02*
X14108277Y-6217031D01*
X14108277Y-6217031D02*
X14117801Y-6207508D01*
X14117801Y-6207508D02*
X14136848Y-6197984D01*
X14441610Y-6397984D02*
X14441610Y-6197984D01*
X14527325Y-6397984D02*
X14527325Y-6293222D01*
X14527325Y-6293222D02*
X14517801Y-6274174D01*
X14517801Y-6274174D02*
X14498753Y-6264650D01*
X14498753Y-6264650D02*
X14470182Y-6264650D01*
X14470182Y-6264650D02*
X14451134Y-6274174D01*
X14451134Y-6274174D02*
X14441610Y-6283698D01*
X14651134Y-6397984D02*
X14632087Y-6388460D01*
X14632087Y-6388460D02*
X14622563Y-6378936D01*
X14622563Y-6378936D02*
X14613039Y-6359888D01*
X14613039Y-6359888D02*
X14613039Y-6302746D01*
X14613039Y-6302746D02*
X14622563Y-6283698D01*
X14622563Y-6283698D02*
X14632087Y-6274174D01*
X14632087Y-6274174D02*
X14651134Y-6264650D01*
X14651134Y-6264650D02*
X14679706Y-6264650D01*
X14679706Y-6264650D02*
X14698753Y-6274174D01*
X14698753Y-6274174D02*
X14708277Y-6283698D01*
X14708277Y-6283698D02*
X14717801Y-6302746D01*
X14717801Y-6302746D02*
X14717801Y-6359888D01*
X14717801Y-6359888D02*
X14708277Y-6378936D01*
X14708277Y-6378936D02*
X14698753Y-6388460D01*
X14698753Y-6388460D02*
X14679706Y-6397984D01*
X14679706Y-6397984D02*
X14651134Y-6397984D01*
X14832087Y-6397984D02*
X14813039Y-6388460D01*
X14813039Y-6388460D02*
X14803515Y-6369412D01*
X14803515Y-6369412D02*
X14803515Y-6197984D01*
X14984468Y-6388460D02*
X14965420Y-6397984D01*
X14965420Y-6397984D02*
X14927325Y-6397984D01*
X14927325Y-6397984D02*
X14908277Y-6388460D01*
X14908277Y-6388460D02*
X14898753Y-6369412D01*
X14898753Y-6369412D02*
X14898753Y-6293222D01*
X14898753Y-6293222D02*
X14908277Y-6274174D01*
X14908277Y-6274174D02*
X14927325Y-6264650D01*
X14927325Y-6264650D02*
X14965420Y-6264650D01*
X14965420Y-6264650D02*
X14984468Y-6274174D01*
X14984468Y-6274174D02*
X14993991Y-6293222D01*
X14993991Y-6293222D02*
X14993991Y-6312269D01*
X14993991Y-6312269D02*
X14898753Y-6331317D01*
X15070182Y-6388460D02*
X15089230Y-6397984D01*
X15089230Y-6397984D02*
X15127325Y-6397984D01*
X15127325Y-6397984D02*
X15146372Y-6388460D01*
X15146372Y-6388460D02*
X15155896Y-6369412D01*
X15155896Y-6369412D02*
X15155896Y-6359888D01*
X15155896Y-6359888D02*
X15146372Y-6340841D01*
X15146372Y-6340841D02*
X15127325Y-6331317D01*
X15127325Y-6331317D02*
X15098753Y-6331317D01*
X15098753Y-6331317D02*
X15079706Y-6321793D01*
X15079706Y-6321793D02*
X15070182Y-6302746D01*
X15070182Y-6302746D02*
X15070182Y-6293222D01*
X15070182Y-6293222D02*
X15079706Y-6274174D01*
X15079706Y-6274174D02*
X15098753Y-6264650D01*
X15098753Y-6264650D02*
X15127325Y-6264650D01*
X15127325Y-6264650D02*
X15146372Y-6274174D01*
X15393992Y-6321793D02*
X15546373Y-6321793D01*
X15470182Y-6397984D02*
X15470182Y-6245603D01*
X15784468Y-6217031D02*
X15793992Y-6207508D01*
X15793992Y-6207508D02*
X15813039Y-6197984D01*
X15813039Y-6197984D02*
X15860658Y-6197984D01*
X15860658Y-6197984D02*
X15879706Y-6207508D01*
X15879706Y-6207508D02*
X15889230Y-6217031D01*
X15889230Y-6217031D02*
X15898753Y-6236079D01*
X15898753Y-6236079D02*
X15898753Y-6255127D01*
X15898753Y-6255127D02*
X15889230Y-6283698D01*
X15889230Y-6283698D02*
X15774944Y-6397984D01*
X15774944Y-6397984D02*
X15898753Y-6397984D01*
X16127325Y-6388460D02*
X16146373Y-6397984D01*
X16146373Y-6397984D02*
X16184468Y-6397984D01*
X16184468Y-6397984D02*
X16203515Y-6388460D01*
X16203515Y-6388460D02*
X16213039Y-6369412D01*
X16213039Y-6369412D02*
X16213039Y-6359888D01*
X16213039Y-6359888D02*
X16203515Y-6340841D01*
X16203515Y-6340841D02*
X16184468Y-6331317D01*
X16184468Y-6331317D02*
X16155896Y-6331317D01*
X16155896Y-6331317D02*
X16136849Y-6321793D01*
X16136849Y-6321793D02*
X16127325Y-6302746D01*
X16127325Y-6302746D02*
X16127325Y-6293222D01*
X16127325Y-6293222D02*
X16136849Y-6274174D01*
X16136849Y-6274174D02*
X16155896Y-6264650D01*
X16155896Y-6264650D02*
X16184468Y-6264650D01*
X16184468Y-6264650D02*
X16203515Y-6274174D01*
X16327325Y-6397984D02*
X16308277Y-6388460D01*
X16308277Y-6388460D02*
X16298754Y-6369412D01*
X16298754Y-6369412D02*
X16298754Y-6197984D01*
X16432087Y-6397984D02*
X16413039Y-6388460D01*
X16413039Y-6388460D02*
X16403515Y-6378936D01*
X16403515Y-6378936D02*
X16393992Y-6359888D01*
X16393992Y-6359888D02*
X16393992Y-6302746D01*
X16393992Y-6302746D02*
X16403515Y-6283698D01*
X16403515Y-6283698D02*
X16413039Y-6274174D01*
X16413039Y-6274174D02*
X16432087Y-6264650D01*
X16432087Y-6264650D02*
X16460658Y-6264650D01*
X16460658Y-6264650D02*
X16479706Y-6274174D01*
X16479706Y-6274174D02*
X16489230Y-6283698D01*
X16489230Y-6283698D02*
X16498754Y-6302746D01*
X16498754Y-6302746D02*
X16498754Y-6359888D01*
X16498754Y-6359888D02*
X16489230Y-6378936D01*
X16489230Y-6378936D02*
X16479706Y-6388460D01*
X16479706Y-6388460D02*
X16460658Y-6397984D01*
X16460658Y-6397984D02*
X16432087Y-6397984D01*
X16555896Y-6264650D02*
X16632087Y-6264650D01*
X16584468Y-6197984D02*
X16584468Y-6369412D01*
X16584468Y-6369412D02*
X16593992Y-6388460D01*
X16593992Y-6388460D02*
X16613039Y-6397984D01*
X16613039Y-6397984D02*
X16632087Y-6397984D01*
X16689230Y-6388460D02*
X16708277Y-6397984D01*
X16708277Y-6397984D02*
X16746373Y-6397984D01*
X16746373Y-6397984D02*
X16765420Y-6388460D01*
X16765420Y-6388460D02*
X16774944Y-6369412D01*
X16774944Y-6369412D02*
X16774944Y-6359888D01*
X16774944Y-6359888D02*
X16765420Y-6340841D01*
X16765420Y-6340841D02*
X16746373Y-6331317D01*
X16746373Y-6331317D02*
X16717801Y-6331317D01*
X16717801Y-6331317D02*
X16698754Y-6321793D01*
X16698754Y-6321793D02*
X16689230Y-6302746D01*
X16689230Y-6302746D02*
X16689230Y-6293222D01*
X16689230Y-6293222D02*
X16698754Y-6274174D01*
X16698754Y-6274174D02*
X16717801Y-6264650D01*
X16717801Y-6264650D02*
X16746373Y-6264650D01*
X16746373Y-6264650D02*
X16765420Y-6274174D01*
X16841611Y-6474174D02*
X16851135Y-6464650D01*
X16851135Y-6464650D02*
X16870182Y-6436079D01*
X16870182Y-6436079D02*
X16879706Y-6417031D01*
X16879706Y-6417031D02*
X16889230Y-6388460D01*
X16889230Y-6388460D02*
X16898754Y-6340841D01*
X16898754Y-6340841D02*
X16898754Y-6302746D01*
X16898754Y-6302746D02*
X16889230Y-6255127D01*
X16889230Y-6255127D02*
X16879706Y-6226555D01*
X16879706Y-6226555D02*
X16870182Y-6207508D01*
X16870182Y-6207508D02*
X16851135Y-6178936D01*
X16851135Y-6178936D02*
X16841611Y-6169412D01*
M02*
