%TF.GenerationSoftware,KiCad,Pcbnew,10.0.1*%
%TF.CreationDate,2026-09-29T18:55:30+03:00*%
%TF.ProjectId,hakkit_badusb,68616b6b-6974-45f6-9261-647573622e6b,rev?*%
%TF.SameCoordinates,Original*%
%TF.FileFunction,Copper,L1,Top*%
%TF.FilePolarity,Positive*%
%FSLAX46Y46*%
G04 Gerber Fmt 4.6, Leading zero omitted, Abs format (unit mm)*
G04 Created by KiCad (PCBNEW 10.0.1) date 2026-09-29 18:55:30*
%MOMM*%
%LPD*%
G01*
G04 APERTURE LIST*
G04 Aperture macros list*
%AMRoundRect*
0 Rectangle with rounded corners*
0 $1 Rounding radius*
0 $2 $3 $4 $5 $6 $7 $8 $9 X,Y pos of 4 corners*
0 Add a 4 corners polygon primitive as box body*
4,1,4,$2,$3,$4,$5,$6,$7,$8,$9,$2,$3,0*
0 Add four circle primitives for the rounded corners*
1,1,$1+$1,$2,$3*
1,1,$1+$1,$4,$5*
1,1,$1+$1,$6,$7*
1,1,$1+$1,$8,$9*
0 Add four rect primitives between the rounded corners*
20,1,$1+$1,$2,$3,$4,$5,0*
20,1,$1+$1,$4,$5,$6,$7,0*
20,1,$1+$1,$6,$7,$8,$9,0*
20,1,$1+$1,$8,$9,$2,$3,0*%
%AMRotRect*
0 Rectangle, with rotation*
0 The origin of the aperture is its center*
0 $1 length*
0 $2 width*
0 $3 Rotation angle, in degrees counterclockwise*
0 Add horizontal line*
21,1,$1,$2,0,0,$3*%
G04 Aperture macros list end*
%TA.AperFunction,SMDPad,CuDef*%
%ADD10R,1.000000X0.900000*%
%TD*%
%TA.AperFunction,SMDPad,CuDef*%
%ADD11RoundRect,0.250000X-0.950000X0.750000X-0.950000X-0.750000X0.950000X-0.750000X0.950000X0.750000X0*%
%TD*%
%TA.AperFunction,SMDPad,CuDef*%
%ADD12RoundRect,0.050000X-0.238649X-0.309359X0.309359X0.238649X0.238649X0.309359X-0.309359X-0.238649X0*%
%TD*%
%TA.AperFunction,SMDPad,CuDef*%
%ADD13RoundRect,0.050000X0.238649X-0.309359X0.309359X-0.238649X-0.238649X0.309359X-0.309359X0.238649X0*%
%TD*%
%TA.AperFunction,HeatsinkPad*%
%ADD14RotRect,3.200000X3.200000X45.000000*%
%TD*%
%TA.AperFunction,SMDPad,CuDef*%
%ADD15RoundRect,0.250000X-0.250000X-0.250000X0.250000X-0.250000X0.250000X0.250000X-0.250000X0.250000X0*%
%TD*%
%TA.AperFunction,SMDPad,CuDef*%
%ADD16RoundRect,0.225000X-0.225000X-0.250000X0.225000X-0.250000X0.225000X0.250000X-0.225000X0.250000X0*%
%TD*%
%TA.AperFunction,SMDPad,CuDef*%
%ADD17RoundRect,0.125000X-0.088388X-0.265165X0.265165X0.088388X0.088388X0.265165X-0.265165X-0.088388X0*%
%TD*%
%TA.AperFunction,HeatsinkPad*%
%ADD18RotRect,3.400000X4.300000X45.000000*%
%TD*%
%TA.AperFunction,SMDPad,CuDef*%
%ADD19RoundRect,0.200000X0.200000X0.275000X-0.200000X0.275000X-0.200000X-0.275000X0.200000X-0.275000X0*%
%TD*%
%TA.AperFunction,SMDPad,CuDef*%
%ADD20RoundRect,0.200000X-0.053033X0.335876X-0.335876X0.053033X0.053033X-0.335876X0.335876X-0.053033X0*%
%TD*%
%TA.AperFunction,SMDPad,CuDef*%
%ADD21RoundRect,0.200000X0.275000X-0.200000X0.275000X0.200000X-0.275000X0.200000X-0.275000X-0.200000X0*%
%TD*%
%TA.AperFunction,ComponentPad*%
%ADD22O,4.000000X1.600000*%
%TD*%
%TA.AperFunction,ViaPad*%
%ADD23C,0.600000*%
%TD*%
%TA.AperFunction,Conductor*%
%ADD24C,0.200000*%
%TD*%
%TA.AperFunction,Conductor*%
%ADD25C,0.150000*%
%TD*%
%TA.AperFunction,Conductor*%
%ADD26C,0.250000*%
%TD*%
G04 APERTURE END LIST*
D10*
%TO.P,SW1,1,1_1*%
%TO.N,GND*%
X106560000Y-51220000D03*
X106560000Y-47120000D03*
%TO.P,SW1,2,2_2*%
%TO.N,Net-(U1-~{QSPI_SS})*%
X108160000Y-51220000D03*
X108160000Y-47120000D03*
%TD*%
D11*
%TO.P,Y1,1,1_1*%
%TO.N,Net-(U1-XOUT)*%
X130500000Y-43500000D03*
%TO.P,Y1,2,2_2*%
%TO.N,Net-(U1-XIN)*%
X130500000Y-47200002D03*
%TD*%
D12*
%TO.P,U1,1,IOVDD_1*%
%TO.N,+3V3*%
X118572956Y-45795674D03*
%TO.P,U1,2,GPIO0_2*%
%TO.N,unconnected-(U1-GPIO0-Pad2)*%
X118855799Y-46078517D03*
%TO.P,U1,3,GPIO1_3*%
%TO.N,unconnected-(U1-GPIO1-Pad3)*%
X119138641Y-46361359D03*
%TO.P,U1,4,GPIO2_4*%
%TO.N,unconnected-(U1-GPIO2-Pad4)*%
X119421484Y-46644202D03*
%TO.P,U1,5,GPIO3_5*%
%TO.N,unconnected-(U1-GPIO3-Pad5)*%
X119704327Y-46927045D03*
%TO.P,U1,6,GPIO4_6*%
%TO.N,unconnected-(U1-GPIO4-Pad6)*%
X119987169Y-47209887D03*
%TO.P,U1,7,GPIO5_7*%
%TO.N,Net-(U1-GPIO5)*%
X120270012Y-47492730D03*
%TO.P,U1,8,GPIO6_8*%
%TO.N,Net-(U1-GPIO6)*%
X120552855Y-47775573D03*
%TO.P,U1,9,GPIO7_9*%
%TO.N,Net-(U1-GPIO7)*%
X120835698Y-48058416D03*
%TO.P,U1,10,IOVDD_10*%
%TO.N,+3V3*%
X121118540Y-48341258D03*
%TO.P,U1,11,GPIO8_11*%
%TO.N,unconnected-(U1-GPIO8-Pad11)*%
X121401383Y-48624101D03*
%TO.P,U1,12,GPIO9_12*%
%TO.N,unconnected-(U1-GPIO9-Pad12)*%
X121684226Y-48906944D03*
%TO.P,U1,13,GPIO10_13*%
%TO.N,unconnected-(U1-GPIO10-Pad13)*%
X121967068Y-49189786D03*
%TO.P,U1,14,GPIO11_14*%
%TO.N,unconnected-(U1-GPIO11-Pad14)*%
X122249911Y-49472629D03*
D13*
%TO.P,U1,15,GPIO12_15*%
%TO.N,unconnected-(U1-GPIO12-Pad15)*%
X123434315Y-49472629D03*
%TO.P,U1,16,GPIO13_16*%
%TO.N,unconnected-(U1-GPIO13-Pad16)*%
X123717158Y-49189786D03*
%TO.P,U1,17,GPIO14_17*%
%TO.N,unconnected-(U1-GPIO14-Pad17)*%
X124000000Y-48906944D03*
%TO.P,U1,18,GPIO15_18*%
%TO.N,unconnected-(U1-GPIO15-Pad18)*%
X124282843Y-48624101D03*
%TO.P,U1,19,TESTEN_19*%
%TO.N,GND*%
X124565686Y-48341258D03*
%TO.P,U1,20,XIN_20*%
%TO.N,Net-(U1-XIN)*%
X124848528Y-48058416D03*
%TO.P,U1,21,XOUT_21*%
%TO.N,Net-(U1-XOUT)*%
X125131371Y-47775573D03*
%TO.P,U1,22,IOVDD_22*%
%TO.N,+3V3*%
X125414214Y-47492730D03*
%TO.P,U1,23,DVDD_23*%
%TO.N,Net-(U1-VREG_VOUT)*%
X125697057Y-47209887D03*
%TO.P,U1,24,SWCLK_24*%
%TO.N,unconnected-(U1-SWCLK-Pad24)*%
X125979899Y-46927045D03*
%TO.P,U1,25,SWDIO_25*%
%TO.N,unconnected-(U1-SWDIO-Pad25)*%
X126262742Y-46644202D03*
%TO.P,U1,26,RUN_26*%
%TO.N,+3V3*%
X126545585Y-46361359D03*
%TO.P,U1,27,GPIO16_27*%
%TO.N,/SD_MISO*%
X126828427Y-46078517D03*
%TO.P,U1,28,GPIO17_28*%
%TO.N,/SD_CS*%
X127111270Y-45795674D03*
D12*
%TO.P,U1,29,GPIO18_29*%
%TO.N,/SD_SCK*%
X127111270Y-44611270D03*
%TO.P,U1,30,GPIO19_30*%
%TO.N,/SD_MOSI*%
X126828427Y-44328427D03*
%TO.P,U1,31,GPIO20_31*%
%TO.N,unconnected-(U1-GPIO20-Pad31)*%
X126545585Y-44045585D03*
%TO.P,U1,32,GPIO21_32*%
%TO.N,unconnected-(U1-GPIO21-Pad32)*%
X126262742Y-43762742D03*
%TO.P,U1,33,IOVDD_33*%
%TO.N,+3V3*%
X125979899Y-43479899D03*
%TO.P,U1,34,GPIO22_34*%
%TO.N,unconnected-(U1-GPIO22-Pad34)*%
X125697057Y-43197057D03*
%TO.P,U1,35,GPIO23_35*%
%TO.N,unconnected-(U1-GPIO23-Pad35)*%
X125414214Y-42914214D03*
%TO.P,U1,36,GPIO24_36*%
%TO.N,unconnected-(U1-GPIO24-Pad36)*%
X125131371Y-42631371D03*
%TO.P,U1,37,GPIO25_37*%
%TO.N,unconnected-(U1-GPIO25-Pad37)*%
X124848528Y-42348528D03*
%TO.P,U1,38,GPIO26/ADC0_38*%
%TO.N,unconnected-(U1-GPIO26{slash}ADC0-Pad38)*%
X124565686Y-42065686D03*
%TO.P,U1,39,GPIO27/ADC1_39*%
%TO.N,unconnected-(U1-GPIO27{slash}ADC1-Pad39)*%
X124282843Y-41782843D03*
%TO.P,U1,40,GPIO28/ADC2_40*%
%TO.N,unconnected-(U1-GPIO28{slash}ADC2-Pad40)*%
X124000000Y-41500000D03*
%TO.P,U1,41,GPIO29/ADC3_41*%
%TO.N,unconnected-(U1-GPIO29{slash}ADC3-Pad41)*%
X123717158Y-41217158D03*
%TO.P,U1,42,IOVDD_42*%
%TO.N,+3V3*%
X123434315Y-40934315D03*
D13*
%TO.P,U1,43,ADC_AVDD_43*%
X122249911Y-40934315D03*
%TO.P,U1,44,VREG_VIN_44*%
X121967068Y-41217158D03*
%TO.P,U1,45,VREG_VOUT_45*%
%TO.N,Net-(U1-VREG_VOUT)*%
X121684226Y-41500000D03*
%TO.P,U1,46,USB_DM_46*%
%TO.N,Net-(U1-USB_DM)*%
X121401383Y-41782843D03*
%TO.P,U1,47,USB_DP_47*%
%TO.N,Net-(U1-USB_DP)*%
X121118540Y-42065686D03*
%TO.P,U1,48,USB_VDD_48*%
%TO.N,+3V3*%
X120835698Y-42348528D03*
%TO.P,U1,49,IOVDD_49*%
X120552855Y-42631371D03*
%TO.P,U1,50,DVDD_50*%
%TO.N,Net-(U1-VREG_VOUT)*%
X120270012Y-42914214D03*
%TO.P,U1,51,QSPI_SD3_51*%
%TO.N,Net-(U1-QSPI_SD3)*%
X119987169Y-43197057D03*
%TO.P,U1,52,QSPI_SCLK_52*%
%TO.N,Net-(U1-QSPI_SCLK)*%
X119704327Y-43479899D03*
%TO.P,U1,53,QSPI_SD0_53*%
%TO.N,Net-(U1-QSPI_SD0)*%
X119421484Y-43762742D03*
%TO.P,U1,54,QSPI_SD2_54*%
%TO.N,Net-(U1-QSPI_SD2)*%
X119138641Y-44045585D03*
%TO.P,U1,55,QSPI_SD1_55*%
%TO.N,Net-(U1-QSPI_SD1)*%
X118855799Y-44328427D03*
%TO.P,U1,56,~{QSPI_SS}_56*%
%TO.N,Net-(U1-~{QSPI_SS})*%
X118572956Y-44611270D03*
D14*
%TO.P,U1,57,GND_57*%
%TO.N,GND*%
X122842113Y-45203472D03*
%TD*%
D15*
%TO.P,D1,1,K_1*%
%TO.N,GND*%
X111150000Y-52250000D03*
%TO.P,D1,2,RA_2*%
%TO.N,Net-(D1-RA)*%
X113000000Y-52250000D03*
%TO.P,D1,3,GA_3*%
%TO.N,Net-(D1-GA)*%
X113000000Y-51000000D03*
%TO.P,D1,4,BA_4*%
%TO.N,Net-(D1-BA)*%
X111150000Y-51000000D03*
%TD*%
D16*
%TO.P,C6,1*%
%TO.N,Net-(U1-XIN)*%
X129950000Y-49500000D03*
%TO.P,C6,2*%
%TO.N,GND*%
X131500000Y-49500000D03*
%TD*%
D17*
%TO.P,U2,1,~{CS}_1*%
%TO.N,Net-(U1-~{QSPI_SS})*%
X110882592Y-43700969D03*
%TO.P,U2,2,DO/IO_{1}_2*%
%TO.N,Net-(U1-QSPI_SD1)*%
X111780618Y-44598995D03*
%TO.P,U2,3,~{WP}/IO_{2}_3*%
%TO.N,Net-(U1-QSPI_SD2)*%
X112678643Y-45497020D03*
%TO.P,U2,4,GND_4*%
%TO.N,GND*%
X113576669Y-46395046D03*
%TO.P,U2,5,DI/IO_{0}_5*%
%TO.N,Net-(U1-QSPI_SD0)*%
X117395046Y-42576669D03*
%TO.P,U2,6,CLK_6*%
%TO.N,Net-(U1-QSPI_SCLK)*%
X116497020Y-41678643D03*
%TO.P,U2,7,~{HOLD}/~{RESET}/IO_{3}_7*%
%TO.N,Net-(U1-QSPI_SD3)*%
X115598995Y-40780618D03*
%TO.P,U2,8,VCC_8*%
%TO.N,+3V3*%
X114700969Y-39882592D03*
D18*
%TO.P,U2,9,EP_9*%
%TO.N,GND*%
X114138819Y-43138819D03*
%TD*%
D16*
%TO.P,C5,1*%
%TO.N,Net-(U1-XOUT)*%
X129950000Y-41000000D03*
%TO.P,C5,2*%
%TO.N,GND*%
X131500000Y-41000000D03*
%TD*%
D19*
%TO.P,R8,1*%
%TO.N,Net-(U1-GPIO7)*%
X116825000Y-52000000D03*
%TO.P,R8,2*%
%TO.N,Net-(D1-BA)*%
X115175000Y-52000000D03*
%TD*%
D20*
%TO.P,R6,1*%
%TO.N,Net-(U1-GPIO5)*%
X117583363Y-47416637D03*
%TO.P,R6,2*%
%TO.N,Net-(D1-RA)*%
X116416637Y-48583363D03*
%TD*%
%TO.P,R7,1*%
%TO.N,Net-(U1-GPIO6)*%
X119500000Y-49500000D03*
%TO.P,R7,2*%
%TO.N,Net-(D1-GA)*%
X118333274Y-50666726D03*
%TD*%
D21*
%TO.P,R2,1*%
%TO.N,+3V3*%
X110000000Y-47000000D03*
%TO.P,R2,2*%
%TO.N,Net-(U1-~{QSPI_SS})*%
X110000000Y-45350000D03*
%TD*%
D22*
%TO.P,J1,SH,SHIELD_SH*%
%TO.N,Net-(J1-DRAIN)*%
X138500000Y-39900000D03*
X138500000Y-51600000D03*
%TD*%
D23*
%TO.N,+3V3*%
X119600000Y-41110000D03*
X126000000Y-50500000D03*
X117630000Y-48940000D03*
X112445000Y-39935000D03*
X111479630Y-47020370D03*
X124710000Y-40581819D03*
%TO.N,GND*%
X120760000Y-52660000D03*
X111030000Y-41400000D03*
X129000000Y-39000000D03*
X120290000Y-39200000D03*
%TO.N,/SD_MISO*%
X125250000Y-41390000D03*
%TO.N,/SD_CS*%
X126393893Y-40707067D03*
%TO.N,/SD_SCK*%
X126500000Y-41500000D03*
%TO.N,/SD_MOSI*%
X126500000Y-42500000D03*
%TO.N,Net-(U1-USB_DM)*%
X134000000Y-49780000D03*
X123790000Y-39940000D03*
X132780000Y-42890000D03*
X128980000Y-41900000D03*
%TO.N,Net-(U1-USB_DP)*%
X129000000Y-41068068D03*
%TD*%
%TO.N,Net-(U1-~{QSPI_SS})*%
D24*
X108230000Y-47120000D02*
X110000000Y-45350000D01*
X108160000Y-47120000D02*
X108230000Y-47120000D01*
X108160000Y-47120000D02*
X108160000Y-51220000D01*
X108305000Y-47045000D02*
X110000000Y-45350000D01*
%TO.N,Net-(U1-XOUT)*%
D25*
X126154974Y-48340000D02*
X127844974Y-46650000D01*
X130500000Y-44500000D02*
X130500000Y-43500000D01*
X127844974Y-46650000D02*
X128350000Y-46650000D01*
X125695798Y-48340000D02*
X126154974Y-48340000D01*
X125131371Y-47775573D02*
X125695798Y-48340000D01*
X129950000Y-42950000D02*
X130500000Y-43500000D01*
X129950000Y-41000000D02*
X129950000Y-42950000D01*
X128350000Y-46650000D02*
X130500000Y-44500000D01*
%TO.N,Net-(U1-XIN)*%
X125550824Y-48690000D02*
X126299948Y-48690000D01*
X125271736Y-48410912D02*
X125550824Y-48690000D01*
X124848528Y-48058416D02*
X124866205Y-48040739D01*
X130500000Y-47200002D02*
X130500000Y-48950000D01*
X124866205Y-48040739D02*
X125236378Y-48410912D01*
X126299948Y-48690000D02*
X127989948Y-47000000D01*
X125236378Y-48410912D02*
X125271736Y-48410912D01*
X130299998Y-47000000D02*
X130500000Y-47200002D01*
X127989948Y-47000000D02*
X130299998Y-47000000D01*
X130500000Y-48950000D02*
X129950000Y-49500000D01*
%TO.N,+3V3*%
X120835698Y-42348528D02*
X119597170Y-41110000D01*
X125627402Y-43832396D02*
X125627402Y-43960000D01*
D26*
X111479630Y-47020370D02*
X111459260Y-47000000D01*
D25*
X122249911Y-40934315D02*
X123434315Y-40934315D01*
X124710000Y-40581819D02*
X124748181Y-40581819D01*
X118278630Y-46090000D02*
X117870000Y-46090000D01*
X126545585Y-46361359D02*
X126193088Y-46008862D01*
X123434315Y-40934315D02*
X123786811Y-40581819D01*
X118572956Y-45795674D02*
X118925452Y-45443178D01*
X119600000Y-41110000D02*
X120552855Y-42062855D01*
X117445685Y-46514315D02*
X117425023Y-46514315D01*
D26*
X111459260Y-47000000D02*
X110000000Y-47000000D01*
D25*
X125627402Y-43832396D02*
X125979899Y-43479899D01*
X126933434Y-47066566D02*
X126933434Y-46749208D01*
X121471037Y-47686127D02*
X121471037Y-47988761D01*
X123786811Y-40581819D02*
X124710000Y-40581819D01*
X125324768Y-43832396D02*
X125520000Y-43832396D01*
X117870000Y-46090000D02*
X117445685Y-46514315D01*
X123081819Y-41589447D02*
X125324768Y-43832396D01*
X121967068Y-41217158D02*
X122249911Y-40934315D01*
X126933434Y-46749208D02*
X126193088Y-46008862D01*
X117425023Y-46514315D02*
X116768569Y-47170769D01*
X117630000Y-48842130D02*
X117630000Y-48940000D01*
X123434315Y-40934315D02*
X123081819Y-41286811D01*
X125414214Y-47492730D02*
X125766710Y-47845226D01*
X125596186Y-44103814D02*
X125324768Y-43832396D01*
X126154774Y-47845226D02*
X126933434Y-47066566D01*
D24*
X114700969Y-39882592D02*
X112497408Y-39882592D01*
D25*
X126193088Y-44700716D02*
X125596186Y-44103814D01*
X118925452Y-45443178D02*
X119228088Y-45443178D01*
D24*
X112445000Y-39935000D02*
X112440000Y-39940000D01*
D25*
X123081819Y-41286811D02*
X123081819Y-41589447D01*
X125766710Y-47845226D02*
X126154774Y-47845226D01*
X125627402Y-44072598D02*
X125596186Y-44103814D01*
X116768569Y-47170769D02*
X116768569Y-47980699D01*
X125520000Y-43832396D02*
X125627402Y-43832396D01*
X120552855Y-42062855D02*
X120552855Y-42631371D01*
X116768569Y-47980699D02*
X117630000Y-48842130D01*
X125627402Y-43960000D02*
X125627402Y-43939798D01*
X125627402Y-43939798D02*
X125520000Y-43832396D01*
X118572956Y-45795674D02*
X118278630Y-46090000D01*
X119228088Y-45443178D02*
X121471037Y-47686127D01*
D24*
X112497408Y-39882592D02*
X112445000Y-39935000D01*
D25*
X121471037Y-47988761D02*
X121118540Y-48341258D01*
X126193088Y-46008862D02*
X126193088Y-44700716D01*
X125627402Y-43960000D02*
X125627402Y-44072598D01*
%TO.N,Net-(U1-GPIO5)*%
X117583363Y-47416637D02*
X118011952Y-47845226D01*
X119917516Y-47845226D02*
X120270012Y-47492730D01*
X118011952Y-47845226D02*
X119917516Y-47845226D01*
%TO.N,Net-(U1-GPIO6)*%
X119500000Y-48828428D02*
X120552855Y-47775573D01*
X119500000Y-49500000D02*
X119500000Y-48828428D01*
%TO.N,Net-(U1-GPIO7)*%
X120483201Y-49577461D02*
X120483201Y-48410913D01*
X120483201Y-48410913D02*
X120835698Y-48058416D01*
X116825000Y-52000000D02*
X118060662Y-52000000D01*
X118060662Y-52000000D02*
X120483201Y-49577461D01*
%TO.N,GND*%
X122842113Y-46617685D02*
X122842113Y-45203472D01*
X124565686Y-48341258D02*
X122842113Y-46617685D01*
X124918182Y-50418182D02*
X125000000Y-50500000D01*
X124918182Y-48693754D02*
X124918182Y-50418182D01*
X124565686Y-48341258D02*
X124918182Y-48693754D01*
%TO.N,Net-(U1-VREG_VOUT)*%
X122036722Y-42155132D02*
X122150000Y-42041854D01*
X125697057Y-47209887D02*
X125344560Y-46857390D01*
X125344560Y-46345440D02*
X125770000Y-45920000D01*
X122339357Y-41852497D02*
X122150000Y-41852497D01*
X120270012Y-42914214D02*
X120622508Y-43266710D01*
X122361854Y-41830000D02*
X122339357Y-41852497D01*
X122036722Y-42155132D02*
X122036722Y-41887850D01*
X125770000Y-44880000D02*
X122720000Y-41830000D01*
X122150000Y-42041854D02*
X122339357Y-41852497D01*
X121719436Y-41535210D02*
X121684226Y-41500000D01*
X121790927Y-41606701D02*
X121790927Y-41642055D01*
X121790927Y-42400927D02*
X122036722Y-42155132D01*
X122720000Y-41830000D02*
X122361854Y-41830000D01*
X122150000Y-41852497D02*
X122072075Y-41852497D01*
X120925144Y-43266710D02*
X121790927Y-42400927D01*
X121684226Y-41500000D02*
X121790927Y-41606701D01*
X122072075Y-41852497D02*
X121719578Y-41500000D01*
X125344560Y-46857390D02*
X125344560Y-46345440D01*
X120622508Y-43266710D02*
X120925144Y-43266710D01*
X122036722Y-41887850D02*
X121719436Y-41570564D01*
X125770000Y-45920000D02*
X125770000Y-44880000D01*
X121790927Y-41642055D02*
X122036722Y-41887850D01*
X121719578Y-41500000D02*
X121684226Y-41500000D01*
X122150000Y-42041854D02*
X122150000Y-41852497D01*
X121719436Y-41570564D02*
X121719436Y-41535210D01*
%TO.N,/SD_MISO*%
X127890000Y-41390000D02*
X127884974Y-41390000D01*
X126968893Y-40473918D02*
X126968893Y-40468894D01*
X125818893Y-40468894D02*
X125818893Y-40591107D01*
X126828427Y-46078517D02*
X127180923Y-46431013D01*
X128230924Y-45683649D02*
X128230924Y-41730924D01*
X126155720Y-40132067D02*
X125818893Y-40468894D01*
X128230924Y-41730924D02*
X127890000Y-41390000D01*
X125790000Y-40850000D02*
X125250000Y-41390000D01*
X125810000Y-40830000D02*
X125250000Y-41390000D01*
X126968893Y-40468894D02*
X126632066Y-40132067D01*
X125810000Y-40600000D02*
X125810000Y-40830000D01*
X127180923Y-46431013D02*
X127483559Y-46431013D01*
X125818893Y-40591107D02*
X125810000Y-40600000D01*
X126632066Y-40132067D02*
X126155720Y-40132067D01*
X127483559Y-46431013D02*
X128230924Y-45683649D01*
X127884974Y-41390000D02*
X126968893Y-40473918D01*
%TO.N,/SD_CS*%
X126707067Y-40707067D02*
X127880924Y-41880924D01*
X127880924Y-41880924D02*
X127880924Y-45538674D01*
X127623924Y-45795674D02*
X127111270Y-45795674D01*
X127880924Y-45538674D02*
X127623924Y-45795674D01*
X126393893Y-40707067D02*
X126707067Y-40707067D01*
%TO.N,/SD_SCK*%
X127530924Y-42530924D02*
X126500000Y-41500000D01*
X127530924Y-44191616D02*
X127530924Y-42530924D01*
X127111270Y-44611270D02*
X127530924Y-44191616D01*
%TO.N,/SD_MOSI*%
X127180924Y-43180924D02*
X126500000Y-42500000D01*
X126828427Y-44328427D02*
X127180924Y-43975930D01*
X127180924Y-43975930D02*
X127180924Y-43180924D01*
%TO.N,Net-(U1-USB_DM)*%
X123790000Y-39940000D02*
X123947933Y-39782067D01*
X127894974Y-40900000D02*
X127980000Y-40900000D01*
X121048887Y-41071113D02*
X122180000Y-39940000D01*
X126777041Y-39782067D02*
X127894974Y-40900000D01*
X134000000Y-49780000D02*
X134000000Y-44110000D01*
X121401383Y-41782843D02*
X121048887Y-41430347D01*
X127980000Y-40900000D02*
X128980000Y-41900000D01*
X122180000Y-39940000D02*
X123790000Y-39940000D01*
X121048887Y-41430347D02*
X121048887Y-41071113D01*
X123947933Y-39782067D02*
X126777041Y-39782067D01*
X134000000Y-44110000D02*
X132780000Y-42890000D01*
%TO.N,Net-(U1-USB_DP)*%
X124095240Y-39432067D02*
X126922015Y-39432067D01*
X129000000Y-41068068D02*
X128878068Y-41190000D01*
X123326827Y-39590000D02*
X123551827Y-39365000D01*
X121118540Y-42065686D02*
X120580000Y-41527146D01*
X128124974Y-40550000D02*
X128687487Y-41112513D01*
X124028173Y-39365000D02*
X124095240Y-39432067D01*
X120625026Y-41000000D02*
X122035025Y-39590000D01*
X128830000Y-40970000D02*
X128901932Y-40970000D01*
X128039948Y-40550000D02*
X128124974Y-40550000D01*
X123551827Y-39365000D02*
X124028173Y-39365000D01*
X126922015Y-39432067D02*
X128039948Y-40550000D01*
X128901932Y-40970000D02*
X129000000Y-41068068D01*
X128687487Y-41112513D02*
X128830000Y-40970000D01*
X122035025Y-39590000D02*
X123326827Y-39590000D01*
X120580000Y-41527146D02*
X120580000Y-41045026D01*
X120580000Y-41045026D02*
X120625026Y-41000000D01*
%TO.N,Net-(U1-QSPI_SD3)*%
X117570730Y-40780618D02*
X119987169Y-43197057D01*
X115598995Y-40780618D02*
X117570730Y-40780618D01*
%TO.N,Net-(U1-QSPI_SCLK)*%
X116497020Y-41678643D02*
X117903071Y-41678643D01*
X117903071Y-41678643D02*
X119704327Y-43479899D01*
%TO.N,Net-(U1-QSPI_SD0)*%
X118235411Y-42576669D02*
X119421484Y-43762742D01*
X117395046Y-42576669D02*
X118235411Y-42576669D01*
%TO.N,Net-(U1-QSPI_SD2)*%
X113325043Y-47062660D02*
X112678643Y-46416260D01*
X119138641Y-44045585D02*
X118593056Y-43500000D01*
X118593056Y-43500000D02*
X117500000Y-43500000D01*
X117500000Y-43500000D02*
X113937340Y-47062660D01*
X112678643Y-46416260D02*
X112678643Y-45497020D01*
X113937340Y-47062660D02*
X113325043Y-47062660D01*
%TO.N,Net-(U1-QSPI_SD1)*%
X114087340Y-47412660D02*
X113180068Y-47412660D01*
X117519043Y-43975931D02*
X117000000Y-44494974D01*
X118503303Y-43975931D02*
X117519043Y-43975931D01*
X117000000Y-44500000D02*
X114087340Y-47412660D01*
X117000000Y-44494974D02*
X117000000Y-44500000D01*
X113180068Y-47412660D02*
X111780618Y-46013209D01*
X111780618Y-46013209D02*
X111780618Y-44598995D01*
X118855799Y-44328427D02*
X118503303Y-43975931D01*
%TO.N,Net-(U1-~{QSPI_SS})*%
X118572956Y-44611270D02*
X117388730Y-44611270D01*
X110882592Y-45610158D02*
X111136217Y-45863783D01*
X114237340Y-47762660D02*
X117388730Y-44611270D01*
X113035093Y-47762660D02*
X114237340Y-47762660D01*
X110882592Y-43700969D02*
X110882592Y-45610158D01*
X110622434Y-45350000D02*
X111136217Y-45863783D01*
X110000000Y-45350000D02*
X110622434Y-45350000D01*
X111136217Y-45863783D02*
X113035093Y-47762660D01*
%TO.N,Net-(D1-RA)*%
X114500000Y-50500000D02*
X116416637Y-48583363D01*
X113000000Y-52250000D02*
X112225000Y-51475000D01*
X112225000Y-50525610D02*
X112525610Y-50225000D01*
X112225000Y-51475000D02*
X112225000Y-50525610D01*
X113749390Y-50500000D02*
X114500000Y-50500000D01*
X113474390Y-50225000D02*
X113749390Y-50500000D01*
X112525610Y-50225000D02*
X113474390Y-50225000D01*
%TO.N,Net-(D1-GA)*%
X118000000Y-50675000D02*
X118000000Y-50328428D01*
X113000000Y-51000000D02*
X113350000Y-51350000D01*
X118000000Y-51000000D02*
X113000000Y-51000000D01*
X118333274Y-50666726D02*
X118000000Y-51000000D01*
%TO.N,Net-(D1-BA)*%
X111150000Y-51000000D02*
X112225000Y-52075000D01*
X112525610Y-53025000D02*
X113474390Y-53025000D01*
X113775000Y-52724390D02*
X113775000Y-51875000D01*
X113474390Y-53025000D02*
X113775000Y-52724390D01*
X114150000Y-51500000D02*
X114675000Y-51500000D01*
X114925000Y-52250000D02*
X115000000Y-52325000D01*
X114675000Y-51500000D02*
X115175000Y-52000000D01*
X113775000Y-51875000D02*
X114150000Y-51500000D01*
X112225000Y-52075000D02*
X112225000Y-52724390D01*
X112225000Y-52724390D02*
X112525610Y-53025000D01*
%TO.N,Net-(U1-~{QSPI_SS})*%
D24*
X107965000Y-47045000D02*
X108305000Y-47045000D01*
%TD*%
%TA.AperFunction,Conductor*%
%TO.N,GND*%
G36*
X139004418Y-38000816D02*
G01*
X139204561Y-38015130D01*
X139222063Y-38017647D01*
X139413795Y-38059355D01*
X139430760Y-38064336D01*
X139614611Y-38132909D01*
X139630694Y-38140253D01*
X139747495Y-38204032D01*
X139802908Y-38234290D01*
X139817791Y-38243855D01*
X139974864Y-38361438D01*
X139988235Y-38373024D01*
X140022459Y-38407248D01*
X140055944Y-38468571D01*
X140050960Y-38538263D01*
X140009088Y-38594196D01*
X139943624Y-38618613D01*
X139915380Y-38617402D01*
X139857608Y-38608251D01*
X139802352Y-38599500D01*
X137197648Y-38599500D01*
X137173329Y-38603351D01*
X136995465Y-38631522D01*
X136800776Y-38694781D01*
X136618386Y-38787715D01*
X136452786Y-38908028D01*
X136308028Y-39052786D01*
X136187715Y-39218386D01*
X136094781Y-39400776D01*
X136031522Y-39595465D01*
X136004520Y-39765953D01*
X135999500Y-39797648D01*
X135999500Y-40002352D01*
X135999981Y-40005391D01*
X136031522Y-40204534D01*
X136094781Y-40399223D01*
X136187715Y-40581613D01*
X136308028Y-40747213D01*
X136452786Y-40891971D01*
X136605087Y-41002622D01*
X136618390Y-41012287D01*
X136707053Y-41057463D01*
X136800776Y-41105218D01*
X136800778Y-41105218D01*
X136800781Y-41105220D01*
X136905137Y-41139127D01*
X136995465Y-41168477D01*
X137096557Y-41184488D01*
X137197648Y-41200500D01*
X137197649Y-41200500D01*
X139802351Y-41200500D01*
X139802352Y-41200500D01*
X140004534Y-41168477D01*
X140199219Y-41105220D01*
X140319205Y-41044083D01*
X140387873Y-41031187D01*
X140452614Y-41057463D01*
X140492872Y-41114569D01*
X140499500Y-41154568D01*
X140499500Y-47821190D01*
X140495275Y-47853283D01*
X140474500Y-47930817D01*
X140474500Y-50332692D01*
X140454815Y-50399731D01*
X140402011Y-50445486D01*
X140332853Y-50455430D01*
X140294206Y-50443177D01*
X140199226Y-50394782D01*
X140004534Y-50331522D01*
X139813912Y-50301331D01*
X139802352Y-50299500D01*
X137197648Y-50299500D01*
X137186088Y-50301331D01*
X136995465Y-50331522D01*
X136800776Y-50394781D01*
X136618386Y-50487715D01*
X136452786Y-50608028D01*
X136308028Y-50752786D01*
X136187715Y-50918386D01*
X136094781Y-51100776D01*
X136031522Y-51295465D01*
X135999500Y-51497648D01*
X135999500Y-51702351D01*
X136031522Y-51904534D01*
X136094781Y-52099223D01*
X136141621Y-52191150D01*
X136185395Y-52277061D01*
X136187715Y-52281613D01*
X136308028Y-52447213D01*
X136452786Y-52591971D01*
X136594395Y-52694854D01*
X136618390Y-52712287D01*
X136710409Y-52759173D01*
X136800776Y-52805218D01*
X136800778Y-52805218D01*
X136800781Y-52805220D01*
X136878499Y-52830472D01*
X136995465Y-52868477D01*
X137082203Y-52882215D01*
X137197648Y-52900500D01*
X137197649Y-52900500D01*
X139802350Y-52900500D01*
X139802352Y-52900500D01*
X139915382Y-52882597D01*
X139946654Y-52886638D01*
X139978112Y-52888888D01*
X139981042Y-52891081D01*
X139984673Y-52891551D01*
X140008801Y-52911862D01*
X140034045Y-52930760D01*
X140035324Y-52934189D01*
X140038125Y-52936547D01*
X140047441Y-52966677D01*
X140058462Y-52996224D01*
X140057683Y-52999801D01*
X140058765Y-53003298D01*
X140050313Y-53033681D01*
X140043610Y-53064497D01*
X140040637Y-53068467D01*
X140040041Y-53070612D01*
X140022459Y-53092751D01*
X139988235Y-53126975D01*
X139974864Y-53138561D01*
X139817791Y-53256144D01*
X139802908Y-53265709D01*
X139630699Y-53359743D01*
X139614605Y-53367093D01*
X139430765Y-53435661D01*
X139413790Y-53440645D01*
X139222068Y-53482351D01*
X139204557Y-53484869D01*
X139023779Y-53497799D01*
X139004417Y-53499184D01*
X138995572Y-53499500D01*
X123870551Y-53499500D01*
X123803512Y-53479815D01*
X123757757Y-53427011D01*
X123747813Y-53357853D01*
X123776838Y-53294297D01*
X123797662Y-53275184D01*
X123977510Y-53144517D01*
X124144517Y-52977510D01*
X124283343Y-52786433D01*
X124390568Y-52575992D01*
X124463553Y-52351368D01*
X124474601Y-52281613D01*
X124500500Y-52118097D01*
X124500500Y-51881902D01*
X124463553Y-51648631D01*
X124390566Y-51424003D01*
X124334002Y-51312991D01*
X124283343Y-51213567D01*
X124144517Y-51022490D01*
X123977510Y-50855483D01*
X123786433Y-50716657D01*
X123753724Y-50699991D01*
X123575996Y-50609433D01*
X123351368Y-50536446D01*
X123118097Y-50499500D01*
X123118092Y-50499500D01*
X122881908Y-50499500D01*
X122881903Y-50499500D01*
X122648631Y-50536446D01*
X122424003Y-50609433D01*
X122213566Y-50716657D01*
X122104550Y-50795862D01*
X122022490Y-50855483D01*
X122022488Y-50855485D01*
X122022487Y-50855485D01*
X121855485Y-51022487D01*
X121855485Y-51022488D01*
X121855483Y-51022490D01*
X121798605Y-51100776D01*
X121716657Y-51213566D01*
X121609433Y-51424003D01*
X121536446Y-51648631D01*
X121499500Y-51881902D01*
X121499500Y-52118098D01*
X121512942Y-52202971D01*
X121503987Y-52272264D01*
X121458991Y-52325716D01*
X121392239Y-52346355D01*
X121385069Y-52346250D01*
X121370289Y-52345604D01*
X121367385Y-52345478D01*
X121367384Y-52345478D01*
X121367383Y-52345478D01*
X121367375Y-52345479D01*
X121232301Y-52375425D01*
X121232292Y-52375429D01*
X121109566Y-52439315D01*
X121007547Y-52532797D01*
X121007544Y-52532801D01*
X120979764Y-52576409D01*
X120927143Y-52622374D01*
X120875183Y-52633785D01*
X119722945Y-52633785D01*
X119722945Y-53375500D01*
X119703260Y-53442539D01*
X119650456Y-53488294D01*
X119598945Y-53499500D01*
X114113132Y-53499500D01*
X114046093Y-53479815D01*
X114000338Y-53427011D01*
X113990394Y-53357853D01*
X114019419Y-53294297D01*
X114025451Y-53287819D01*
X114057126Y-53256144D01*
X114235515Y-53077755D01*
X114311281Y-52946525D01*
X114328513Y-52882213D01*
X114364876Y-52822554D01*
X114427723Y-52792024D01*
X114497099Y-52800318D01*
X114535968Y-52826626D01*
X114539811Y-52830469D01*
X114539813Y-52830470D01*
X114539815Y-52830472D01*
X114685394Y-52918478D01*
X114847804Y-52969086D01*
X114918384Y-52975500D01*
X114918387Y-52975500D01*
X115431613Y-52975500D01*
X115431616Y-52975500D01*
X115502196Y-52969086D01*
X115664606Y-52918478D01*
X115810185Y-52830472D01*
X115859201Y-52781456D01*
X115912319Y-52728339D01*
X115973642Y-52694854D01*
X116043334Y-52699838D01*
X116087681Y-52728339D01*
X116189811Y-52830469D01*
X116189813Y-52830470D01*
X116189815Y-52830472D01*
X116335394Y-52918478D01*
X116497804Y-52969086D01*
X116568384Y-52975500D01*
X116568387Y-52975500D01*
X117081613Y-52975500D01*
X117081616Y-52975500D01*
X117152196Y-52969086D01*
X117314606Y-52918478D01*
X117460185Y-52830472D01*
X117580472Y-52710185D01*
X117617688Y-52648623D01*
X117625712Y-52635350D01*
X117677240Y-52588162D01*
X117731829Y-52575500D01*
X118136426Y-52575500D01*
X118136428Y-52575500D01*
X118282797Y-52536281D01*
X118414027Y-52460515D01*
X120453389Y-50421153D01*
X125199500Y-50421153D01*
X125199500Y-50578846D01*
X125230261Y-50733489D01*
X125230264Y-50733501D01*
X125290602Y-50879172D01*
X125290609Y-50879185D01*
X125378210Y-51010288D01*
X125378213Y-51010292D01*
X125489707Y-51121786D01*
X125489711Y-51121789D01*
X125620814Y-51209390D01*
X125620827Y-51209397D01*
X125766498Y-51269735D01*
X125766503Y-51269737D01*
X125895846Y-51295465D01*
X125921153Y-51300499D01*
X125921156Y-51300500D01*
X125921158Y-51300500D01*
X126078844Y-51300500D01*
X126078845Y-51300499D01*
X126233497Y-51269737D01*
X126346166Y-51223067D01*
X126379172Y-51209397D01*
X126379172Y-51209396D01*
X126379179Y-51209394D01*
X126510289Y-51121789D01*
X126621789Y-51010289D01*
X126709394Y-50879179D01*
X126769737Y-50733497D01*
X126800500Y-50578842D01*
X126800500Y-50421158D01*
X126800500Y-50421155D01*
X126800499Y-50421153D01*
X126789025Y-50363468D01*
X126769737Y-50266503D01*
X126725285Y-50159185D01*
X126709397Y-50120827D01*
X126709390Y-50120814D01*
X126621789Y-49989711D01*
X126621786Y-49989707D01*
X126510292Y-49878213D01*
X126510288Y-49878210D01*
X126379185Y-49790609D01*
X126379172Y-49790602D01*
X126233501Y-49730264D01*
X126233489Y-49730261D01*
X126078845Y-49699500D01*
X126078842Y-49699500D01*
X125921158Y-49699500D01*
X125921155Y-49699500D01*
X125766510Y-49730261D01*
X125766498Y-49730264D01*
X125620827Y-49790602D01*
X125620814Y-49790609D01*
X125489711Y-49878210D01*
X125489707Y-49878213D01*
X125378213Y-49989707D01*
X125378210Y-49989711D01*
X125290609Y-50120814D01*
X125290602Y-50120827D01*
X125230264Y-50266498D01*
X125230261Y-50266510D01*
X125199500Y-50421153D01*
X120453389Y-50421153D01*
X120943716Y-49930826D01*
X120950610Y-49918885D01*
X121019482Y-49799596D01*
X121019731Y-49798664D01*
X121024211Y-49790874D01*
X121043875Y-49772056D01*
X121060940Y-49750860D01*
X121068746Y-49748257D01*
X121074692Y-49742568D01*
X121101403Y-49737370D01*
X121127223Y-49728763D01*
X121135198Y-49730794D01*
X121143276Y-49729223D01*
X121168558Y-49739292D01*
X121194931Y-49746010D01*
X121202838Y-49752944D01*
X121208187Y-49755075D01*
X121213091Y-49761936D01*
X121229216Y-49776077D01*
X121237969Y-49787219D01*
X121237971Y-49787221D01*
X121237975Y-49787226D01*
X121369631Y-49918882D01*
X121442589Y-49976197D01*
X121463496Y-49997103D01*
X121497694Y-50040634D01*
X121520812Y-50070062D01*
X121520814Y-50070064D01*
X121520818Y-50070069D01*
X121652469Y-50201720D01*
X121652473Y-50201723D01*
X121652478Y-50201728D01*
X121722542Y-50256769D01*
X121722544Y-50256770D01*
X121722547Y-50256772D01*
X121799711Y-50290288D01*
X121861342Y-50317058D01*
X122011262Y-50337664D01*
X122161183Y-50317058D01*
X122277557Y-50266510D01*
X122299977Y-50256772D01*
X122299978Y-50256771D01*
X122299983Y-50256769D01*
X122370047Y-50201728D01*
X122754432Y-49817343D01*
X122815755Y-49783858D01*
X122885446Y-49788842D01*
X122929794Y-49817343D01*
X123314170Y-50201720D01*
X123314174Y-50201723D01*
X123314179Y-50201728D01*
X123384243Y-50256769D01*
X123384245Y-50256770D01*
X123384248Y-50256772D01*
X123461412Y-50290288D01*
X123523043Y-50317058D01*
X123628285Y-50331523D01*
X123672963Y-50337664D01*
X123672963Y-50337663D01*
X123672964Y-50337664D01*
X123822884Y-50317058D01*
X123884513Y-50290289D01*
X123961678Y-50256772D01*
X123961679Y-50256771D01*
X123961684Y-50256769D01*
X124031748Y-50201728D01*
X124163414Y-50070062D01*
X124218455Y-49999998D01*
X124218456Y-49999995D01*
X124220726Y-49997106D01*
X124241635Y-49976197D01*
X124244524Y-49973927D01*
X124244527Y-49973926D01*
X124314591Y-49918885D01*
X124446257Y-49787219D01*
X124501298Y-49717155D01*
X124501300Y-49717149D01*
X124503567Y-49714264D01*
X124524478Y-49693353D01*
X124527363Y-49691086D01*
X124527369Y-49691084D01*
X124597433Y-49636043D01*
X124729099Y-49504377D01*
X124784140Y-49434313D01*
X124784141Y-49434310D01*
X124786411Y-49431421D01*
X124807320Y-49410512D01*
X124810209Y-49408242D01*
X124810212Y-49408241D01*
X124880276Y-49353200D01*
X125011942Y-49221534D01*
X125041803Y-49183522D01*
X125098694Y-49142967D01*
X125168483Y-49139606D01*
X125201308Y-49152737D01*
X125328689Y-49226281D01*
X125475057Y-49265500D01*
X125475058Y-49265500D01*
X125475059Y-49265500D01*
X126375712Y-49265500D01*
X126375714Y-49265500D01*
X126522083Y-49226281D01*
X126653313Y-49150515D01*
X128192009Y-47611819D01*
X128253332Y-47578334D01*
X128279690Y-47575500D01*
X128675501Y-47575500D01*
X128742540Y-47595185D01*
X128788295Y-47647989D01*
X128799501Y-47699500D01*
X128799501Y-48000020D01*
X128810000Y-48102798D01*
X128810001Y-48102801D01*
X128849889Y-48223172D01*
X128865186Y-48269336D01*
X128957288Y-48418658D01*
X129081344Y-48542714D01*
X129148838Y-48584344D01*
X129195563Y-48636291D01*
X129206786Y-48705254D01*
X129178943Y-48769336D01*
X129171425Y-48777562D01*
X129152033Y-48796954D01*
X129152029Y-48796959D01*
X129063001Y-48941294D01*
X129062996Y-48941305D01*
X129009651Y-49102290D01*
X128999500Y-49201647D01*
X128999500Y-49798337D01*
X128999501Y-49798355D01*
X129009650Y-49897707D01*
X129009651Y-49897710D01*
X129062996Y-50058694D01*
X129063001Y-50058705D01*
X129152029Y-50203040D01*
X129152032Y-50203044D01*
X129271955Y-50322967D01*
X129271959Y-50322970D01*
X129416294Y-50411998D01*
X129416297Y-50411999D01*
X129416303Y-50412003D01*
X129577292Y-50465349D01*
X129676655Y-50475500D01*
X130223344Y-50475499D01*
X130223352Y-50475498D01*
X130223355Y-50475498D01*
X130277760Y-50469940D01*
X130322708Y-50465349D01*
X130483697Y-50412003D01*
X130628044Y-50322968D01*
X130747968Y-50203044D01*
X130837003Y-50058697D01*
X130890349Y-49897708D01*
X130900500Y-49798345D01*
X130900499Y-49414742D01*
X130920183Y-49347704D01*
X130936816Y-49327063D01*
X130960514Y-49303366D01*
X130960837Y-49302808D01*
X131036281Y-49172135D01*
X131040012Y-49158211D01*
X131042075Y-49150514D01*
X131054995Y-49102292D01*
X131075500Y-49025767D01*
X131075500Y-48874234D01*
X131075500Y-48824501D01*
X131095185Y-48757462D01*
X131147989Y-48711707D01*
X131199500Y-48700501D01*
X131500002Y-48700501D01*
X131500008Y-48700501D01*
X131602797Y-48690001D01*
X131769334Y-48634816D01*
X131918656Y-48542714D01*
X132042712Y-48418658D01*
X132134814Y-48269336D01*
X132189999Y-48102799D01*
X132200500Y-48000011D01*
X132200499Y-46399994D01*
X132191556Y-46312452D01*
X132189999Y-46297205D01*
X132189998Y-46297202D01*
X132180876Y-46269674D01*
X132134814Y-46130668D01*
X132042712Y-45981346D01*
X131918656Y-45857290D01*
X131769334Y-45765188D01*
X131602797Y-45710003D01*
X131602795Y-45710002D01*
X131500016Y-45699502D01*
X131500009Y-45699502D01*
X130413738Y-45699502D01*
X130346699Y-45679817D01*
X130300944Y-45627013D01*
X130291000Y-45557855D01*
X130320025Y-45494299D01*
X130326057Y-45487821D01*
X130777060Y-45036818D01*
X130838383Y-45003333D01*
X130864741Y-45000499D01*
X131500002Y-45000499D01*
X131500008Y-45000499D01*
X131602797Y-44989999D01*
X131769334Y-44934814D01*
X131918656Y-44842712D01*
X132042712Y-44718656D01*
X132134814Y-44569334D01*
X132189999Y-44402797D01*
X132200500Y-44300009D01*
X132200499Y-43697529D01*
X132220183Y-43630492D01*
X132272987Y-43584737D01*
X132342146Y-43574793D01*
X132393391Y-43594429D01*
X132400821Y-43599394D01*
X132400823Y-43599394D01*
X132400827Y-43599397D01*
X132521752Y-43649485D01*
X132546503Y-43659737D01*
X132691832Y-43688645D01*
X132701153Y-43690499D01*
X132701156Y-43690500D01*
X132701158Y-43690500D01*
X132715258Y-43690500D01*
X132782297Y-43710185D01*
X132802939Y-43726819D01*
X133388181Y-44312061D01*
X133421666Y-44373384D01*
X133424500Y-44399742D01*
X133424500Y-49172059D01*
X133404815Y-49239098D01*
X133388181Y-49259740D01*
X133378213Y-49269707D01*
X133378210Y-49269711D01*
X133290609Y-49400814D01*
X133290602Y-49400827D01*
X133230264Y-49546498D01*
X133230261Y-49546510D01*
X133199500Y-49701153D01*
X133199500Y-49858846D01*
X133230261Y-50013489D01*
X133230264Y-50013501D01*
X133290602Y-50159172D01*
X133290609Y-50159185D01*
X133378210Y-50290288D01*
X133378213Y-50290292D01*
X133489707Y-50401786D01*
X133489711Y-50401789D01*
X133620814Y-50489390D01*
X133620827Y-50489397D01*
X133766498Y-50549735D01*
X133766503Y-50549737D01*
X133912823Y-50578842D01*
X133921153Y-50580499D01*
X133921156Y-50580500D01*
X133921158Y-50580500D01*
X134078844Y-50580500D01*
X134078845Y-50580499D01*
X134233497Y-50549737D01*
X134379179Y-50489394D01*
X134510289Y-50401789D01*
X134621789Y-50290289D01*
X134709394Y-50159179D01*
X134769737Y-50013497D01*
X134800500Y-49858842D01*
X134800500Y-49701158D01*
X134800500Y-49701155D01*
X134800499Y-49701153D01*
X134790966Y-49653227D01*
X134769737Y-49546503D01*
X134745215Y-49487300D01*
X134709397Y-49400827D01*
X134709390Y-49400814D01*
X134621789Y-49269711D01*
X134621786Y-49269707D01*
X134611819Y-49259740D01*
X134578334Y-49198417D01*
X134575500Y-49172059D01*
X134575500Y-47921153D01*
X137699500Y-47921153D01*
X137699500Y-48078846D01*
X137730261Y-48233489D01*
X137730264Y-48233501D01*
X137790602Y-48379172D01*
X137790609Y-48379185D01*
X137878210Y-48510288D01*
X137878213Y-48510292D01*
X137989707Y-48621786D01*
X137989711Y-48621789D01*
X138120814Y-48709390D01*
X138120827Y-48709397D01*
X138236868Y-48757462D01*
X138266503Y-48769737D01*
X138421153Y-48800499D01*
X138421156Y-48800500D01*
X138421158Y-48800500D01*
X138578844Y-48800500D01*
X138578845Y-48800499D01*
X138733497Y-48769737D01*
X138879179Y-48709394D01*
X139010289Y-48621789D01*
X139121789Y-48510289D01*
X139209394Y-48379179D01*
X139269737Y-48233497D01*
X139300500Y-48078842D01*
X139300500Y-47921158D01*
X139300500Y-47921155D01*
X139300499Y-47921153D01*
X139284349Y-47839961D01*
X139269737Y-47766503D01*
X139257511Y-47736987D01*
X139209397Y-47620827D01*
X139209390Y-47620814D01*
X139121789Y-47489711D01*
X139121786Y-47489707D01*
X139010292Y-47378213D01*
X139010288Y-47378210D01*
X138879185Y-47290609D01*
X138879172Y-47290602D01*
X138733501Y-47230264D01*
X138733489Y-47230261D01*
X138578845Y-47199500D01*
X138578842Y-47199500D01*
X138421158Y-47199500D01*
X138421155Y-47199500D01*
X138266510Y-47230261D01*
X138266498Y-47230264D01*
X138120827Y-47290602D01*
X138120814Y-47290609D01*
X137989711Y-47378210D01*
X137989707Y-47378213D01*
X137878213Y-47489707D01*
X137878210Y-47489711D01*
X137790609Y-47620814D01*
X137790602Y-47620827D01*
X137730264Y-47766498D01*
X137730261Y-47766510D01*
X137699500Y-47921153D01*
X134575500Y-47921153D01*
X134575500Y-44034236D01*
X134575500Y-44034234D01*
X134536281Y-43887865D01*
X134460515Y-43756635D01*
X134353365Y-43649485D01*
X134125033Y-43421153D01*
X137699500Y-43421153D01*
X137699500Y-43578846D01*
X137730261Y-43733489D01*
X137730264Y-43733501D01*
X137790602Y-43879172D01*
X137790609Y-43879185D01*
X137878210Y-44010288D01*
X137878213Y-44010292D01*
X137989707Y-44121786D01*
X137989711Y-44121789D01*
X138120814Y-44209390D01*
X138120827Y-44209397D01*
X138258229Y-44266310D01*
X138266503Y-44269737D01*
X138414326Y-44299141D01*
X138421153Y-44300499D01*
X138421156Y-44300500D01*
X138421158Y-44300500D01*
X138578844Y-44300500D01*
X138578845Y-44300499D01*
X138733497Y-44269737D01*
X138879179Y-44209394D01*
X139010289Y-44121789D01*
X139121789Y-44010289D01*
X139209394Y-43879179D01*
X139213868Y-43868379D01*
X139260154Y-43756632D01*
X139269737Y-43733497D01*
X139300500Y-43578842D01*
X139300500Y-43421158D01*
X139300500Y-43421155D01*
X139300499Y-43421153D01*
X139269738Y-43266510D01*
X139269737Y-43266503D01*
X139259587Y-43241999D01*
X139209397Y-43120827D01*
X139209390Y-43120814D01*
X139121789Y-42989711D01*
X139121786Y-42989707D01*
X139010292Y-42878213D01*
X139010288Y-42878210D01*
X138879185Y-42790609D01*
X138879172Y-42790602D01*
X138733501Y-42730264D01*
X138733489Y-42730261D01*
X138578845Y-42699500D01*
X138578842Y-42699500D01*
X138421158Y-42699500D01*
X138421155Y-42699500D01*
X138266510Y-42730261D01*
X138266498Y-42730264D01*
X138120827Y-42790602D01*
X138120814Y-42790609D01*
X137989711Y-42878210D01*
X137989707Y-42878213D01*
X137878213Y-42989707D01*
X137878210Y-42989711D01*
X137790609Y-43120814D01*
X137790602Y-43120827D01*
X137730264Y-43266498D01*
X137730261Y-43266510D01*
X137699500Y-43421153D01*
X134125033Y-43421153D01*
X133616819Y-42912939D01*
X133583334Y-42851616D01*
X133580500Y-42825258D01*
X133580500Y-42811155D01*
X133580499Y-42811153D01*
X133580330Y-42810304D01*
X133549737Y-42656503D01*
X133497341Y-42530006D01*
X133489397Y-42510827D01*
X133489390Y-42510814D01*
X133401789Y-42379711D01*
X133401786Y-42379707D01*
X133290292Y-42268213D01*
X133290288Y-42268210D01*
X133159185Y-42180609D01*
X133159172Y-42180602D01*
X133013501Y-42120264D01*
X133013489Y-42120261D01*
X132858845Y-42089500D01*
X132858842Y-42089500D01*
X132701158Y-42089500D01*
X132701155Y-42089500D01*
X132546510Y-42120261D01*
X132546498Y-42120264D01*
X132400827Y-42180602D01*
X132400814Y-42180609D01*
X132269711Y-42268210D01*
X132269706Y-42268214D01*
X132235190Y-42302730D01*
X132173867Y-42336215D01*
X132104175Y-42331229D01*
X132048242Y-42289357D01*
X132043257Y-42282034D01*
X132042710Y-42281342D01*
X131918657Y-42157289D01*
X131918656Y-42157288D01*
X131769334Y-42065186D01*
X131602797Y-42010001D01*
X131602795Y-42010000D01*
X131500016Y-41999500D01*
X131500009Y-41999500D01*
X130750874Y-41999500D01*
X130683835Y-41979815D01*
X130638080Y-41927011D01*
X130628136Y-41857853D01*
X130657161Y-41794297D01*
X130663193Y-41787819D01*
X130747968Y-41703044D01*
X130837003Y-41558697D01*
X130890349Y-41397708D01*
X130900500Y-41298345D01*
X130900499Y-40701656D01*
X130890349Y-40602292D01*
X130837003Y-40441303D01*
X130836999Y-40441297D01*
X130836998Y-40441294D01*
X130747970Y-40296959D01*
X130747967Y-40296955D01*
X130628044Y-40177032D01*
X130628040Y-40177029D01*
X130483705Y-40088001D01*
X130483699Y-40087998D01*
X130483697Y-40087997D01*
X130483694Y-40087996D01*
X130322709Y-40034651D01*
X130223346Y-40024500D01*
X129676662Y-40024500D01*
X129676644Y-40024501D01*
X129577292Y-40034650D01*
X129577289Y-40034651D01*
X129416305Y-40087996D01*
X129416294Y-40088001D01*
X129271959Y-40177029D01*
X129211266Y-40237721D01*
X129149942Y-40271205D01*
X129099398Y-40271656D01*
X129078843Y-40267568D01*
X129078842Y-40267568D01*
X128921158Y-40267568D01*
X128921153Y-40267568D01*
X128765349Y-40298559D01*
X128695757Y-40292332D01*
X128653477Y-40264623D01*
X128478341Y-40089487D01*
X128478339Y-40089485D01*
X128383364Y-40034651D01*
X128347108Y-40013718D01*
X128347104Y-40013717D01*
X128338813Y-40011495D01*
X128283231Y-39979403D01*
X127275382Y-38971554D01*
X127275380Y-38971552D01*
X127209765Y-38933669D01*
X127144151Y-38895786D01*
X127070965Y-38876176D01*
X126997781Y-38856567D01*
X126997780Y-38856567D01*
X124331768Y-38856567D01*
X124269767Y-38839953D01*
X124250313Y-38828721D01*
X124250310Y-38828720D01*
X124250309Y-38828719D01*
X124250308Y-38828719D01*
X124103939Y-38789500D01*
X123627593Y-38789500D01*
X123476060Y-38789500D01*
X123329690Y-38828719D01*
X123198462Y-38904485D01*
X123198459Y-38904487D01*
X123124766Y-38978181D01*
X123063443Y-39011666D01*
X123037085Y-39014500D01*
X121959258Y-39014500D01*
X121887945Y-39033607D01*
X121887946Y-39033608D01*
X121812890Y-39053719D01*
X121812888Y-39053719D01*
X121812888Y-39053720D01*
X121681660Y-39129485D01*
X121681657Y-39129487D01*
X120304293Y-40506852D01*
X120242970Y-40540337D01*
X120173278Y-40535353D01*
X120128931Y-40506852D01*
X120110292Y-40488213D01*
X120110288Y-40488210D01*
X119979185Y-40400609D01*
X119979172Y-40400602D01*
X119833501Y-40340264D01*
X119833489Y-40340261D01*
X119678845Y-40309500D01*
X119678842Y-40309500D01*
X119521158Y-40309500D01*
X119521155Y-40309500D01*
X119366510Y-40340261D01*
X119366498Y-40340264D01*
X119220827Y-40400602D01*
X119220814Y-40400609D01*
X119089711Y-40488210D01*
X119089707Y-40488213D01*
X118978213Y-40599707D01*
X118978210Y-40599711D01*
X118890609Y-40730814D01*
X118890602Y-40730827D01*
X118830264Y-40876498D01*
X118830261Y-40876507D01*
X118817490Y-40940712D01*
X118785104Y-41002622D01*
X118724388Y-41037196D01*
X118654619Y-41033455D01*
X118608192Y-41004200D01*
X117924097Y-40320105D01*
X117924095Y-40320103D01*
X117833102Y-40267568D01*
X117792866Y-40244337D01*
X117719680Y-40224727D01*
X117646496Y-40205118D01*
X117646495Y-40205118D01*
X116313001Y-40205118D01*
X116245962Y-40185433D01*
X116225320Y-40168799D01*
X116085033Y-40028512D01*
X116085009Y-40028490D01*
X116057970Y-40005394D01*
X116052435Y-40002351D01*
X115919476Y-39929256D01*
X115919473Y-39929255D01*
X115919471Y-39929254D01*
X115766405Y-39889953D01*
X115766403Y-39889953D01*
X115715634Y-39889953D01*
X115648595Y-39870268D01*
X115602840Y-39817464D01*
X115591634Y-39765953D01*
X115591634Y-39715187D01*
X115591633Y-39715181D01*
X115552332Y-39562115D01*
X115552331Y-39562111D01*
X115552329Y-39562107D01*
X115476198Y-39423624D01*
X115453095Y-39396573D01*
X115453084Y-39396562D01*
X115187007Y-39130486D01*
X115186988Y-39130469D01*
X115180086Y-39124573D01*
X115159944Y-39107368D01*
X115159939Y-39107365D01*
X115021450Y-39031230D01*
X115021447Y-39031229D01*
X115021445Y-39031228D01*
X114868379Y-38991927D01*
X114868377Y-38991927D01*
X114710338Y-38991927D01*
X114710335Y-38991927D01*
X114557269Y-39031228D01*
X114557261Y-39031231D01*
X114418780Y-39107360D01*
X114418774Y-39107365D01*
X114391728Y-39130465D01*
X114391721Y-39130472D01*
X114356933Y-39165261D01*
X114276419Y-39245774D01*
X114215099Y-39279258D01*
X114188740Y-39282092D01*
X112946331Y-39282092D01*
X112879292Y-39262407D01*
X112877489Y-39261227D01*
X112824179Y-39225606D01*
X112824172Y-39225602D01*
X112678501Y-39165264D01*
X112678489Y-39165261D01*
X112523845Y-39134500D01*
X112523842Y-39134500D01*
X112366158Y-39134500D01*
X112366155Y-39134500D01*
X112211510Y-39165261D01*
X112211498Y-39165264D01*
X112065827Y-39225602D01*
X112065814Y-39225609D01*
X111934711Y-39313210D01*
X111934707Y-39313213D01*
X111823213Y-39424707D01*
X111823210Y-39424711D01*
X111735609Y-39555814D01*
X111735602Y-39555827D01*
X111675264Y-39701498D01*
X111675261Y-39701510D01*
X111644500Y-39856153D01*
X111644500Y-40013846D01*
X111675261Y-40168489D01*
X111675264Y-40168501D01*
X111735602Y-40314172D01*
X111735609Y-40314185D01*
X111823210Y-40445288D01*
X111823213Y-40445292D01*
X111934707Y-40556786D01*
X111934711Y-40556789D01*
X112065814Y-40644390D01*
X112065827Y-40644397D01*
X112204036Y-40701644D01*
X112211503Y-40704737D01*
X112358381Y-40733953D01*
X112366153Y-40735499D01*
X112366156Y-40735500D01*
X112366158Y-40735500D01*
X112523844Y-40735500D01*
X112523845Y-40735499D01*
X112678497Y-40704737D01*
X112824179Y-40644394D01*
X112955289Y-40556789D01*
X112992666Y-40519412D01*
X113053988Y-40485926D01*
X113080348Y-40483092D01*
X114011962Y-40483092D01*
X114079001Y-40502777D01*
X114099643Y-40519410D01*
X114214943Y-40634709D01*
X114214954Y-40634719D01*
X114241993Y-40657815D01*
X114241996Y-40657817D01*
X114241999Y-40657819D01*
X114380488Y-40733954D01*
X114533561Y-40773257D01*
X114533564Y-40773257D01*
X114584330Y-40773257D01*
X114651369Y-40792942D01*
X114697124Y-40845746D01*
X114708330Y-40897257D01*
X114708330Y-40948028D01*
X114747631Y-41101094D01*
X114747634Y-41101102D01*
X114823765Y-41239585D01*
X114846868Y-41266636D01*
X114846879Y-41266647D01*
X115112956Y-41532723D01*
X115112967Y-41532733D01*
X115112974Y-41532740D01*
X115112980Y-41532745D01*
X115140019Y-41555841D01*
X115140022Y-41555843D01*
X115140025Y-41555845D01*
X115278514Y-41631980D01*
X115431587Y-41671283D01*
X115431590Y-41671283D01*
X115482355Y-41671283D01*
X115549394Y-41690968D01*
X115595149Y-41743772D01*
X115606355Y-41795283D01*
X115606355Y-41846053D01*
X115645656Y-41999119D01*
X115645659Y-41999127D01*
X115721790Y-42137610D01*
X115744893Y-42164661D01*
X115744904Y-42164672D01*
X116010981Y-42430748D01*
X116010992Y-42430758D01*
X116010999Y-42430765D01*
X116011005Y-42430770D01*
X116038044Y-42453866D01*
X116038047Y-42453868D01*
X116038050Y-42453870D01*
X116176539Y-42530005D01*
X116329612Y-42569308D01*
X116329615Y-42569308D01*
X116380381Y-42569308D01*
X116447420Y-42588993D01*
X116493175Y-42641797D01*
X116504381Y-42693308D01*
X116504381Y-42744079D01*
X116543682Y-42897145D01*
X116543685Y-42897153D01*
X116619816Y-43035636D01*
X116642919Y-43062687D01*
X116795494Y-43215262D01*
X116828979Y-43276585D01*
X116823995Y-43346277D01*
X116795494Y-43390624D01*
X113735279Y-46450841D01*
X113708351Y-46465544D01*
X113682533Y-46482137D01*
X113676332Y-46483028D01*
X113673956Y-46484326D01*
X113647598Y-46487160D01*
X113614785Y-46487160D01*
X113547746Y-46467475D01*
X113527104Y-46450841D01*
X113290462Y-46214199D01*
X113256977Y-46152876D01*
X113254143Y-46126518D01*
X113254143Y-46034248D01*
X113273828Y-45967209D01*
X113290462Y-45946567D01*
X113352104Y-45884925D01*
X113430765Y-45806264D01*
X113453870Y-45779214D01*
X113530005Y-45640724D01*
X113569308Y-45487651D01*
X113569308Y-45329612D01*
X113530005Y-45176539D01*
X113530003Y-45176535D01*
X113453872Y-45038052D01*
X113430769Y-45011001D01*
X113430758Y-45010990D01*
X113164681Y-44744914D01*
X113164657Y-44744892D01*
X113137618Y-44721796D01*
X113137613Y-44721793D01*
X112999124Y-44645658D01*
X112999121Y-44645657D01*
X112999119Y-44645656D01*
X112846053Y-44606355D01*
X112846051Y-44606355D01*
X112795283Y-44606355D01*
X112728244Y-44586670D01*
X112682489Y-44533866D01*
X112671283Y-44482355D01*
X112671283Y-44431590D01*
X112671282Y-44431584D01*
X112669531Y-44424766D01*
X112631980Y-44278514D01*
X112628363Y-44271934D01*
X112555847Y-44140027D01*
X112532744Y-44112976D01*
X112532733Y-44112965D01*
X112266656Y-43846889D01*
X112266632Y-43846867D01*
X112239593Y-43823771D01*
X112239588Y-43823768D01*
X112101099Y-43747633D01*
X112101096Y-43747632D01*
X112101094Y-43747631D01*
X111948028Y-43708330D01*
X111948026Y-43708330D01*
X111897257Y-43708330D01*
X111830218Y-43688645D01*
X111784463Y-43635841D01*
X111773257Y-43584330D01*
X111773257Y-43533564D01*
X111773256Y-43533558D01*
X111743784Y-43418775D01*
X111733954Y-43380488D01*
X111733952Y-43380484D01*
X111657821Y-43242001D01*
X111634718Y-43214950D01*
X111634707Y-43214939D01*
X111368630Y-42948863D01*
X111368611Y-42948846D01*
X111368606Y-42948841D01*
X111341567Y-42925745D01*
X111341562Y-42925742D01*
X111203073Y-42849607D01*
X111203070Y-42849606D01*
X111203068Y-42849605D01*
X111050002Y-42810304D01*
X111050000Y-42810304D01*
X110891961Y-42810304D01*
X110891958Y-42810304D01*
X110738892Y-42849605D01*
X110738884Y-42849608D01*
X110600403Y-42925737D01*
X110600397Y-42925742D01*
X110573347Y-42948846D01*
X110130474Y-43391720D01*
X110107366Y-43418773D01*
X110107362Y-43418779D01*
X110031231Y-43557261D01*
X110031228Y-43557269D01*
X109991927Y-43710335D01*
X109991927Y-43868379D01*
X110031228Y-44021445D01*
X110031231Y-44021453D01*
X110107362Y-44159936D01*
X110130469Y-44186990D01*
X110130483Y-44187005D01*
X110181297Y-44237818D01*
X110214783Y-44299141D01*
X110209799Y-44368832D01*
X110167928Y-44424766D01*
X110102464Y-44449184D01*
X110093617Y-44449500D01*
X109668384Y-44449500D01*
X109649145Y-44451248D01*
X109597807Y-44455913D01*
X109435393Y-44506522D01*
X109289811Y-44594530D01*
X109169530Y-44714811D01*
X109081522Y-44860393D01*
X109030913Y-45022807D01*
X109024500Y-45093386D01*
X109024500Y-45424902D01*
X109004815Y-45491941D01*
X108988181Y-45512583D01*
X108367582Y-46133181D01*
X108306259Y-46166666D01*
X108279901Y-46169500D01*
X107612129Y-46169500D01*
X107612123Y-46169501D01*
X107552516Y-46175908D01*
X107417671Y-46226202D01*
X107417664Y-46226206D01*
X107302455Y-46312452D01*
X107302452Y-46312455D01*
X107216206Y-46427664D01*
X107216202Y-46427671D01*
X107165908Y-46562517D01*
X107159501Y-46622116D01*
X107159500Y-46622135D01*
X107159500Y-47617870D01*
X107159501Y-47617876D01*
X107165908Y-47677483D01*
X107216202Y-47812328D01*
X107216206Y-47812335D01*
X107302452Y-47927544D01*
X107302455Y-47927547D01*
X107417664Y-48013793D01*
X107417669Y-48013796D01*
X107478833Y-48036608D01*
X107534766Y-48078478D01*
X107559184Y-48143942D01*
X107559500Y-48152790D01*
X107559500Y-50187209D01*
X107539815Y-50254248D01*
X107487011Y-50300003D01*
X107478833Y-50303391D01*
X107417671Y-50326202D01*
X107417664Y-50326206D01*
X107302455Y-50412452D01*
X107302452Y-50412455D01*
X107216206Y-50527664D01*
X107216202Y-50527671D01*
X107165908Y-50662517D01*
X107160088Y-50716657D01*
X107159501Y-50722123D01*
X107159500Y-50722135D01*
X107159500Y-51717870D01*
X107159501Y-51717876D01*
X107165908Y-51777483D01*
X107216202Y-51912328D01*
X107216206Y-51912335D01*
X107302452Y-52027544D01*
X107302455Y-52027547D01*
X107417664Y-52113793D01*
X107417671Y-52113797D01*
X107552517Y-52164091D01*
X107552516Y-52164091D01*
X107559444Y-52164835D01*
X107612127Y-52170500D01*
X108707872Y-52170499D01*
X108767483Y-52164091D01*
X108902331Y-52113796D01*
X109017546Y-52027546D01*
X109103796Y-51912331D01*
X109154091Y-51777483D01*
X109160500Y-51717873D01*
X109160499Y-50722128D01*
X109154091Y-50662517D01*
X109133770Y-50608034D01*
X109103797Y-50527671D01*
X109103793Y-50527664D01*
X109017547Y-50412455D01*
X109017544Y-50412452D01*
X108902335Y-50326206D01*
X108902328Y-50326202D01*
X108841167Y-50303391D01*
X108785233Y-50261520D01*
X108760816Y-50196056D01*
X108760500Y-50187209D01*
X108760500Y-48152790D01*
X108780185Y-48085751D01*
X108832989Y-48039996D01*
X108841146Y-48036616D01*
X108902331Y-48013796D01*
X109017546Y-47927546D01*
X109103796Y-47812331D01*
X109103797Y-47812326D01*
X109108047Y-47804546D01*
X109109709Y-47805453D01*
X109144895Y-47758434D01*
X109210355Y-47734006D01*
X109278631Y-47748847D01*
X109283219Y-47751883D01*
X109283396Y-47751591D01*
X109289813Y-47755470D01*
X109289815Y-47755472D01*
X109435394Y-47843478D01*
X109597804Y-47894086D01*
X109668384Y-47900500D01*
X109668387Y-47900500D01*
X110331613Y-47900500D01*
X110331616Y-47900500D01*
X110402196Y-47894086D01*
X110564606Y-47843478D01*
X110710185Y-47755472D01*
X110753536Y-47712121D01*
X110803839Y-47661819D01*
X110830766Y-47647115D01*
X110856585Y-47630523D01*
X110862785Y-47629631D01*
X110865162Y-47628334D01*
X110891520Y-47625500D01*
X110906794Y-47625500D01*
X110973833Y-47645185D01*
X110975685Y-47646398D01*
X111100444Y-47729760D01*
X111100457Y-47729767D01*
X111220933Y-47779669D01*
X111246133Y-47790107D01*
X111400783Y-47820869D01*
X111400786Y-47820870D01*
X111400788Y-47820870D01*
X111558474Y-47820870D01*
X111558475Y-47820869D01*
X111713127Y-47790107D01*
X111858809Y-47729764D01*
X111858814Y-47729760D01*
X111858817Y-47729759D01*
X111904102Y-47699500D01*
X111971721Y-47654318D01*
X112038396Y-47633440D01*
X112105777Y-47651924D01*
X112128292Y-47669739D01*
X112681728Y-48223175D01*
X112812958Y-48298941D01*
X112959326Y-48338160D01*
X112959327Y-48338160D01*
X112959328Y-48338160D01*
X114313104Y-48338160D01*
X114313106Y-48338160D01*
X114459475Y-48298941D01*
X114590705Y-48223175D01*
X116067674Y-46746205D01*
X116128995Y-46712722D01*
X116198687Y-46717706D01*
X116254620Y-46759578D01*
X116279037Y-46825042D01*
X116264185Y-46893315D01*
X116262740Y-46895888D01*
X116232289Y-46948630D01*
X116232289Y-46948631D01*
X116232288Y-46948633D01*
X116232288Y-46948634D01*
X116225327Y-46974613D01*
X116193069Y-47095003D01*
X116193069Y-47471883D01*
X116173384Y-47538922D01*
X116120580Y-47584677D01*
X116113502Y-47587632D01*
X115962750Y-47666754D01*
X115908313Y-47712121D01*
X115908298Y-47712135D01*
X115545409Y-48075024D01*
X115545395Y-48075039D01*
X115500028Y-48129476D01*
X115420970Y-48280105D01*
X115380261Y-48445274D01*
X115380261Y-48615387D01*
X115401187Y-48700292D01*
X115398117Y-48770095D01*
X115368471Y-48817647D01*
X114297939Y-49888181D01*
X114271011Y-49902884D01*
X114245193Y-49919477D01*
X114238992Y-49920368D01*
X114236616Y-49921666D01*
X114210258Y-49924500D01*
X114039132Y-49924500D01*
X113972093Y-49904815D01*
X113951451Y-49888181D01*
X113827757Y-49764487D01*
X113827755Y-49764485D01*
X113762140Y-49726602D01*
X113696526Y-49688719D01*
X113598718Y-49662512D01*
X113550156Y-49649500D01*
X112601377Y-49649500D01*
X112449844Y-49649500D01*
X112303473Y-49688719D01*
X112172245Y-49764485D01*
X112172242Y-49764487D01*
X111882805Y-50053924D01*
X111821482Y-50087409D01*
X111751790Y-50082425D01*
X111730031Y-50071784D01*
X111719334Y-50065186D01*
X111552797Y-50010001D01*
X111552795Y-50010000D01*
X111450010Y-49999500D01*
X110849998Y-49999500D01*
X110849980Y-49999501D01*
X110747203Y-50010000D01*
X110747200Y-50010001D01*
X110580668Y-50065185D01*
X110580663Y-50065187D01*
X110431342Y-50157289D01*
X110307289Y-50281342D01*
X110215187Y-50430663D01*
X110215185Y-50430668D01*
X110203693Y-50465349D01*
X110160001Y-50597203D01*
X110160001Y-50597204D01*
X110160000Y-50597204D01*
X110149500Y-50699983D01*
X110149500Y-51300001D01*
X110149501Y-51300019D01*
X110160000Y-51402796D01*
X110160001Y-51402799D01*
X110204976Y-51538522D01*
X110215186Y-51569334D01*
X110307288Y-51718656D01*
X110431344Y-51842712D01*
X110580666Y-51934814D01*
X110747203Y-51989999D01*
X110849991Y-52000500D01*
X111285257Y-52000499D01*
X111352296Y-52020183D01*
X111372938Y-52036818D01*
X111613181Y-52277061D01*
X111646666Y-52338384D01*
X111649500Y-52364742D01*
X111649500Y-52648623D01*
X111649500Y-52648624D01*
X111649500Y-52800156D01*
X111656593Y-52826626D01*
X111688719Y-52946526D01*
X111706608Y-52977510D01*
X111764485Y-53077755D01*
X111764487Y-53077757D01*
X111974549Y-53287819D01*
X112008034Y-53349142D01*
X112003050Y-53418834D01*
X111961178Y-53474767D01*
X111895714Y-53499184D01*
X111886868Y-53499500D01*
X106504428Y-53499500D01*
X106495582Y-53499184D01*
X106473622Y-53497613D01*
X106295442Y-53484869D01*
X106277931Y-53482351D01*
X106086209Y-53440645D01*
X106069234Y-53435661D01*
X105885394Y-53367093D01*
X105869300Y-53359743D01*
X105697091Y-53265709D01*
X105682208Y-53256144D01*
X105525135Y-53138561D01*
X105511764Y-53126975D01*
X105373024Y-52988235D01*
X105361438Y-52974864D01*
X105243855Y-52817791D01*
X105234290Y-52802908D01*
X105150044Y-52648624D01*
X105140253Y-52630694D01*
X105132909Y-52614611D01*
X105064336Y-52430760D01*
X105059354Y-52413789D01*
X105028334Y-52271187D01*
X105025500Y-52244830D01*
X105025500Y-48085819D01*
X105025500Y-48085817D01*
X105004725Y-48008283D01*
X105000500Y-47976190D01*
X105000500Y-39504427D01*
X105000816Y-39495581D01*
X105005885Y-39424707D01*
X105015130Y-39295436D01*
X105017646Y-39277938D01*
X105059356Y-39086200D01*
X105064335Y-39069242D01*
X105132911Y-38885382D01*
X105140251Y-38869310D01*
X105234294Y-38697083D01*
X105243850Y-38682214D01*
X105361443Y-38525128D01*
X105373017Y-38511771D01*
X105511771Y-38373017D01*
X105525128Y-38361443D01*
X105682214Y-38243850D01*
X105697083Y-38234294D01*
X105869310Y-38140251D01*
X105885382Y-38132911D01*
X106069242Y-38064335D01*
X106086200Y-38059356D01*
X106277938Y-38017646D01*
X106295436Y-38015130D01*
X106495582Y-38000816D01*
X106504428Y-38000500D01*
X106565892Y-38000500D01*
X138934108Y-38000500D01*
X138995572Y-38000500D01*
X139004418Y-38000816D01*
G37*
%TD.AperFunction*%
%TA.AperFunction,Conductor*%
G36*
X122584261Y-42523987D02*
G01*
X122628608Y-42552488D01*
X125158181Y-45082061D01*
X125191666Y-45143384D01*
X125194500Y-45169742D01*
X125194500Y-45630258D01*
X125174815Y-45697297D01*
X125158181Y-45717939D01*
X124884047Y-45992072D01*
X124884045Y-45992075D01*
X124808279Y-46123303D01*
X124769060Y-46269674D01*
X124769060Y-46759989D01*
X124761565Y-46785512D01*
X124757702Y-46811833D01*
X124751019Y-46821426D01*
X124749375Y-46827028D01*
X124738533Y-46841468D01*
X124735740Y-46844671D01*
X124685115Y-46895297D01*
X124630074Y-46965361D01*
X124629613Y-46966420D01*
X124623765Y-46973130D01*
X124621441Y-46974613D01*
X124606895Y-46989160D01*
X124533930Y-47046480D01*
X124402278Y-47178132D01*
X124344958Y-47251097D01*
X124324052Y-47272003D01*
X124251087Y-47329323D01*
X124119436Y-47460974D01*
X124064387Y-47531048D01*
X124064384Y-47531052D01*
X124004100Y-47669843D01*
X124004096Y-47669858D01*
X124003629Y-47673255D01*
X124002341Y-47676121D01*
X124001810Y-47678017D01*
X124001525Y-47677937D01*
X123974994Y-47736987D01*
X123916448Y-47775120D01*
X123897682Y-47779202D01*
X123894285Y-47779669D01*
X123894270Y-47779673D01*
X123755479Y-47839957D01*
X123755475Y-47839960D01*
X123685401Y-47895009D01*
X123553750Y-48026660D01*
X123496430Y-48099625D01*
X123475524Y-48120531D01*
X123402559Y-48177851D01*
X123270907Y-48309503D01*
X123213587Y-48382467D01*
X123192681Y-48403373D01*
X123119717Y-48460693D01*
X122988065Y-48592345D01*
X122939622Y-48654010D01*
X122882728Y-48694567D01*
X122812939Y-48697926D01*
X122752413Y-48663022D01*
X122744604Y-48654010D01*
X122714261Y-48615386D01*
X122696167Y-48592353D01*
X122696163Y-48592349D01*
X122696160Y-48592345D01*
X122564508Y-48460693D01*
X122564503Y-48460689D01*
X122564501Y-48460687D01*
X122494437Y-48405646D01*
X122491544Y-48403373D01*
X122470638Y-48382466D01*
X122413323Y-48309508D01*
X122281666Y-48177851D01*
X122281661Y-48177847D01*
X122281659Y-48177845D01*
X122249765Y-48152790D01*
X122208700Y-48120529D01*
X122191830Y-48104499D01*
X122185983Y-48097791D01*
X122185523Y-48096732D01*
X122130482Y-48026668D01*
X122079856Y-47976042D01*
X122077064Y-47972839D01*
X122064159Y-47944801D01*
X122049371Y-47917718D01*
X122048662Y-47911130D01*
X122047852Y-47909369D01*
X122048204Y-47906866D01*
X122046537Y-47891360D01*
X122046537Y-47610363D01*
X122046537Y-47610361D01*
X122007318Y-47463992D01*
X121931552Y-47332762D01*
X121824402Y-47225612D01*
X120731971Y-46133181D01*
X119636173Y-45037382D01*
X119635454Y-45036067D01*
X119634156Y-45035318D01*
X119618755Y-45005484D01*
X119602688Y-44976059D01*
X119602794Y-44974565D01*
X119602107Y-44973233D01*
X119605278Y-44939829D01*
X119607672Y-44906367D01*
X119608616Y-44904684D01*
X119608712Y-44903676D01*
X119626338Y-44873108D01*
X119639939Y-44855796D01*
X119639941Y-44855790D01*
X119642208Y-44852905D01*
X119663119Y-44831994D01*
X119666004Y-44829727D01*
X119666010Y-44829725D01*
X119736074Y-44774684D01*
X119867740Y-44643018D01*
X119922781Y-44572954D01*
X119922782Y-44572951D01*
X119925052Y-44570062D01*
X119945961Y-44549153D01*
X119948850Y-44546883D01*
X119948853Y-44546882D01*
X120018917Y-44491841D01*
X120150583Y-44360175D01*
X120205624Y-44290111D01*
X120205625Y-44290108D01*
X120207895Y-44287219D01*
X120228804Y-44266310D01*
X120231693Y-44264040D01*
X120231696Y-44264039D01*
X120301760Y-44208998D01*
X120433426Y-44077332D01*
X120488467Y-44007268D01*
X120488469Y-44007262D01*
X120490736Y-44004377D01*
X120506769Y-43987504D01*
X120513474Y-43981658D01*
X120514538Y-43981197D01*
X120584602Y-43926156D01*
X120635229Y-43875528D01*
X120638432Y-43872737D01*
X120666461Y-43859836D01*
X120693551Y-43845044D01*
X120700141Y-43844335D01*
X120701902Y-43843525D01*
X120704403Y-43843877D01*
X120719910Y-43842210D01*
X121000908Y-43842210D01*
X121000910Y-43842210D01*
X121147279Y-43802991D01*
X121278509Y-43727225D01*
X122251442Y-42754292D01*
X122453246Y-42552488D01*
X122514569Y-42519003D01*
X122584261Y-42523987D01*
G37*
%TD.AperFunction*%
%TD*%
M02*
