%TF.GenerationSoftware,KiCad,Pcbnew,10.0.1*%
%TF.CreationDate,2026-10-01T15:16:09+03:00*%
%TF.ProjectId,hakkit_badusb,68616b6b-6974-45f6-9261-647573622e6b,rev?*%
%TF.SameCoordinates,Original*%
%TF.FileFunction,Drillmap*%
%TF.FilePolarity,Positive*%
%FSLAX45Y45*%
G04 Gerber Fmt 4.5, Leading zero omitted, Abs format (unit mm)*
G04 Created by KiCad (PCBNEW 10.0.1) date 2026-10-01 15:16:09*
%MOMM*%
%LPD*%
G01*
G04 APERTURE LIST*
%ADD10C,0.050000*%
%ADD11C,0.200000*%
%ADD12C,0.120000*%
G04 APERTURE END LIST*
D10*
X10450000Y-3950000D02*
X10450000Y-3950000D01*
G75*
G02*
X10650000Y-3750000I200000J0D01*
G01*
X13900000Y-3750000D01*
G75*
G02*
X14100000Y-3950000I0J-200000D01*
G01*
X14100000Y-5200000D01*
G75*
G02*
X13900000Y-5400000I-200000J0D01*
G01*
X10650000Y-5400000D01*
G75*
G02*
X10450000Y-5200000I0J200000D01*
G01*
X10450000Y-3950000D01*
X12400000Y-5200000D02*
G75*
G02*
X12200000Y-5200000I-100000J0D01*
G01*
X12200000Y-5200000D02*
G75*
G02*
X12400000Y-5200000I100000J0D01*
G01*
D11*
D12*
X13740000Y-4315000D02*
X13860000Y-4435000D01*
X13860000Y-4315000D02*
X13740000Y-4435000D01*
X13740000Y-4765000D02*
X13860000Y-4885000D01*
X13860000Y-4765000D02*
X13740000Y-4885000D01*
D11*
X10708277Y-5713984D02*
X10708277Y-5513984D01*
X10708277Y-5513984D02*
X10755896Y-5513984D01*
X10755896Y-5513984D02*
X10784467Y-5523508D01*
X10784467Y-5523508D02*
X10803515Y-5542555D01*
X10803515Y-5542555D02*
X10813039Y-5561603D01*
X10813039Y-5561603D02*
X10822563Y-5599698D01*
X10822563Y-5599698D02*
X10822563Y-5628269D01*
X10822563Y-5628269D02*
X10813039Y-5666365D01*
X10813039Y-5666365D02*
X10803515Y-5685412D01*
X10803515Y-5685412D02*
X10784467Y-5704460D01*
X10784467Y-5704460D02*
X10755896Y-5713984D01*
X10755896Y-5713984D02*
X10708277Y-5713984D01*
X10908277Y-5713984D02*
X10908277Y-5580650D01*
X10908277Y-5618746D02*
X10917801Y-5599698D01*
X10917801Y-5599698D02*
X10927324Y-5590174D01*
X10927324Y-5590174D02*
X10946372Y-5580650D01*
X10946372Y-5580650D02*
X10965420Y-5580650D01*
X11032086Y-5713984D02*
X11032086Y-5580650D01*
X11032086Y-5513984D02*
X11022563Y-5523508D01*
X11022563Y-5523508D02*
X11032086Y-5533031D01*
X11032086Y-5533031D02*
X11041610Y-5523508D01*
X11041610Y-5523508D02*
X11032086Y-5513984D01*
X11032086Y-5513984D02*
X11032086Y-5533031D01*
X11155896Y-5713984D02*
X11136848Y-5704460D01*
X11136848Y-5704460D02*
X11127324Y-5685412D01*
X11127324Y-5685412D02*
X11127324Y-5513984D01*
X11260658Y-5713984D02*
X11241610Y-5704460D01*
X11241610Y-5704460D02*
X11232086Y-5685412D01*
X11232086Y-5685412D02*
X11232086Y-5513984D01*
X11489229Y-5713984D02*
X11489229Y-5513984D01*
X11489229Y-5513984D02*
X11555896Y-5656841D01*
X11555896Y-5656841D02*
X11622562Y-5513984D01*
X11622562Y-5513984D02*
X11622562Y-5713984D01*
X11803515Y-5713984D02*
X11803515Y-5609222D01*
X11803515Y-5609222D02*
X11793991Y-5590174D01*
X11793991Y-5590174D02*
X11774943Y-5580650D01*
X11774943Y-5580650D02*
X11736848Y-5580650D01*
X11736848Y-5580650D02*
X11717801Y-5590174D01*
X11803515Y-5704460D02*
X11784467Y-5713984D01*
X11784467Y-5713984D02*
X11736848Y-5713984D01*
X11736848Y-5713984D02*
X11717801Y-5704460D01*
X11717801Y-5704460D02*
X11708277Y-5685412D01*
X11708277Y-5685412D02*
X11708277Y-5666365D01*
X11708277Y-5666365D02*
X11717801Y-5647317D01*
X11717801Y-5647317D02*
X11736848Y-5637793D01*
X11736848Y-5637793D02*
X11784467Y-5637793D01*
X11784467Y-5637793D02*
X11803515Y-5628269D01*
X11898753Y-5580650D02*
X11898753Y-5780650D01*
X11898753Y-5590174D02*
X11917801Y-5580650D01*
X11917801Y-5580650D02*
X11955896Y-5580650D01*
X11955896Y-5580650D02*
X11974943Y-5590174D01*
X11974943Y-5590174D02*
X11984467Y-5599698D01*
X11984467Y-5599698D02*
X11993991Y-5618746D01*
X11993991Y-5618746D02*
X11993991Y-5675888D01*
X11993991Y-5675888D02*
X11984467Y-5694936D01*
X11984467Y-5694936D02*
X11974943Y-5704460D01*
X11974943Y-5704460D02*
X11955896Y-5713984D01*
X11955896Y-5713984D02*
X11917801Y-5713984D01*
X11917801Y-5713984D02*
X11898753Y-5704460D01*
X12079705Y-5694936D02*
X12089229Y-5704460D01*
X12089229Y-5704460D02*
X12079705Y-5713984D01*
X12079705Y-5713984D02*
X12070182Y-5704460D01*
X12070182Y-5704460D02*
X12079705Y-5694936D01*
X12079705Y-5694936D02*
X12079705Y-5713984D01*
X12079705Y-5590174D02*
X12089229Y-5599698D01*
X12089229Y-5599698D02*
X12079705Y-5609222D01*
X12079705Y-5609222D02*
X12070182Y-5599698D01*
X12070182Y-5599698D02*
X12079705Y-5590174D01*
X12079705Y-5590174D02*
X12079705Y-5609222D01*
D12*
X10327500Y-5982500D02*
X10447500Y-6102500D01*
X10447500Y-5982500D02*
X10327500Y-6102500D01*
D11*
X10813039Y-6133984D02*
X10698753Y-6133984D01*
X10755896Y-6133984D02*
X10755896Y-5933984D01*
X10755896Y-5933984D02*
X10736848Y-5962555D01*
X10736848Y-5962555D02*
X10717801Y-5981603D01*
X10717801Y-5981603D02*
X10698753Y-5991127D01*
X10898753Y-6114936D02*
X10908277Y-6124460D01*
X10908277Y-6124460D02*
X10898753Y-6133984D01*
X10898753Y-6133984D02*
X10889229Y-6124460D01*
X10889229Y-6124460D02*
X10898753Y-6114936D01*
X10898753Y-6114936D02*
X10898753Y-6133984D01*
X10984467Y-5953031D02*
X10993991Y-5943508D01*
X10993991Y-5943508D02*
X11013039Y-5933984D01*
X11013039Y-5933984D02*
X11060658Y-5933984D01*
X11060658Y-5933984D02*
X11079705Y-5943508D01*
X11079705Y-5943508D02*
X11089229Y-5953031D01*
X11089229Y-5953031D02*
X11098753Y-5972079D01*
X11098753Y-5972079D02*
X11098753Y-5991127D01*
X11098753Y-5991127D02*
X11089229Y-6019698D01*
X11089229Y-6019698D02*
X10974944Y-6133984D01*
X10974944Y-6133984D02*
X11098753Y-6133984D01*
X11222562Y-5933984D02*
X11241610Y-5933984D01*
X11241610Y-5933984D02*
X11260658Y-5943508D01*
X11260658Y-5943508D02*
X11270182Y-5953031D01*
X11270182Y-5953031D02*
X11279705Y-5972079D01*
X11279705Y-5972079D02*
X11289229Y-6010174D01*
X11289229Y-6010174D02*
X11289229Y-6057793D01*
X11289229Y-6057793D02*
X11279705Y-6095888D01*
X11279705Y-6095888D02*
X11270182Y-6114936D01*
X11270182Y-6114936D02*
X11260658Y-6124460D01*
X11260658Y-6124460D02*
X11241610Y-6133984D01*
X11241610Y-6133984D02*
X11222562Y-6133984D01*
X11222562Y-6133984D02*
X11203515Y-6124460D01*
X11203515Y-6124460D02*
X11193991Y-6114936D01*
X11193991Y-6114936D02*
X11184467Y-6095888D01*
X11184467Y-6095888D02*
X11174944Y-6057793D01*
X11174944Y-6057793D02*
X11174944Y-6010174D01*
X11174944Y-6010174D02*
X11184467Y-5972079D01*
X11184467Y-5972079D02*
X11193991Y-5953031D01*
X11193991Y-5953031D02*
X11203515Y-5943508D01*
X11203515Y-5943508D02*
X11222562Y-5933984D01*
X11413039Y-5933984D02*
X11432086Y-5933984D01*
X11432086Y-5933984D02*
X11451134Y-5943508D01*
X11451134Y-5943508D02*
X11460658Y-5953031D01*
X11460658Y-5953031D02*
X11470182Y-5972079D01*
X11470182Y-5972079D02*
X11479705Y-6010174D01*
X11479705Y-6010174D02*
X11479705Y-6057793D01*
X11479705Y-6057793D02*
X11470182Y-6095888D01*
X11470182Y-6095888D02*
X11460658Y-6114936D01*
X11460658Y-6114936D02*
X11451134Y-6124460D01*
X11451134Y-6124460D02*
X11432086Y-6133984D01*
X11432086Y-6133984D02*
X11413039Y-6133984D01*
X11413039Y-6133984D02*
X11393991Y-6124460D01*
X11393991Y-6124460D02*
X11384467Y-6114936D01*
X11384467Y-6114936D02*
X11374943Y-6095888D01*
X11374943Y-6095888D02*
X11365420Y-6057793D01*
X11365420Y-6057793D02*
X11365420Y-6010174D01*
X11365420Y-6010174D02*
X11374943Y-5972079D01*
X11374943Y-5972079D02*
X11384467Y-5953031D01*
X11384467Y-5953031D02*
X11393991Y-5943508D01*
X11393991Y-5943508D02*
X11413039Y-5933984D01*
X11565420Y-6133984D02*
X11565420Y-6000650D01*
X11565420Y-6019698D02*
X11574943Y-6010174D01*
X11574943Y-6010174D02*
X11593991Y-6000650D01*
X11593991Y-6000650D02*
X11622563Y-6000650D01*
X11622563Y-6000650D02*
X11641610Y-6010174D01*
X11641610Y-6010174D02*
X11651134Y-6029222D01*
X11651134Y-6029222D02*
X11651134Y-6133984D01*
X11651134Y-6029222D02*
X11660658Y-6010174D01*
X11660658Y-6010174D02*
X11679705Y-6000650D01*
X11679705Y-6000650D02*
X11708277Y-6000650D01*
X11708277Y-6000650D02*
X11727324Y-6010174D01*
X11727324Y-6010174D02*
X11736848Y-6029222D01*
X11736848Y-6029222D02*
X11736848Y-6133984D01*
X11832086Y-6133984D02*
X11832086Y-6000650D01*
X11832086Y-6019698D02*
X11841610Y-6010174D01*
X11841610Y-6010174D02*
X11860658Y-6000650D01*
X11860658Y-6000650D02*
X11889229Y-6000650D01*
X11889229Y-6000650D02*
X11908277Y-6010174D01*
X11908277Y-6010174D02*
X11917801Y-6029222D01*
X11917801Y-6029222D02*
X11917801Y-6133984D01*
X11917801Y-6029222D02*
X11927324Y-6010174D01*
X11927324Y-6010174D02*
X11946372Y-6000650D01*
X11946372Y-6000650D02*
X11974943Y-6000650D01*
X11974943Y-6000650D02*
X11993991Y-6010174D01*
X11993991Y-6010174D02*
X12003515Y-6029222D01*
X12003515Y-6029222D02*
X12003515Y-6133984D01*
X12393991Y-5924460D02*
X12222563Y-6181603D01*
X12651134Y-5933984D02*
X12670182Y-5933984D01*
X12670182Y-5933984D02*
X12689229Y-5943508D01*
X12689229Y-5943508D02*
X12698753Y-5953031D01*
X12698753Y-5953031D02*
X12708277Y-5972079D01*
X12708277Y-5972079D02*
X12717801Y-6010174D01*
X12717801Y-6010174D02*
X12717801Y-6057793D01*
X12717801Y-6057793D02*
X12708277Y-6095888D01*
X12708277Y-6095888D02*
X12698753Y-6114936D01*
X12698753Y-6114936D02*
X12689229Y-6124460D01*
X12689229Y-6124460D02*
X12670182Y-6133984D01*
X12670182Y-6133984D02*
X12651134Y-6133984D01*
X12651134Y-6133984D02*
X12632086Y-6124460D01*
X12632086Y-6124460D02*
X12622563Y-6114936D01*
X12622563Y-6114936D02*
X12613039Y-6095888D01*
X12613039Y-6095888D02*
X12603515Y-6057793D01*
X12603515Y-6057793D02*
X12603515Y-6010174D01*
X12603515Y-6010174D02*
X12613039Y-5972079D01*
X12613039Y-5972079D02*
X12622563Y-5953031D01*
X12622563Y-5953031D02*
X12632086Y-5943508D01*
X12632086Y-5943508D02*
X12651134Y-5933984D01*
X12803515Y-6114936D02*
X12813039Y-6124460D01*
X12813039Y-6124460D02*
X12803515Y-6133984D01*
X12803515Y-6133984D02*
X12793991Y-6124460D01*
X12793991Y-6124460D02*
X12803515Y-6114936D01*
X12803515Y-6114936D02*
X12803515Y-6133984D01*
X12936848Y-5933984D02*
X12955896Y-5933984D01*
X12955896Y-5933984D02*
X12974944Y-5943508D01*
X12974944Y-5943508D02*
X12984467Y-5953031D01*
X12984467Y-5953031D02*
X12993991Y-5972079D01*
X12993991Y-5972079D02*
X13003515Y-6010174D01*
X13003515Y-6010174D02*
X13003515Y-6057793D01*
X13003515Y-6057793D02*
X12993991Y-6095888D01*
X12993991Y-6095888D02*
X12984467Y-6114936D01*
X12984467Y-6114936D02*
X12974944Y-6124460D01*
X12974944Y-6124460D02*
X12955896Y-6133984D01*
X12955896Y-6133984D02*
X12936848Y-6133984D01*
X12936848Y-6133984D02*
X12917801Y-6124460D01*
X12917801Y-6124460D02*
X12908277Y-6114936D01*
X12908277Y-6114936D02*
X12898753Y-6095888D01*
X12898753Y-6095888D02*
X12889229Y-6057793D01*
X12889229Y-6057793D02*
X12889229Y-6010174D01*
X12889229Y-6010174D02*
X12898753Y-5972079D01*
X12898753Y-5972079D02*
X12908277Y-5953031D01*
X12908277Y-5953031D02*
X12917801Y-5943508D01*
X12917801Y-5943508D02*
X12936848Y-5933984D01*
X13174944Y-6000650D02*
X13174944Y-6133984D01*
X13127325Y-5924460D02*
X13079706Y-6067317D01*
X13079706Y-6067317D02*
X13203515Y-6067317D01*
X13260658Y-5933984D02*
X13393991Y-5933984D01*
X13393991Y-5933984D02*
X13308277Y-6133984D01*
X13460658Y-5953031D02*
X13470182Y-5943508D01*
X13470182Y-5943508D02*
X13489229Y-5933984D01*
X13489229Y-5933984D02*
X13536848Y-5933984D01*
X13536848Y-5933984D02*
X13555896Y-5943508D01*
X13555896Y-5943508D02*
X13565420Y-5953031D01*
X13565420Y-5953031D02*
X13574944Y-5972079D01*
X13574944Y-5972079D02*
X13574944Y-5991127D01*
X13574944Y-5991127D02*
X13565420Y-6019698D01*
X13565420Y-6019698D02*
X13451134Y-6133984D01*
X13451134Y-6133984D02*
X13574944Y-6133984D01*
X13651134Y-5933984D02*
X13651134Y-5972079D01*
X13727325Y-5933984D02*
X13727325Y-5972079D01*
X14022563Y-6210174D02*
X14013039Y-6200650D01*
X14013039Y-6200650D02*
X13993991Y-6172079D01*
X13993991Y-6172079D02*
X13984468Y-6153031D01*
X13984468Y-6153031D02*
X13974944Y-6124460D01*
X13974944Y-6124460D02*
X13965420Y-6076841D01*
X13965420Y-6076841D02*
X13965420Y-6038746D01*
X13965420Y-6038746D02*
X13974944Y-5991127D01*
X13974944Y-5991127D02*
X13984468Y-5962555D01*
X13984468Y-5962555D02*
X13993991Y-5943508D01*
X13993991Y-5943508D02*
X14013039Y-5914936D01*
X14013039Y-5914936D02*
X14022563Y-5905412D01*
X14089229Y-5953031D02*
X14098753Y-5943508D01*
X14098753Y-5943508D02*
X14117801Y-5933984D01*
X14117801Y-5933984D02*
X14165420Y-5933984D01*
X14165420Y-5933984D02*
X14184468Y-5943508D01*
X14184468Y-5943508D02*
X14193991Y-5953031D01*
X14193991Y-5953031D02*
X14203515Y-5972079D01*
X14203515Y-5972079D02*
X14203515Y-5991127D01*
X14203515Y-5991127D02*
X14193991Y-6019698D01*
X14193991Y-6019698D02*
X14079706Y-6133984D01*
X14079706Y-6133984D02*
X14203515Y-6133984D01*
X14441610Y-6133984D02*
X14441610Y-5933984D01*
X14527325Y-6133984D02*
X14527325Y-6029222D01*
X14527325Y-6029222D02*
X14517801Y-6010174D01*
X14517801Y-6010174D02*
X14498753Y-6000650D01*
X14498753Y-6000650D02*
X14470182Y-6000650D01*
X14470182Y-6000650D02*
X14451134Y-6010174D01*
X14451134Y-6010174D02*
X14441610Y-6019698D01*
X14651134Y-6133984D02*
X14632087Y-6124460D01*
X14632087Y-6124460D02*
X14622563Y-6114936D01*
X14622563Y-6114936D02*
X14613039Y-6095888D01*
X14613039Y-6095888D02*
X14613039Y-6038746D01*
X14613039Y-6038746D02*
X14622563Y-6019698D01*
X14622563Y-6019698D02*
X14632087Y-6010174D01*
X14632087Y-6010174D02*
X14651134Y-6000650D01*
X14651134Y-6000650D02*
X14679706Y-6000650D01*
X14679706Y-6000650D02*
X14698753Y-6010174D01*
X14698753Y-6010174D02*
X14708277Y-6019698D01*
X14708277Y-6019698D02*
X14717801Y-6038746D01*
X14717801Y-6038746D02*
X14717801Y-6095888D01*
X14717801Y-6095888D02*
X14708277Y-6114936D01*
X14708277Y-6114936D02*
X14698753Y-6124460D01*
X14698753Y-6124460D02*
X14679706Y-6133984D01*
X14679706Y-6133984D02*
X14651134Y-6133984D01*
X14832087Y-6133984D02*
X14813039Y-6124460D01*
X14813039Y-6124460D02*
X14803515Y-6105412D01*
X14803515Y-6105412D02*
X14803515Y-5933984D01*
X14984468Y-6124460D02*
X14965420Y-6133984D01*
X14965420Y-6133984D02*
X14927325Y-6133984D01*
X14927325Y-6133984D02*
X14908277Y-6124460D01*
X14908277Y-6124460D02*
X14898753Y-6105412D01*
X14898753Y-6105412D02*
X14898753Y-6029222D01*
X14898753Y-6029222D02*
X14908277Y-6010174D01*
X14908277Y-6010174D02*
X14927325Y-6000650D01*
X14927325Y-6000650D02*
X14965420Y-6000650D01*
X14965420Y-6000650D02*
X14984468Y-6010174D01*
X14984468Y-6010174D02*
X14993991Y-6029222D01*
X14993991Y-6029222D02*
X14993991Y-6048269D01*
X14993991Y-6048269D02*
X14898753Y-6067317D01*
X15070182Y-6124460D02*
X15089230Y-6133984D01*
X15089230Y-6133984D02*
X15127325Y-6133984D01*
X15127325Y-6133984D02*
X15146372Y-6124460D01*
X15146372Y-6124460D02*
X15155896Y-6105412D01*
X15155896Y-6105412D02*
X15155896Y-6095888D01*
X15155896Y-6095888D02*
X15146372Y-6076841D01*
X15146372Y-6076841D02*
X15127325Y-6067317D01*
X15127325Y-6067317D02*
X15098753Y-6067317D01*
X15098753Y-6067317D02*
X15079706Y-6057793D01*
X15079706Y-6057793D02*
X15070182Y-6038746D01*
X15070182Y-6038746D02*
X15070182Y-6029222D01*
X15070182Y-6029222D02*
X15079706Y-6010174D01*
X15079706Y-6010174D02*
X15098753Y-6000650D01*
X15098753Y-6000650D02*
X15127325Y-6000650D01*
X15127325Y-6000650D02*
X15146372Y-6010174D01*
X15222563Y-6210174D02*
X15232087Y-6200650D01*
X15232087Y-6200650D02*
X15251134Y-6172079D01*
X15251134Y-6172079D02*
X15260658Y-6153031D01*
X15260658Y-6153031D02*
X15270182Y-6124460D01*
X15270182Y-6124460D02*
X15279706Y-6076841D01*
X15279706Y-6076841D02*
X15279706Y-6038746D01*
X15279706Y-6038746D02*
X15270182Y-5991127D01*
X15270182Y-5991127D02*
X15260658Y-5962555D01*
X15260658Y-5962555D02*
X15251134Y-5943508D01*
X15251134Y-5943508D02*
X15232087Y-5914936D01*
X15232087Y-5914936D02*
X15222563Y-5905412D01*
X15584468Y-6210174D02*
X15574944Y-6200650D01*
X15574944Y-6200650D02*
X15555896Y-6172079D01*
X15555896Y-6172079D02*
X15546372Y-6153031D01*
X15546372Y-6153031D02*
X15536849Y-6124460D01*
X15536849Y-6124460D02*
X15527325Y-6076841D01*
X15527325Y-6076841D02*
X15527325Y-6038746D01*
X15527325Y-6038746D02*
X15536849Y-5991127D01*
X15536849Y-5991127D02*
X15546372Y-5962555D01*
X15546372Y-5962555D02*
X15555896Y-5943508D01*
X15555896Y-5943508D02*
X15574944Y-5914936D01*
X15574944Y-5914936D02*
X15584468Y-5905412D01*
X15660658Y-6000650D02*
X15660658Y-6133984D01*
X15660658Y-6019698D02*
X15670182Y-6010174D01*
X15670182Y-6010174D02*
X15689230Y-6000650D01*
X15689230Y-6000650D02*
X15717801Y-6000650D01*
X15717801Y-6000650D02*
X15736849Y-6010174D01*
X15736849Y-6010174D02*
X15746372Y-6029222D01*
X15746372Y-6029222D02*
X15746372Y-6133984D01*
X15870182Y-6133984D02*
X15851134Y-6124460D01*
X15851134Y-6124460D02*
X15841611Y-6114936D01*
X15841611Y-6114936D02*
X15832087Y-6095888D01*
X15832087Y-6095888D02*
X15832087Y-6038746D01*
X15832087Y-6038746D02*
X15841611Y-6019698D01*
X15841611Y-6019698D02*
X15851134Y-6010174D01*
X15851134Y-6010174D02*
X15870182Y-6000650D01*
X15870182Y-6000650D02*
X15898753Y-6000650D01*
X15898753Y-6000650D02*
X15917801Y-6010174D01*
X15917801Y-6010174D02*
X15927325Y-6019698D01*
X15927325Y-6019698D02*
X15936849Y-6038746D01*
X15936849Y-6038746D02*
X15936849Y-6095888D01*
X15936849Y-6095888D02*
X15927325Y-6114936D01*
X15927325Y-6114936D02*
X15917801Y-6124460D01*
X15917801Y-6124460D02*
X15898753Y-6133984D01*
X15898753Y-6133984D02*
X15870182Y-6133984D01*
X15993992Y-6000650D02*
X16070182Y-6000650D01*
X16022563Y-5933984D02*
X16022563Y-6105412D01*
X16022563Y-6105412D02*
X16032087Y-6124460D01*
X16032087Y-6124460D02*
X16051134Y-6133984D01*
X16051134Y-6133984D02*
X16070182Y-6133984D01*
X16289230Y-6000650D02*
X16289230Y-6200650D01*
X16289230Y-6010174D02*
X16308277Y-6000650D01*
X16308277Y-6000650D02*
X16346373Y-6000650D01*
X16346373Y-6000650D02*
X16365420Y-6010174D01*
X16365420Y-6010174D02*
X16374944Y-6019698D01*
X16374944Y-6019698D02*
X16384468Y-6038746D01*
X16384468Y-6038746D02*
X16384468Y-6095888D01*
X16384468Y-6095888D02*
X16374944Y-6114936D01*
X16374944Y-6114936D02*
X16365420Y-6124460D01*
X16365420Y-6124460D02*
X16346373Y-6133984D01*
X16346373Y-6133984D02*
X16308277Y-6133984D01*
X16308277Y-6133984D02*
X16289230Y-6124460D01*
X16498753Y-6133984D02*
X16479706Y-6124460D01*
X16479706Y-6124460D02*
X16470182Y-6105412D01*
X16470182Y-6105412D02*
X16470182Y-5933984D01*
X16660658Y-6133984D02*
X16660658Y-6029222D01*
X16660658Y-6029222D02*
X16651134Y-6010174D01*
X16651134Y-6010174D02*
X16632087Y-6000650D01*
X16632087Y-6000650D02*
X16593992Y-6000650D01*
X16593992Y-6000650D02*
X16574944Y-6010174D01*
X16660658Y-6124460D02*
X16641611Y-6133984D01*
X16641611Y-6133984D02*
X16593992Y-6133984D01*
X16593992Y-6133984D02*
X16574944Y-6124460D01*
X16574944Y-6124460D02*
X16565420Y-6105412D01*
X16565420Y-6105412D02*
X16565420Y-6086365D01*
X16565420Y-6086365D02*
X16574944Y-6067317D01*
X16574944Y-6067317D02*
X16593992Y-6057793D01*
X16593992Y-6057793D02*
X16641611Y-6057793D01*
X16641611Y-6057793D02*
X16660658Y-6048269D01*
X16727325Y-6000650D02*
X16803515Y-6000650D01*
X16755896Y-5933984D02*
X16755896Y-6105412D01*
X16755896Y-6105412D02*
X16765420Y-6124460D01*
X16765420Y-6124460D02*
X16784468Y-6133984D01*
X16784468Y-6133984D02*
X16803515Y-6133984D01*
X16946373Y-6124460D02*
X16927325Y-6133984D01*
X16927325Y-6133984D02*
X16889230Y-6133984D01*
X16889230Y-6133984D02*
X16870182Y-6124460D01*
X16870182Y-6124460D02*
X16860658Y-6105412D01*
X16860658Y-6105412D02*
X16860658Y-6029222D01*
X16860658Y-6029222D02*
X16870182Y-6010174D01*
X16870182Y-6010174D02*
X16889230Y-6000650D01*
X16889230Y-6000650D02*
X16927325Y-6000650D01*
X16927325Y-6000650D02*
X16946373Y-6010174D01*
X16946373Y-6010174D02*
X16955896Y-6029222D01*
X16955896Y-6029222D02*
X16955896Y-6048269D01*
X16955896Y-6048269D02*
X16860658Y-6067317D01*
X17127325Y-6133984D02*
X17127325Y-5933984D01*
X17127325Y-6124460D02*
X17108277Y-6133984D01*
X17108277Y-6133984D02*
X17070182Y-6133984D01*
X17070182Y-6133984D02*
X17051135Y-6124460D01*
X17051135Y-6124460D02*
X17041611Y-6114936D01*
X17041611Y-6114936D02*
X17032087Y-6095888D01*
X17032087Y-6095888D02*
X17032087Y-6038746D01*
X17032087Y-6038746D02*
X17041611Y-6019698D01*
X17041611Y-6019698D02*
X17051135Y-6010174D01*
X17051135Y-6010174D02*
X17070182Y-6000650D01*
X17070182Y-6000650D02*
X17108277Y-6000650D01*
X17108277Y-6000650D02*
X17127325Y-6010174D01*
X17203516Y-6210174D02*
X17213039Y-6200650D01*
X17213039Y-6200650D02*
X17232087Y-6172079D01*
X17232087Y-6172079D02*
X17241611Y-6153031D01*
X17241611Y-6153031D02*
X17251135Y-6124460D01*
X17251135Y-6124460D02*
X17260658Y-6076841D01*
X17260658Y-6076841D02*
X17260658Y-6038746D01*
X17260658Y-6038746D02*
X17251135Y-5991127D01*
X17251135Y-5991127D02*
X17241611Y-5962555D01*
X17241611Y-5962555D02*
X17232087Y-5943508D01*
X17232087Y-5943508D02*
X17213039Y-5914936D01*
X17213039Y-5914936D02*
X17203516Y-5905412D01*
M02*
