%TF.GenerationSoftware,KiCad,Pcbnew,10.0.1*%
%TF.CreationDate,2026-09-27T14:45:39+03:00*%
%TF.ProjectId,hakkit_badusb,68616b6b-6974-45f6-9261-647573622e6b,rev?*%
%TF.SameCoordinates,Original*%
%TF.FileFunction,Soldermask,Top*%
%TF.FilePolarity,Negative*%
%FSLAX46Y46*%
G04 Gerber Fmt 4.6, Leading zero omitted, Abs format (unit mm)*
G04 Created by KiCad (PCBNEW 10.0.1) date 2026-09-27 14:45:39*
%MOMM*%
%LPD*%
G01*
G04 APERTURE LIST*
G04 Aperture macros list*
%AMRoundRect*
0 Rectangle with rounded corners*
0 $1 Rounding radius*
0 $2 $3 $4 $5 $6 $7 $8 $9 X,Y pos of 4 corners*
0 Add a 4 corners polygon primitive as box body*
4,1,4,$2,$3,$4,$5,$6,$7,$8,$9,$2,$3,0*
0 Add four circle primitives for the rounded corners*
1,1,$1+$1,$2,$3*
1,1,$1+$1,$4,$5*
1,1,$1+$1,$6,$7*
1,1,$1+$1,$8,$9*
0 Add four rect primitives between the rounded corners*
20,1,$1+$1,$2,$3,$4,$5,0*
20,1,$1+$1,$4,$5,$6,$7,0*
20,1,$1+$1,$6,$7,$8,$9,0*
20,1,$1+$1,$8,$9,$2,$3,0*%
G04 Aperture macros list end*
%ADD10RoundRect,0.100000X-0.712500X-0.100000X0.712500X-0.100000X0.712500X0.100000X-0.712500X0.100000X0*%
%ADD11RoundRect,0.125000X-0.250000X-0.125000X0.250000X-0.125000X0.250000X0.125000X-0.250000X0.125000X0*%
%ADD12R,3.400000X4.300000*%
%ADD13RoundRect,0.050000X-0.387500X-0.050000X0.387500X-0.050000X0.387500X0.050000X-0.387500X0.050000X0*%
%ADD14RoundRect,0.050000X-0.050000X-0.387500X0.050000X-0.387500X0.050000X0.387500X-0.050000X0.387500X0*%
%ADD15R,3.200000X3.200000*%
%ADD16RoundRect,0.175000X0.725000X-0.175000X0.725000X0.175000X-0.725000X0.175000X-0.725000X-0.175000X0*%
%ADD17RoundRect,0.175000X-0.725000X-0.175000X0.725000X-0.175000X0.725000X0.175000X-0.725000X0.175000X0*%
%ADD18O,4.000000X1.600000*%
G04 APERTURE END LIST*
D10*
%TO.C,U3*%
X100162500Y-86045000D03*
X100162500Y-86695000D03*
X100162500Y-87345000D03*
X100162500Y-87995000D03*
X104387500Y-87995000D03*
X104387500Y-87345000D03*
X104387500Y-86695000D03*
X104387500Y-86045000D03*
%TD*%
D11*
%TO.C,U2*%
X92020000Y-86060000D03*
X92020000Y-87330000D03*
X92020000Y-88600000D03*
X92020000Y-89870000D03*
X97420000Y-89870000D03*
X97420000Y-88600000D03*
X97420000Y-87330000D03*
X97420000Y-86060000D03*
D12*
X94720000Y-87965000D03*
%TD*%
D13*
%TO.C,U1*%
X82402500Y-86745000D03*
X82402500Y-87145000D03*
X82402500Y-87545000D03*
X82402500Y-87945000D03*
X82402500Y-88345000D03*
X82402500Y-88745000D03*
X82402500Y-89145000D03*
X82402500Y-89545000D03*
X82402500Y-89945000D03*
X82402500Y-90345000D03*
X82402500Y-90745000D03*
X82402500Y-91145000D03*
X82402500Y-91545000D03*
X82402500Y-91945000D03*
D14*
X83240000Y-92782500D03*
X83640000Y-92782500D03*
X84040000Y-92782500D03*
X84440000Y-92782500D03*
X84840000Y-92782500D03*
X85240000Y-92782500D03*
X85640000Y-92782500D03*
X86040000Y-92782500D03*
X86440000Y-92782500D03*
X86840000Y-92782500D03*
X87240000Y-92782500D03*
X87640000Y-92782500D03*
X88040000Y-92782500D03*
X88440000Y-92782500D03*
D13*
X89277500Y-91945000D03*
X89277500Y-91545000D03*
X89277500Y-91145000D03*
X89277500Y-90745000D03*
X89277500Y-90345000D03*
X89277500Y-89945000D03*
X89277500Y-89545000D03*
X89277500Y-89145000D03*
X89277500Y-88745000D03*
X89277500Y-88345000D03*
X89277500Y-87945000D03*
X89277500Y-87545000D03*
X89277500Y-87145000D03*
X89277500Y-86745000D03*
D14*
X88440000Y-85907500D03*
X88040000Y-85907500D03*
X87640000Y-85907500D03*
X87240000Y-85907500D03*
X86840000Y-85907500D03*
X86440000Y-85907500D03*
X86040000Y-85907500D03*
X85640000Y-85907500D03*
X85240000Y-85907500D03*
X84840000Y-85907500D03*
X84440000Y-85907500D03*
X84040000Y-85907500D03*
X83640000Y-85907500D03*
X83240000Y-85907500D03*
D15*
X85840000Y-89345000D03*
%TD*%
D16*
%TO.C,J1*%
X82735000Y-74015000D03*
X82735000Y-76015000D03*
X82735000Y-78015000D03*
X82735000Y-80015000D03*
X82735000Y-81015000D03*
X82735000Y-79015000D03*
X82735000Y-77015000D03*
X82735000Y-75015000D03*
D17*
X82735000Y-73015000D03*
D18*
X85185000Y-71165000D03*
X85185000Y-82865000D03*
%TD*%
M02*
