%TF.GenerationSoftware,KiCad,Pcbnew,10.0.1*%
%TF.CreationDate,2026-10-01T15:00:17+03:00*%
%TF.ProjectId,hakkit_badusb,68616b6b-6974-45f6-9261-647573622e6b,rev?*%
%TF.SameCoordinates,Original*%
%TF.FileFunction,Copper,L1,Top*%
%TF.FilePolarity,Positive*%
%FSLAX46Y46*%
G04 Gerber Fmt 4.6, Leading zero omitted, Abs format (unit mm)*
G04 Created by KiCad (PCBNEW 10.0.1) date 2026-10-01 15:00:17*
%MOMM*%
%LPD*%
G01*
G04 APERTURE LIST*
G04 Aperture macros list*
%AMRoundRect*
0 Rectangle with rounded corners*
0 $1 Rounding radius*
0 $2 $3 $4 $5 $6 $7 $8 $9 X,Y pos of 4 corners*
0 Add a 4 corners polygon primitive as box body*
4,1,4,$2,$3,$4,$5,$6,$7,$8,$9,$2,$3,0*
0 Add four circle primitives for the rounded corners*
1,1,$1+$1,$2,$3*
1,1,$1+$1,$4,$5*
1,1,$1+$1,$6,$7*
1,1,$1+$1,$8,$9*
0 Add four rect primitives between the rounded corners*
20,1,$1+$1,$2,$3,$4,$5,0*
20,1,$1+$1,$4,$5,$6,$7,0*
20,1,$1+$1,$6,$7,$8,$9,0*
20,1,$1+$1,$8,$9,$2,$3,0*%
%AMRotRect*
0 Rectangle, with rotation*
0 The origin of the aperture is its center*
0 $1 length*
0 $2 width*
0 $3 Rotation angle, in degrees counterclockwise*
0 Add horizontal line*
21,1,$1,$2,0,0,$3*%
G04 Aperture macros list end*
%TA.AperFunction,SMDPad,CuDef*%
%ADD10RoundRect,0.050000X-0.238649X-0.309359X0.309359X0.238649X0.238649X0.309359X-0.309359X-0.238649X0*%
%TD*%
%TA.AperFunction,SMDPad,CuDef*%
%ADD11RoundRect,0.050000X0.238649X-0.309359X0.309359X-0.238649X-0.238649X0.309359X-0.309359X0.238649X0*%
%TD*%
%TA.AperFunction,HeatsinkPad*%
%ADD12RotRect,3.200000X3.200000X45.000000*%
%TD*%
%TA.AperFunction,SMDPad,CuDef*%
%ADD13R,1.000000X0.900000*%
%TD*%
%TA.AperFunction,SMDPad,CuDef*%
%ADD14RoundRect,0.225000X-0.225000X-0.250000X0.225000X-0.250000X0.225000X0.250000X-0.225000X0.250000X0*%
%TD*%
%TA.AperFunction,SMDPad,CuDef*%
%ADD15RoundRect,0.250000X-0.450000X-0.350000X0.450000X-0.350000X0.450000X0.350000X-0.450000X0.350000X0*%
%TD*%
%TA.AperFunction,SMDPad,CuDef*%
%ADD16RoundRect,0.162500X-0.650000X-0.162500X0.650000X-0.162500X0.650000X0.162500X-0.650000X0.162500X0*%
%TD*%
%TA.AperFunction,SMDPad,CuDef*%
%ADD17RoundRect,0.200000X0.275000X-0.200000X0.275000X0.200000X-0.275000X0.200000X-0.275000X-0.200000X0*%
%TD*%
%TA.AperFunction,SMDPad,CuDef*%
%ADD18RoundRect,0.090000X-0.660000X-0.360000X0.660000X-0.360000X0.660000X0.360000X-0.660000X0.360000X0*%
%TD*%
%TA.AperFunction,ComponentPad*%
%ADD19O,3.800000X1.400000*%
%TD*%
%TA.AperFunction,ViaPad*%
%ADD20C,0.600000*%
%TD*%
%TA.AperFunction,Conductor*%
%ADD21C,0.250000*%
%TD*%
%TA.AperFunction,Conductor*%
%ADD22C,0.150000*%
%TD*%
%TA.AperFunction,Conductor*%
%ADD23C,0.200000*%
%TD*%
G04 APERTURE END LIST*
D10*
%TO.P,U1,1,IOVDD_1*%
%TO.N,+3V3*%
X118572956Y-45795674D03*
%TO.P,U1,2,GPIO0_2*%
%TO.N,unconnected-(U1-GPIO0-Pad2)*%
X118855799Y-46078517D03*
%TO.P,U1,3,GPIO1_3*%
%TO.N,unconnected-(U1-GPIO1-Pad3)*%
X119138641Y-46361359D03*
%TO.P,U1,4,GPIO2_4*%
%TO.N,unconnected-(U1-GPIO2-Pad4)*%
X119421484Y-46644202D03*
%TO.P,U1,5,GPIO3_5*%
%TO.N,unconnected-(U1-GPIO3-Pad5)*%
X119704327Y-46927045D03*
%TO.P,U1,6,GPIO4_6*%
%TO.N,unconnected-(U1-GPIO4-Pad6)*%
X119987169Y-47209887D03*
%TO.P,U1,7,GPIO5_7*%
%TO.N,unconnected-(U1-GPIO5-Pad7)*%
X120270012Y-47492730D03*
%TO.P,U1,8,GPIO6_8*%
%TO.N,unconnected-(U1-GPIO6-Pad8)*%
X120552855Y-47775573D03*
%TO.P,U1,9,GPIO7_9*%
%TO.N,Net-(D2-DIN)*%
X120835698Y-48058416D03*
%TO.P,U1,10,IOVDD_10*%
%TO.N,+3V3*%
X121118540Y-48341258D03*
%TO.P,U1,11,GPIO8_11*%
%TO.N,unconnected-(U1-GPIO8-Pad11)*%
X121401383Y-48624101D03*
%TO.P,U1,12,GPIO9_12*%
%TO.N,unconnected-(U1-GPIO9-Pad12)*%
X121684226Y-48906944D03*
%TO.P,U1,13,GPIO10_13*%
%TO.N,unconnected-(U1-GPIO10-Pad13)*%
X121967068Y-49189786D03*
%TO.P,U1,14,GPIO11_14*%
%TO.N,unconnected-(U1-GPIO11-Pad14)*%
X122249911Y-49472629D03*
D11*
%TO.P,U1,15,GPIO12_15*%
%TO.N,unconnected-(U1-GPIO12-Pad15)*%
X123434315Y-49472629D03*
%TO.P,U1,16,GPIO13_16*%
%TO.N,unconnected-(U1-GPIO13-Pad16)*%
X123717158Y-49189786D03*
%TO.P,U1,17,GPIO14_17*%
%TO.N,unconnected-(U1-GPIO14-Pad17)*%
X124000000Y-48906944D03*
%TO.P,U1,18,GPIO15_18*%
%TO.N,unconnected-(U1-GPIO15-Pad18)*%
X124282843Y-48624101D03*
%TO.P,U1,19,TESTEN_19*%
%TO.N,GND*%
X124565686Y-48341258D03*
%TO.P,U1,20,XIN_20*%
%TO.N,Net-(U1-XIN)*%
X124848528Y-48058416D03*
%TO.P,U1,21,XOUT_21*%
%TO.N,Net-(U1-XOUT)*%
X125131371Y-47775573D03*
%TO.P,U1,22,IOVDD_22*%
%TO.N,+3V3*%
X125414214Y-47492730D03*
%TO.P,U1,23,DVDD_23*%
%TO.N,Net-(U1-VREG_VOUT)*%
X125697057Y-47209887D03*
%TO.P,U1,24,SWCLK_24*%
%TO.N,unconnected-(U1-SWCLK-Pad24)*%
X125979899Y-46927045D03*
%TO.P,U1,25,SWDIO_25*%
%TO.N,unconnected-(U1-SWDIO-Pad25)*%
X126262742Y-46644202D03*
%TO.P,U1,26,RUN_26*%
%TO.N,+3V3*%
X126545585Y-46361359D03*
%TO.P,U1,27,GPIO16_27*%
%TO.N,/SD_MISO*%
X126828427Y-46078517D03*
%TO.P,U1,28,GPIO17_28*%
%TO.N,/SD_CS*%
X127111270Y-45795674D03*
D10*
%TO.P,U1,29,GPIO18_29*%
%TO.N,/SD_SCK*%
X127111270Y-44611270D03*
%TO.P,U1,30,GPIO19_30*%
%TO.N,/SD_MOSI*%
X126828427Y-44328427D03*
%TO.P,U1,31,GPIO20_31*%
%TO.N,unconnected-(U1-GPIO20-Pad31)*%
X126545585Y-44045585D03*
%TO.P,U1,32,GPIO21_32*%
%TO.N,unconnected-(U1-GPIO21-Pad32)*%
X126262742Y-43762742D03*
%TO.P,U1,33,IOVDD_33*%
%TO.N,+3V3*%
X125979899Y-43479899D03*
%TO.P,U1,34,GPIO22_34*%
%TO.N,unconnected-(U1-GPIO22-Pad34)*%
X125697057Y-43197057D03*
%TO.P,U1,35,GPIO23_35*%
%TO.N,unconnected-(U1-GPIO23-Pad35)*%
X125414214Y-42914214D03*
%TO.P,U1,36,GPIO24_36*%
%TO.N,unconnected-(U1-GPIO24-Pad36)*%
X125131371Y-42631371D03*
%TO.P,U1,37,GPIO25_37*%
%TO.N,unconnected-(U1-GPIO25-Pad37)*%
X124848528Y-42348528D03*
%TO.P,U1,38,GPIO26/ADC0_38*%
%TO.N,unconnected-(U1-GPIO26{slash}ADC0-Pad38)*%
X124565686Y-42065686D03*
%TO.P,U1,39,GPIO27/ADC1_39*%
%TO.N,unconnected-(U1-GPIO27{slash}ADC1-Pad39)*%
X124282843Y-41782843D03*
%TO.P,U1,40,GPIO28/ADC2_40*%
%TO.N,unconnected-(U1-GPIO28{slash}ADC2-Pad40)*%
X124000000Y-41500000D03*
%TO.P,U1,41,GPIO29/ADC3_41*%
%TO.N,unconnected-(U1-GPIO29{slash}ADC3-Pad41)*%
X123717158Y-41217158D03*
%TO.P,U1,42,IOVDD_42*%
%TO.N,+3V3*%
X123434315Y-40934315D03*
D11*
%TO.P,U1,43,ADC_AVDD_43*%
X122249911Y-40934315D03*
%TO.P,U1,44,VREG_VIN_44*%
X121967068Y-41217158D03*
%TO.P,U1,45,VREG_VOUT_45*%
%TO.N,Net-(U1-VREG_VOUT)*%
X121684226Y-41500000D03*
%TO.P,U1,46,USB_DM_46*%
%TO.N,Net-(U1-USB_DM)*%
X121401383Y-41782843D03*
%TO.P,U1,47,USB_DP_47*%
%TO.N,Net-(U1-USB_DP)*%
X121118540Y-42065686D03*
%TO.P,U1,48,USB_VDD_48*%
%TO.N,+3V3*%
X120835698Y-42348528D03*
%TO.P,U1,49,IOVDD_49*%
X120552855Y-42631371D03*
%TO.P,U1,50,DVDD_50*%
%TO.N,Net-(U1-VREG_VOUT)*%
X120270012Y-42914214D03*
%TO.P,U1,51,QSPI_SD3_51*%
%TO.N,Net-(U1-QSPI_SD3)*%
X119987169Y-43197057D03*
%TO.P,U1,52,QSPI_SCLK_52*%
%TO.N,Net-(U1-QSPI_SCLK)*%
X119704327Y-43479899D03*
%TO.P,U1,53,QSPI_SD0_53*%
%TO.N,Net-(U1-QSPI_SD0)*%
X119421484Y-43762742D03*
%TO.P,U1,54,QSPI_SD2_54*%
%TO.N,Net-(U1-QSPI_SD2)*%
X119138641Y-44045585D03*
%TO.P,U1,55,QSPI_SD1_55*%
%TO.N,Net-(U1-QSPI_SD1)*%
X118855799Y-44328427D03*
%TO.P,U1,56,~{QSPI_SS}_56*%
%TO.N,Net-(U1-~{QSPI_SS})*%
X118572956Y-44611270D03*
D12*
%TO.P,U1,57,GND_57*%
%TO.N,GND*%
X122842113Y-45203472D03*
%TD*%
D13*
%TO.P,SW1,1,1_1*%
%TO.N,GND*%
X106560000Y-51220000D03*
X106560000Y-47120000D03*
%TO.P,SW1,2,2_2*%
%TO.N,Net-(U1-~{QSPI_SS})*%
X108160000Y-51220000D03*
X108160000Y-47120000D03*
%TD*%
D14*
%TO.P,C6,1*%
%TO.N,Net-(U1-XIN)*%
X129950000Y-49500000D03*
%TO.P,C6,2*%
%TO.N,GND*%
X131500000Y-49500000D03*
%TD*%
D15*
%TO.P,Y2,1,1_1*%
%TO.N,Net-(U1-XOUT)*%
X129620000Y-45700000D03*
%TO.P,Y2,2,G_2*%
%TO.N,GND*%
X131820000Y-45700000D03*
%TO.P,Y2,3,3_3*%
%TO.N,Net-(U1-XIN)*%
X131820000Y-44000000D03*
%TO.P,Y2,4,G_4*%
%TO.N,GND*%
X129620000Y-44000000D03*
%TD*%
D14*
%TO.P,C5,1*%
%TO.N,Net-(U1-XOUT)*%
X129950000Y-41000000D03*
%TO.P,C5,2*%
%TO.N,GND*%
X131500000Y-41000000D03*
%TD*%
D16*
%TO.P,U4,1,~{CS}_1*%
%TO.N,Net-(U1-~{QSPI_SS})*%
X109012500Y-40495000D03*
%TO.P,U4,2,DO/IO_{1}_2*%
%TO.N,Net-(U1-QSPI_SD1)*%
X109012500Y-41765000D03*
%TO.P,U4,3,~{WP}/IO_{2}_3*%
%TO.N,Net-(U1-QSPI_SD2)*%
X109012500Y-43035000D03*
%TO.P,U4,4,GND_4*%
%TO.N,GND*%
X109012500Y-44305000D03*
%TO.P,U4,5,DI/IO_{0}_5*%
%TO.N,Net-(U1-QSPI_SD0)*%
X116187500Y-44305000D03*
%TO.P,U4,6,CLK_6*%
%TO.N,Net-(U1-QSPI_SCLK)*%
X116187500Y-43035000D03*
%TO.P,U4,7,~{HOLD}/~{RESET}/IO_{3}_7*%
%TO.N,Net-(U1-QSPI_SD3)*%
X116187500Y-41765000D03*
%TO.P,U4,8,VCC_8*%
%TO.N,+3V3*%
X116187500Y-40495000D03*
%TD*%
D17*
%TO.P,R2,1*%
%TO.N,+3V3*%
X110000000Y-48825000D03*
%TO.P,R2,2*%
%TO.N,Net-(U1-~{QSPI_SS})*%
X110000000Y-47175000D03*
%TD*%
D18*
%TO.P,D2,1,VDD_1*%
%TO.N,+3V3*%
X112610000Y-48000000D03*
%TO.P,D2,2,DOUT_2*%
%TO.N,unconnected-(D2-DOUT-Pad2)*%
X112610000Y-51300000D03*
%TO.P,D2,3,VSS_3*%
%TO.N,GND*%
X117510000Y-51300000D03*
%TO.P,D2,4,DIN_4*%
%TO.N,Net-(D2-DIN)*%
X117510000Y-48000000D03*
%TD*%
D19*
%TO.P,J3,SH,Shield_SH*%
%TO.N,Net-(J3-Shield)*%
X138000000Y-40150000D03*
X138000000Y-51850000D03*
%TD*%
D20*
%TO.N,+3V3*%
X111000000Y-50000000D03*
X119030000Y-40595000D03*
X126000000Y-50500000D03*
X117498700Y-46498700D03*
X111420000Y-48200000D03*
X124710000Y-40581819D03*
%TO.N,GND*%
X120760000Y-52660000D03*
X111400000Y-41000000D03*
X129000000Y-39000000D03*
X120290000Y-39200000D03*
%TO.N,/SD_MISO*%
X125250000Y-41390000D03*
%TO.N,/SD_CS*%
X126393893Y-40707067D03*
%TO.N,/SD_SCK*%
X126500000Y-41500000D03*
%TO.N,/SD_MOSI*%
X126500000Y-42500000D03*
%TO.N,Net-(U1-USB_DM)*%
X134000000Y-49780000D03*
X123790000Y-39940000D03*
X132780000Y-42890000D03*
X128980000Y-41900000D03*
%TO.N,Net-(U1-USB_DP)*%
X129000000Y-41068068D03*
%TD*%
%TO.N,+3V3*%
D21*
X112610000Y-48000000D02*
X111000000Y-49610000D01*
D22*
X125627402Y-43832396D02*
X125627402Y-43960000D01*
X122249911Y-40934315D02*
X123434315Y-40934315D01*
X124710000Y-40581819D02*
X124748181Y-40581819D01*
X119082170Y-40595000D02*
X120835698Y-42348528D01*
X126545585Y-46361359D02*
X126193088Y-46008862D01*
X123434315Y-40934315D02*
X123786811Y-40581819D01*
X118572956Y-45795674D02*
X118925452Y-45443178D01*
X125627402Y-43832396D02*
X125979899Y-43479899D01*
X126933434Y-47066566D02*
X126933434Y-46749208D01*
D21*
X110620000Y-49000000D02*
X110175000Y-49000000D01*
D22*
X121471037Y-47686127D02*
X121471037Y-47988761D01*
X123786811Y-40581819D02*
X124710000Y-40581819D01*
X125324768Y-43832396D02*
X125520000Y-43832396D01*
D21*
X111000000Y-49610000D02*
X111000000Y-50000000D01*
D22*
X117870000Y-46090000D02*
X118278630Y-46090000D01*
X123081819Y-41589447D02*
X125324768Y-43832396D01*
X121967068Y-41217158D02*
X122249911Y-40934315D01*
X126933434Y-46749208D02*
X126193088Y-46008862D01*
X116587500Y-40595000D02*
X119030000Y-40595000D01*
X117498700Y-46498700D02*
X117498700Y-46461300D01*
X123434315Y-40934315D02*
X123081819Y-41286811D01*
X125414214Y-47492730D02*
X125766710Y-47845226D01*
X125596186Y-44103814D02*
X125324768Y-43832396D01*
X126154774Y-47845226D02*
X126933434Y-47066566D01*
X126193088Y-44700716D02*
X125596186Y-44103814D01*
X118925452Y-45443178D02*
X119228088Y-45443178D01*
X123081819Y-41286811D02*
X123081819Y-41589447D01*
X125766710Y-47845226D02*
X126154774Y-47845226D01*
X117498700Y-46461300D02*
X117870000Y-46090000D01*
X125627402Y-44072598D02*
X125596186Y-44103814D01*
D21*
X110175000Y-49000000D02*
X110000000Y-48825000D01*
D22*
X125520000Y-43832396D02*
X125627402Y-43832396D01*
X119030000Y-40595000D02*
X119082170Y-40595000D01*
X125627402Y-43960000D02*
X125627402Y-43939798D01*
X125627402Y-43939798D02*
X125520000Y-43832396D01*
X119228088Y-45443178D02*
X121471037Y-47686127D01*
D21*
X111420000Y-48200000D02*
X110620000Y-49000000D01*
D22*
X121471037Y-47988761D02*
X121118540Y-48341258D01*
X120552855Y-42631371D02*
X120835698Y-42348528D01*
X118278630Y-46090000D02*
X118572956Y-45795674D01*
X126193088Y-46008862D02*
X126193088Y-44700716D01*
X125627402Y-43960000D02*
X125627402Y-44072598D01*
%TO.N,Net-(D2-DIN)*%
D23*
X117945912Y-48435912D02*
X120458204Y-48435912D01*
X117510000Y-48000000D02*
X117945912Y-48435912D01*
X120835698Y-48058416D02*
X120835698Y-48058418D01*
X120835698Y-48058418D02*
X120458204Y-48435912D01*
%TO.N,GND*%
D22*
X122842113Y-46617685D02*
X122842113Y-45203472D01*
X129620000Y-44000000D02*
X130120000Y-44000000D01*
X130120000Y-44000000D02*
X131820000Y-45700000D01*
X124565686Y-48341258D02*
X122842113Y-46617685D01*
X124918182Y-50418182D02*
X125000000Y-50500000D01*
X124918182Y-48693754D02*
X124918182Y-50418182D01*
X124565686Y-48341258D02*
X124918182Y-48693754D01*
%TO.N,Net-(U1-XIN)*%
X125550824Y-48690000D02*
X126299948Y-48690000D01*
X125271736Y-48410912D02*
X125550824Y-48690000D01*
X131820000Y-44000000D02*
X132795000Y-44975000D01*
X124848528Y-48058416D02*
X124866205Y-48040739D01*
X130299998Y-47000000D02*
X130500000Y-47000000D01*
D23*
X130500000Y-47000000D02*
X130500000Y-47200002D01*
X130500000Y-46760000D02*
X130390000Y-46870000D01*
D22*
X130500000Y-47200002D02*
X130500000Y-48950000D01*
X124866205Y-48040739D02*
X125236378Y-48410912D01*
X132795000Y-44975000D02*
X132795000Y-46274390D01*
D23*
X131500000Y-44000000D02*
X131500000Y-44030330D01*
X130390000Y-46870000D02*
X130260000Y-47000000D01*
D22*
X132795000Y-46274390D02*
X132199390Y-46870000D01*
X132199390Y-46870000D02*
X130390000Y-46870000D01*
X126299948Y-48690000D02*
X127989948Y-47000000D01*
X125236378Y-48410912D02*
X125271736Y-48410912D01*
X130299998Y-47000000D02*
X130500000Y-47200002D01*
X130260000Y-47000000D02*
X130299998Y-47000000D01*
X127989948Y-47000000D02*
X130260000Y-47000000D01*
D23*
X130500000Y-46760000D02*
X130500000Y-47000000D01*
D22*
X130500000Y-48950000D02*
X129950000Y-49500000D01*
%TO.N,Net-(U1-XOUT)*%
X129950000Y-42950000D02*
X129950000Y-42890000D01*
X128640000Y-43350000D02*
X128640000Y-44720000D01*
X128670000Y-46650000D02*
X129620000Y-45700000D01*
X127844974Y-46650000D02*
X128670000Y-46650000D01*
X125131371Y-47775573D02*
X125695798Y-48340000D01*
X125695798Y-48340000D02*
X126154974Y-48340000D01*
X129950000Y-42890000D02*
X129100000Y-42890000D01*
X129100000Y-42890000D02*
X128640000Y-43350000D01*
X129950000Y-42890000D02*
X129950000Y-41000000D01*
X128640000Y-44720000D02*
X129620000Y-45700000D01*
X126154974Y-48340000D02*
X127844974Y-46650000D01*
%TO.N,Net-(U1-VREG_VOUT)*%
X122036722Y-42155132D02*
X122150000Y-42041854D01*
X125697057Y-47209887D02*
X125344560Y-46857390D01*
X125344560Y-46345440D02*
X125770000Y-45920000D01*
X122339357Y-41852497D02*
X122150000Y-41852497D01*
X120270012Y-42914214D02*
X120622508Y-43266710D01*
X122361854Y-41830000D02*
X122339357Y-41852497D01*
X122036722Y-42155132D02*
X122036722Y-41887850D01*
X125770000Y-44880000D02*
X122720000Y-41830000D01*
X122150000Y-42041854D02*
X122339357Y-41852497D01*
X121719436Y-41535210D02*
X121684226Y-41500000D01*
X121790927Y-41606701D02*
X121790927Y-41642055D01*
X121790927Y-42400927D02*
X122036722Y-42155132D01*
X122720000Y-41830000D02*
X122361854Y-41830000D01*
X122150000Y-41852497D02*
X122072075Y-41852497D01*
X120925144Y-43266710D02*
X121790927Y-42400927D01*
X121684226Y-41500000D02*
X121790927Y-41606701D01*
X122072075Y-41852497D02*
X121719578Y-41500000D01*
X125344560Y-46857390D02*
X125344560Y-46345440D01*
X120622508Y-43266710D02*
X120925144Y-43266710D01*
X122036722Y-41887850D02*
X121719436Y-41570564D01*
X125770000Y-45920000D02*
X125770000Y-44880000D01*
X121790927Y-41642055D02*
X122036722Y-41887850D01*
X121719578Y-41500000D02*
X121684226Y-41500000D01*
X122150000Y-42041854D02*
X122150000Y-41852497D01*
X121719436Y-41570564D02*
X121719436Y-41535210D01*
%TO.N,/SD_MISO*%
X125810000Y-40830000D02*
X125250000Y-41390000D01*
X128160000Y-41660000D02*
X127890000Y-41390000D01*
X126155720Y-40132067D02*
X125818893Y-40468894D01*
X127483559Y-46431013D02*
X128230924Y-45683648D01*
X126632066Y-40132067D02*
X126155720Y-40132067D01*
X125790000Y-40850000D02*
X125250000Y-41390000D01*
X125818893Y-40468894D02*
X125818893Y-40591107D01*
X125818893Y-40591107D02*
X125810000Y-40600000D01*
X128160000Y-41665025D02*
X128160000Y-41660000D01*
X126828427Y-46078517D02*
X127180923Y-46431013D01*
X127890000Y-41390000D02*
X127884974Y-41390000D01*
X127884974Y-41390000D02*
X126968893Y-40473918D01*
X125810000Y-40600000D02*
X125810000Y-40830000D01*
X128230924Y-41735949D02*
X128160000Y-41665025D01*
X126968893Y-40473918D02*
X126968893Y-40468894D01*
X127180923Y-46431013D02*
X127483559Y-46431013D01*
X128230924Y-45683648D02*
X128230924Y-41735949D01*
X126968893Y-40468894D02*
X126632066Y-40132067D01*
%TO.N,/SD_CS*%
X126707067Y-40707067D02*
X127880924Y-41880924D01*
X127880924Y-41880924D02*
X127880924Y-45538674D01*
X127623924Y-45795674D02*
X127111270Y-45795674D01*
X127880924Y-45538674D02*
X127623924Y-45795674D01*
X126393893Y-40707067D02*
X126707067Y-40707067D01*
%TO.N,/SD_SCK*%
X127530924Y-42530924D02*
X126500000Y-41500000D01*
X127530924Y-44191616D02*
X127530924Y-42530924D01*
X127111270Y-44611270D02*
X127530924Y-44191616D01*
%TO.N,/SD_MOSI*%
X127180924Y-43180924D02*
X126500000Y-42500000D01*
X126828427Y-44328427D02*
X127180924Y-43975930D01*
X127180924Y-43975930D02*
X127180924Y-43180924D01*
%TO.N,Net-(U1-USB_DM)*%
X123790000Y-39940000D02*
X123947933Y-39782067D01*
X127894974Y-40900000D02*
X127980000Y-40900000D01*
X121048887Y-41071113D02*
X122180000Y-39940000D01*
X126777041Y-39782067D02*
X127894974Y-40900000D01*
X134000000Y-49780000D02*
X134000000Y-44110000D01*
X121401383Y-41782843D02*
X121048887Y-41430347D01*
X127980000Y-40900000D02*
X128980000Y-41900000D01*
X122180000Y-39940000D02*
X123790000Y-39940000D01*
X121048887Y-41430347D02*
X121048887Y-41071113D01*
X123947933Y-39782067D02*
X126777041Y-39782067D01*
X134000000Y-44110000D02*
X132780000Y-42890000D01*
%TO.N,Net-(U1-USB_DP)*%
X124095240Y-39432067D02*
X126922015Y-39432067D01*
X129000000Y-41068068D02*
X128878068Y-41190000D01*
X123326827Y-39590000D02*
X123551827Y-39365000D01*
X121118540Y-42065686D02*
X120580000Y-41527146D01*
X128124974Y-40550000D02*
X128687487Y-41112513D01*
X124028173Y-39365000D02*
X124095240Y-39432067D01*
X120625026Y-41000000D02*
X122035025Y-39590000D01*
X128830000Y-40970000D02*
X128901932Y-40970000D01*
X128039948Y-40550000D02*
X128124974Y-40550000D01*
X123551827Y-39365000D02*
X124028173Y-39365000D01*
X126922015Y-39432067D02*
X128039948Y-40550000D01*
X128901932Y-40970000D02*
X129000000Y-41068068D01*
X128687487Y-41112513D02*
X128830000Y-40970000D01*
X122035025Y-39590000D02*
X123326827Y-39590000D01*
X120580000Y-41527146D02*
X120580000Y-41045026D01*
X120580000Y-41045026D02*
X120625026Y-41000000D01*
%TO.N,Net-(U1-QSPI_SD3)*%
X116587500Y-41865000D02*
X118655112Y-41865000D01*
X118655112Y-41865000D02*
X119987169Y-43197057D01*
%TO.N,Net-(U1-QSPI_SCLK)*%
X116922500Y-42800000D02*
X116587500Y-43135000D01*
X119704327Y-43479899D02*
X119024428Y-42800000D01*
X119024428Y-42800000D02*
X116922500Y-42800000D01*
%TO.N,Net-(U1-QSPI_SD0)*%
X118008222Y-43150000D02*
X116753222Y-44405000D01*
X119421484Y-43762742D02*
X118808742Y-43150000D01*
X118808742Y-43150000D02*
X118008222Y-43150000D01*
X116753222Y-44405000D02*
X116587500Y-44405000D01*
%TO.N,Net-(U1-QSPI_SD2)*%
X118715434Y-43693088D02*
X118750792Y-43693088D01*
X111444974Y-46475000D02*
X115719278Y-46475000D01*
X107925000Y-45630026D02*
X108339974Y-46045000D01*
X109012500Y-43035000D02*
X108846778Y-43035000D01*
X117539626Y-44654652D02*
X117539626Y-44130399D01*
X119120965Y-44063261D02*
X119138641Y-44045585D01*
X115719278Y-46475000D02*
X117539626Y-44654652D01*
X118044095Y-43625931D02*
X118648277Y-43625931D01*
X108339974Y-46045000D02*
X111014975Y-46045000D01*
X107925000Y-43956778D02*
X107925000Y-45630026D01*
X108846778Y-43035000D02*
X107925000Y-43956778D01*
X111014975Y-46045000D02*
X111444974Y-46475000D01*
X117539626Y-44130399D02*
X118044095Y-43625931D01*
X118750792Y-43693088D02*
X119120965Y-44063261D01*
X118648277Y-43625931D02*
X118715434Y-43693088D01*
%TO.N,Net-(U1-QSPI_SD1)*%
X117889626Y-44275374D02*
X117889626Y-44799626D01*
X108195000Y-46395000D02*
X107575000Y-45775000D01*
X118503303Y-43975931D02*
X118189069Y-43975931D01*
X107575000Y-43036778D02*
X108846778Y-41765000D01*
X118855799Y-44328427D02*
X118503303Y-43975931D01*
X107575000Y-45775000D02*
X107575000Y-43036778D01*
X110870000Y-46395000D02*
X108195000Y-46395000D01*
X115864252Y-46825000D02*
X111300000Y-46825000D01*
X117889626Y-44799626D02*
X115864252Y-46825000D01*
X111300000Y-46825000D02*
X110870000Y-46395000D01*
X108846778Y-41765000D02*
X109012500Y-41765000D01*
X118189069Y-43975931D02*
X117889626Y-44275374D01*
%TO.N,Net-(U1-~{QSPI_SS})*%
X116009226Y-47175000D02*
X110000000Y-47175000D01*
X107830000Y-40865001D02*
X107830000Y-42286804D01*
D23*
X108160000Y-47120000D02*
X108425025Y-47120000D01*
D22*
X118572956Y-44611270D02*
X116009226Y-47175000D01*
X108425025Y-47120000D02*
X108870000Y-47120000D01*
X108200001Y-40495000D02*
X107830000Y-40865001D01*
D23*
X108160000Y-47120000D02*
X108160000Y-51220000D01*
X108425025Y-47120000D02*
X109945000Y-47120000D01*
D22*
X107225000Y-42891804D02*
X107225000Y-45919975D01*
X109012500Y-40495000D02*
X108200001Y-40495000D01*
D23*
X109945000Y-47120000D02*
X110000000Y-47175000D01*
D22*
X107225000Y-45919975D02*
X108425025Y-47120000D01*
D23*
X107965000Y-47045000D02*
X108305000Y-47045000D01*
D22*
X107830000Y-42286804D02*
X107225000Y-42891804D01*
%TD*%
%TA.AperFunction,Conductor*%
%TO.N,GND*%
G36*
X122584261Y-42523987D02*
G01*
X122628608Y-42552488D01*
X125158181Y-45082061D01*
X125191666Y-45143384D01*
X125194500Y-45169742D01*
X125194500Y-45630258D01*
X125174815Y-45697297D01*
X125158181Y-45717939D01*
X124884047Y-45992072D01*
X124884045Y-45992075D01*
X124808279Y-46123303D01*
X124769060Y-46269674D01*
X124769060Y-46759989D01*
X124761565Y-46785512D01*
X124757702Y-46811833D01*
X124751019Y-46821426D01*
X124749375Y-46827028D01*
X124738533Y-46841468D01*
X124735740Y-46844671D01*
X124685115Y-46895297D01*
X124630074Y-46965361D01*
X124629613Y-46966420D01*
X124623765Y-46973130D01*
X124621441Y-46974613D01*
X124606895Y-46989160D01*
X124533930Y-47046480D01*
X124402278Y-47178132D01*
X124344958Y-47251097D01*
X124324052Y-47272003D01*
X124251087Y-47329323D01*
X124119436Y-47460974D01*
X124064387Y-47531048D01*
X124064384Y-47531052D01*
X124004100Y-47669843D01*
X124004096Y-47669858D01*
X124003629Y-47673255D01*
X124002341Y-47676121D01*
X124001810Y-47678017D01*
X124001525Y-47677937D01*
X123974994Y-47736987D01*
X123916448Y-47775120D01*
X123897682Y-47779202D01*
X123894285Y-47779669D01*
X123894270Y-47779673D01*
X123755479Y-47839957D01*
X123755475Y-47839960D01*
X123685401Y-47895009D01*
X123553750Y-48026660D01*
X123496430Y-48099625D01*
X123475524Y-48120531D01*
X123402559Y-48177851D01*
X123270907Y-48309503D01*
X123213587Y-48382467D01*
X123192681Y-48403373D01*
X123119717Y-48460693D01*
X122988065Y-48592345D01*
X122939622Y-48654010D01*
X122882728Y-48694567D01*
X122812939Y-48697926D01*
X122752413Y-48663022D01*
X122744604Y-48654010D01*
X122727630Y-48632404D01*
X122696167Y-48592353D01*
X122696163Y-48592349D01*
X122696160Y-48592345D01*
X122564508Y-48460693D01*
X122564503Y-48460689D01*
X122564501Y-48460687D01*
X122494437Y-48405646D01*
X122491544Y-48403373D01*
X122470638Y-48382466D01*
X122413323Y-48309508D01*
X122281666Y-48177851D01*
X122281661Y-48177847D01*
X122281659Y-48177845D01*
X122249765Y-48152790D01*
X122208700Y-48120529D01*
X122191830Y-48104499D01*
X122185983Y-48097791D01*
X122185523Y-48096732D01*
X122130482Y-48026668D01*
X122079856Y-47976042D01*
X122077064Y-47972839D01*
X122064159Y-47944801D01*
X122049371Y-47917718D01*
X122048662Y-47911130D01*
X122047852Y-47909369D01*
X122048204Y-47906866D01*
X122046537Y-47891360D01*
X122046537Y-47610363D01*
X122046537Y-47610361D01*
X122007318Y-47463992D01*
X121931552Y-47332762D01*
X121824402Y-47225612D01*
X120740900Y-46142110D01*
X119636173Y-45037382D01*
X119635454Y-45036067D01*
X119634156Y-45035318D01*
X119618755Y-45005484D01*
X119602688Y-44976059D01*
X119602794Y-44974565D01*
X119602107Y-44973233D01*
X119605278Y-44939829D01*
X119607672Y-44906367D01*
X119608616Y-44904684D01*
X119608712Y-44903676D01*
X119626338Y-44873108D01*
X119639939Y-44855796D01*
X119639941Y-44855790D01*
X119642208Y-44852905D01*
X119663119Y-44831994D01*
X119666004Y-44829727D01*
X119666010Y-44829725D01*
X119736074Y-44774684D01*
X119867740Y-44643018D01*
X119922781Y-44572954D01*
X119922782Y-44572951D01*
X119925052Y-44570062D01*
X119945961Y-44549153D01*
X119948850Y-44546883D01*
X119948853Y-44546882D01*
X120018917Y-44491841D01*
X120150583Y-44360175D01*
X120205624Y-44290111D01*
X120205625Y-44290108D01*
X120207895Y-44287219D01*
X120228804Y-44266310D01*
X120231693Y-44264040D01*
X120231696Y-44264039D01*
X120301760Y-44208998D01*
X120433426Y-44077332D01*
X120488467Y-44007268D01*
X120488469Y-44007262D01*
X120490736Y-44004377D01*
X120506769Y-43987504D01*
X120513474Y-43981658D01*
X120514538Y-43981197D01*
X120584602Y-43926156D01*
X120635229Y-43875528D01*
X120638432Y-43872737D01*
X120666461Y-43859836D01*
X120693551Y-43845044D01*
X120700141Y-43844335D01*
X120701902Y-43843525D01*
X120704403Y-43843877D01*
X120719910Y-43842210D01*
X121000908Y-43842210D01*
X121000910Y-43842210D01*
X121147279Y-43802991D01*
X121278509Y-43727225D01*
X122251442Y-42754292D01*
X122453246Y-42552488D01*
X122514569Y-42519003D01*
X122584261Y-42523987D01*
G37*
%TD.AperFunction*%
%TA.AperFunction,Conductor*%
G36*
X130910769Y-44971811D02*
G01*
X130938133Y-44971305D01*
X130948834Y-44975954D01*
X130953010Y-44976409D01*
X130970494Y-44985364D01*
X131050666Y-45034814D01*
X131217203Y-45089999D01*
X131319991Y-45100500D01*
X132055256Y-45100499D01*
X132084699Y-45109144D01*
X132114682Y-45115666D01*
X132119696Y-45119420D01*
X132122295Y-45120183D01*
X132142936Y-45136817D01*
X132183180Y-45177060D01*
X132216666Y-45238382D01*
X132219500Y-45264742D01*
X132219500Y-45984648D01*
X132199815Y-46051687D01*
X132183181Y-46072329D01*
X131997329Y-46258181D01*
X131936006Y-46291666D01*
X131909648Y-46294500D01*
X130937944Y-46294500D01*
X130870905Y-46274815D01*
X130825150Y-46222011D01*
X130814586Y-46157897D01*
X130820499Y-46100016D01*
X130820500Y-46100009D01*
X130820499Y-45299992D01*
X130814205Y-45238382D01*
X130809999Y-45197203D01*
X130809998Y-45197200D01*
X130787701Y-45129912D01*
X130786759Y-45102554D01*
X130782363Y-45075536D01*
X130785576Y-45068141D01*
X130785299Y-45060084D01*
X130799297Y-45036561D01*
X130810207Y-45011454D01*
X130816907Y-45006970D01*
X130821031Y-45000042D01*
X130845526Y-44987820D01*
X130868276Y-44972598D01*
X130876335Y-44972448D01*
X130883551Y-44968849D01*
X130910769Y-44971811D01*
G37*
%TD.AperFunction*%
%TA.AperFunction,Conductor*%
G36*
X139004418Y-38000816D02*
G01*
X139204561Y-38015130D01*
X139222063Y-38017647D01*
X139413795Y-38059355D01*
X139430760Y-38064336D01*
X139614611Y-38132909D01*
X139630694Y-38140253D01*
X139747495Y-38204032D01*
X139802908Y-38234290D01*
X139817791Y-38243855D01*
X139974864Y-38361438D01*
X139988235Y-38373024D01*
X140126975Y-38511764D01*
X140138561Y-38525135D01*
X140256144Y-38682208D01*
X140265709Y-38697091D01*
X140359743Y-38869300D01*
X140367093Y-38885394D01*
X140435661Y-39069234D01*
X140440645Y-39086209D01*
X140482351Y-39277931D01*
X140484869Y-39295442D01*
X140499184Y-39495580D01*
X140499500Y-39504427D01*
X140499500Y-39539585D01*
X140479815Y-39606624D01*
X140427011Y-39652379D01*
X140357853Y-39662323D01*
X140294297Y-39633298D01*
X140265015Y-39595880D01*
X140226759Y-39520800D01*
X140115690Y-39367927D01*
X139982073Y-39234310D01*
X139829199Y-39123240D01*
X139660836Y-39037454D01*
X139481118Y-38979059D01*
X139294486Y-38949500D01*
X139294481Y-38949500D01*
X136705519Y-38949500D01*
X136705514Y-38949500D01*
X136518881Y-38979059D01*
X136339163Y-39037454D01*
X136170800Y-39123240D01*
X136083579Y-39186610D01*
X136017927Y-39234310D01*
X136017925Y-39234312D01*
X136017924Y-39234312D01*
X135884312Y-39367924D01*
X135884312Y-39367925D01*
X135884310Y-39367927D01*
X135836610Y-39433579D01*
X135773240Y-39520800D01*
X135687454Y-39689163D01*
X135629059Y-39868881D01*
X135599500Y-40055513D01*
X135599500Y-40244486D01*
X135629059Y-40431118D01*
X135687454Y-40610836D01*
X135772575Y-40777893D01*
X135773240Y-40779199D01*
X135884310Y-40932073D01*
X136017927Y-41065690D01*
X136170801Y-41176760D01*
X136204931Y-41194150D01*
X136339163Y-41262545D01*
X136339165Y-41262545D01*
X136339168Y-41262547D01*
X136422120Y-41289500D01*
X136518881Y-41320940D01*
X136705514Y-41350500D01*
X136705519Y-41350500D01*
X139294486Y-41350500D01*
X139481118Y-41320940D01*
X139660832Y-41262547D01*
X139829199Y-41176760D01*
X139982073Y-41065690D01*
X140115690Y-40932073D01*
X140226760Y-40779199D01*
X140265015Y-40704118D01*
X140312990Y-40653323D01*
X140380810Y-40636528D01*
X140446945Y-40659065D01*
X140490397Y-40713780D01*
X140499500Y-40760414D01*
X140499500Y-51239585D01*
X140479815Y-51306624D01*
X140427011Y-51352379D01*
X140357853Y-51362323D01*
X140294297Y-51333298D01*
X140265015Y-51295880D01*
X140226759Y-51220800D01*
X140218469Y-51209390D01*
X140115690Y-51067927D01*
X139982073Y-50934310D01*
X139829199Y-50823240D01*
X139829160Y-50823220D01*
X139660836Y-50737454D01*
X139481118Y-50679059D01*
X139294486Y-50649500D01*
X139294481Y-50649500D01*
X136705519Y-50649500D01*
X136705514Y-50649500D01*
X136518881Y-50679059D01*
X136339163Y-50737454D01*
X136170800Y-50823240D01*
X136093808Y-50879179D01*
X136017927Y-50934310D01*
X136017925Y-50934312D01*
X136017924Y-50934312D01*
X135884312Y-51067924D01*
X135884312Y-51067925D01*
X135884310Y-51067927D01*
X135845179Y-51121786D01*
X135773240Y-51220800D01*
X135687454Y-51389163D01*
X135629059Y-51568881D01*
X135599500Y-51755513D01*
X135599500Y-51944486D01*
X135629059Y-52131118D01*
X135687454Y-52310836D01*
X135759153Y-52451551D01*
X135773240Y-52479199D01*
X135884310Y-52632073D01*
X136017927Y-52765690D01*
X136170801Y-52876760D01*
X136250347Y-52917290D01*
X136339163Y-52962545D01*
X136339165Y-52962545D01*
X136339168Y-52962547D01*
X136398927Y-52981964D01*
X136518881Y-53020940D01*
X136705514Y-53050500D01*
X136705519Y-53050500D01*
X139294486Y-53050500D01*
X139481118Y-53020940D01*
X139660832Y-52962547D01*
X139829199Y-52876760D01*
X139982073Y-52765690D01*
X140001410Y-52746352D01*
X140024600Y-52733688D01*
X140045757Y-52717851D01*
X140054785Y-52717205D01*
X140062730Y-52712867D01*
X140089092Y-52714751D01*
X140115449Y-52712867D01*
X140123392Y-52717204D01*
X140132422Y-52717850D01*
X140153580Y-52733688D01*
X140176772Y-52746352D01*
X140181109Y-52754295D01*
X140188356Y-52759720D01*
X140197592Y-52784481D01*
X140210257Y-52807675D01*
X140209611Y-52816702D01*
X140212775Y-52825184D01*
X140207158Y-52851005D01*
X140205273Y-52877367D01*
X140198875Y-52889082D01*
X140197924Y-52893457D01*
X140188358Y-52908343D01*
X140138561Y-52974864D01*
X140126975Y-52988235D01*
X139988235Y-53126975D01*
X139974864Y-53138561D01*
X139817791Y-53256144D01*
X139802908Y-53265709D01*
X139630699Y-53359743D01*
X139614605Y-53367093D01*
X139430765Y-53435661D01*
X139413790Y-53440645D01*
X139222068Y-53482351D01*
X139204557Y-53484869D01*
X139023779Y-53497799D01*
X139004417Y-53499184D01*
X138995572Y-53499500D01*
X123870551Y-53499500D01*
X123803512Y-53479815D01*
X123757757Y-53427011D01*
X123747813Y-53357853D01*
X123776838Y-53294297D01*
X123797662Y-53275184D01*
X123977510Y-53144517D01*
X124144517Y-52977510D01*
X124283343Y-52786433D01*
X124390568Y-52575992D01*
X124463553Y-52351368D01*
X124481936Y-52235301D01*
X124500500Y-52118097D01*
X124500500Y-51881902D01*
X124463553Y-51648631D01*
X124390566Y-51424003D01*
X124330758Y-51306624D01*
X124283343Y-51213567D01*
X124144517Y-51022490D01*
X123977510Y-50855483D01*
X123786433Y-50716657D01*
X123575996Y-50609433D01*
X123351368Y-50536446D01*
X123118097Y-50499500D01*
X123118092Y-50499500D01*
X122881908Y-50499500D01*
X122881903Y-50499500D01*
X122648631Y-50536446D01*
X122424003Y-50609433D01*
X122213566Y-50716657D01*
X122140509Y-50769737D01*
X122022490Y-50855483D01*
X122022488Y-50855485D01*
X122022487Y-50855485D01*
X121855485Y-51022487D01*
X121855485Y-51022488D01*
X121855483Y-51022490D01*
X121822471Y-51067927D01*
X121716657Y-51213566D01*
X121609433Y-51424003D01*
X121536446Y-51648631D01*
X121499500Y-51881902D01*
X121499500Y-52118097D01*
X121536446Y-52351368D01*
X121609433Y-52575996D01*
X121689782Y-52733688D01*
X121716657Y-52786433D01*
X121855483Y-52977510D01*
X122022490Y-53144517D01*
X122202335Y-53275183D01*
X122245000Y-53330512D01*
X122250979Y-53400126D01*
X122218373Y-53461920D01*
X122157534Y-53496278D01*
X122129449Y-53499500D01*
X106504428Y-53499500D01*
X106495582Y-53499184D01*
X106473622Y-53497613D01*
X106295442Y-53484869D01*
X106277931Y-53482351D01*
X106086209Y-53440645D01*
X106069234Y-53435661D01*
X105885394Y-53367093D01*
X105869300Y-53359743D01*
X105697091Y-53265709D01*
X105682208Y-53256144D01*
X105525135Y-53138561D01*
X105511764Y-53126975D01*
X105373024Y-52988235D01*
X105361438Y-52974864D01*
X105243855Y-52817791D01*
X105234290Y-52802908D01*
X105213966Y-52765687D01*
X105140253Y-52630694D01*
X105132909Y-52614611D01*
X105064336Y-52430760D01*
X105059354Y-52413790D01*
X105045775Y-52351368D01*
X105017647Y-52222063D01*
X105015130Y-52204556D01*
X105014171Y-52191150D01*
X105000816Y-52004418D01*
X105000500Y-51995572D01*
X105000500Y-42816038D01*
X106649500Y-42816038D01*
X106649500Y-45995740D01*
X106688719Y-46142111D01*
X106721347Y-46198623D01*
X106764485Y-46273340D01*
X106764487Y-46273342D01*
X107123181Y-46632036D01*
X107156666Y-46693359D01*
X107159500Y-46719717D01*
X107159500Y-47617870D01*
X107159501Y-47617876D01*
X107165908Y-47677483D01*
X107216202Y-47812328D01*
X107216206Y-47812335D01*
X107302452Y-47927544D01*
X107302455Y-47927547D01*
X107417664Y-48013793D01*
X107417669Y-48013796D01*
X107478833Y-48036608D01*
X107534766Y-48078478D01*
X107559184Y-48143942D01*
X107559500Y-48152790D01*
X107559500Y-50187209D01*
X107539815Y-50254248D01*
X107487011Y-50300003D01*
X107478833Y-50303391D01*
X107417671Y-50326202D01*
X107417664Y-50326206D01*
X107302455Y-50412452D01*
X107302452Y-50412455D01*
X107216206Y-50527664D01*
X107216202Y-50527671D01*
X107165908Y-50662517D01*
X107160088Y-50716657D01*
X107159501Y-50722123D01*
X107159500Y-50722135D01*
X107159500Y-51717870D01*
X107159501Y-51717876D01*
X107165908Y-51777483D01*
X107216202Y-51912328D01*
X107216206Y-51912335D01*
X107302452Y-52027544D01*
X107302455Y-52027547D01*
X107417664Y-52113793D01*
X107417671Y-52113797D01*
X107552517Y-52164091D01*
X107552516Y-52164091D01*
X107559444Y-52164835D01*
X107612127Y-52170500D01*
X108707872Y-52170499D01*
X108767483Y-52164091D01*
X108902331Y-52113796D01*
X109017546Y-52027546D01*
X109103796Y-51912331D01*
X109154091Y-51777483D01*
X109160500Y-51717873D01*
X109160499Y-50722128D01*
X109154091Y-50662517D01*
X109138900Y-50621789D01*
X109103797Y-50527671D01*
X109103793Y-50527664D01*
X109017547Y-50412455D01*
X109017544Y-50412452D01*
X108902335Y-50326206D01*
X108902328Y-50326202D01*
X108841167Y-50303391D01*
X108785233Y-50261520D01*
X108760816Y-50196056D01*
X108760500Y-50187209D01*
X108760500Y-48152790D01*
X108780185Y-48085751D01*
X108832989Y-48039996D01*
X108841146Y-48036616D01*
X108902331Y-48013796D01*
X109017546Y-47927546D01*
X109047097Y-47888070D01*
X109061367Y-47877388D01*
X109072052Y-47863115D01*
X109088755Y-47856884D01*
X109103027Y-47846201D01*
X109120811Y-47844928D01*
X109137516Y-47838698D01*
X109154935Y-47842487D01*
X109172719Y-47841215D01*
X109188368Y-47849760D01*
X109205789Y-47853550D01*
X109234043Y-47874701D01*
X109271661Y-47912319D01*
X109305146Y-47973642D01*
X109300162Y-48043334D01*
X109271661Y-48087681D01*
X109169531Y-48189810D01*
X109169530Y-48189811D01*
X109081522Y-48335393D01*
X109030913Y-48497807D01*
X109024500Y-48568386D01*
X109024500Y-49081613D01*
X109030913Y-49152192D01*
X109030913Y-49152194D01*
X109030914Y-49152196D01*
X109081522Y-49314606D01*
X109152139Y-49431421D01*
X109169530Y-49460188D01*
X109289811Y-49580469D01*
X109289813Y-49580470D01*
X109289815Y-49580472D01*
X109435394Y-49668478D01*
X109597804Y-49719086D01*
X109668384Y-49725500D01*
X110087324Y-49725500D01*
X110154363Y-49745185D01*
X110200118Y-49797989D01*
X110210062Y-49867147D01*
X110208941Y-49873691D01*
X110199500Y-49921153D01*
X110199500Y-50078846D01*
X110230261Y-50233489D01*
X110230264Y-50233501D01*
X110290602Y-50379172D01*
X110290609Y-50379185D01*
X110378210Y-50510288D01*
X110378213Y-50510292D01*
X110489707Y-50621786D01*
X110489711Y-50621789D01*
X110620814Y-50709390D01*
X110620827Y-50709397D01*
X110688564Y-50737454D01*
X110766503Y-50769737D01*
X110921153Y-50800499D01*
X110921156Y-50800500D01*
X110921158Y-50800500D01*
X111078844Y-50800500D01*
X111152502Y-50785848D01*
X111211406Y-50774131D01*
X111280997Y-50780358D01*
X111336174Y-50823220D01*
X111359419Y-50889110D01*
X111359373Y-50897240D01*
X111359500Y-50897240D01*
X111359500Y-51698703D01*
X111374696Y-51814142D01*
X111374699Y-51814151D01*
X111424674Y-51934802D01*
X111434200Y-51957798D01*
X111528851Y-52081149D01*
X111652202Y-52175800D01*
X111795849Y-52235301D01*
X111911299Y-52250500D01*
X113308700Y-52250499D01*
X113308703Y-52250499D01*
X113424142Y-52235303D01*
X113424146Y-52235301D01*
X113424151Y-52235301D01*
X113567798Y-52175800D01*
X113691149Y-52081149D01*
X113785800Y-51957798D01*
X113845301Y-51814151D01*
X113860500Y-51698701D01*
X113860499Y-50901300D01*
X113860499Y-50901299D01*
X113860499Y-50901296D01*
X113845303Y-50785857D01*
X113845301Y-50785852D01*
X113845301Y-50785849D01*
X113785800Y-50642202D01*
X113691149Y-50518851D01*
X113567798Y-50424200D01*
X113567794Y-50424198D01*
X113560443Y-50421153D01*
X125199500Y-50421153D01*
X125199500Y-50578846D01*
X125230261Y-50733489D01*
X125230264Y-50733501D01*
X125290602Y-50879172D01*
X125290609Y-50879185D01*
X125378210Y-51010288D01*
X125378213Y-51010292D01*
X125489707Y-51121786D01*
X125489711Y-51121789D01*
X125620814Y-51209390D01*
X125620827Y-51209397D01*
X125766498Y-51269735D01*
X125766503Y-51269737D01*
X125897932Y-51295880D01*
X125921153Y-51300499D01*
X125921156Y-51300500D01*
X125921158Y-51300500D01*
X126078844Y-51300500D01*
X126078845Y-51300499D01*
X126233497Y-51269737D01*
X126351642Y-51220800D01*
X126379172Y-51209397D01*
X126379172Y-51209396D01*
X126379179Y-51209394D01*
X126510289Y-51121789D01*
X126621789Y-51010289D01*
X126709394Y-50879179D01*
X126769737Y-50733497D01*
X126800500Y-50578842D01*
X126800500Y-50421158D01*
X126800500Y-50421155D01*
X126800499Y-50421153D01*
X126792148Y-50379172D01*
X126769737Y-50266503D01*
X126725285Y-50159185D01*
X126709397Y-50120827D01*
X126709390Y-50120814D01*
X126621789Y-49989711D01*
X126621786Y-49989707D01*
X126510292Y-49878213D01*
X126510288Y-49878210D01*
X126379185Y-49790609D01*
X126379172Y-49790602D01*
X126233501Y-49730264D01*
X126233489Y-49730261D01*
X126078845Y-49699500D01*
X126078842Y-49699500D01*
X125921158Y-49699500D01*
X125921155Y-49699500D01*
X125766510Y-49730261D01*
X125766498Y-49730264D01*
X125620827Y-49790602D01*
X125620814Y-49790609D01*
X125489711Y-49878210D01*
X125489707Y-49878213D01*
X125378213Y-49989707D01*
X125378210Y-49989711D01*
X125290609Y-50120814D01*
X125290602Y-50120827D01*
X125230264Y-50266498D01*
X125230261Y-50266510D01*
X125199500Y-50421153D01*
X113560443Y-50421153D01*
X113424151Y-50364699D01*
X113424149Y-50364698D01*
X113308701Y-50349500D01*
X111911292Y-50349500D01*
X111907250Y-50349766D01*
X111907143Y-50348139D01*
X111844740Y-50338396D01*
X111792493Y-50292006D01*
X111773620Y-50224734D01*
X111775994Y-50202041D01*
X111800500Y-50078844D01*
X111800500Y-49921155D01*
X111776071Y-49798345D01*
X111775757Y-49796767D01*
X111781984Y-49727176D01*
X111809691Y-49684897D01*
X112507771Y-48986818D01*
X112569094Y-48953333D01*
X112595452Y-48950499D01*
X113308703Y-48950499D01*
X113424142Y-48935303D01*
X113424146Y-48935301D01*
X113424151Y-48935301D01*
X113567798Y-48875800D01*
X113691149Y-48781149D01*
X113785800Y-48657798D01*
X113845301Y-48514151D01*
X113860500Y-48398701D01*
X113860499Y-47874499D01*
X113880183Y-47807461D01*
X113932987Y-47761706D01*
X113984499Y-47750500D01*
X116084990Y-47750500D01*
X116084992Y-47750500D01*
X116103406Y-47745566D01*
X116173255Y-47747228D01*
X116231118Y-47786389D01*
X116258623Y-47850617D01*
X116259500Y-47865340D01*
X116259500Y-48398703D01*
X116274696Y-48514142D01*
X116274699Y-48514151D01*
X116332154Y-48652860D01*
X116334200Y-48657798D01*
X116428851Y-48781149D01*
X116552202Y-48875800D01*
X116695849Y-48935301D01*
X116811299Y-48950500D01*
X117602977Y-48950499D01*
X117664977Y-48967112D01*
X117714124Y-48995487D01*
X117714125Y-48995488D01*
X117714127Y-48995488D01*
X117714128Y-48995489D01*
X117866855Y-49036413D01*
X117866857Y-49036413D01*
X118032566Y-49036413D01*
X118032582Y-49036412D01*
X120371537Y-49036412D01*
X120379143Y-49036412D01*
X120379147Y-49036413D01*
X120435802Y-49036413D01*
X120475172Y-49047973D01*
X120502839Y-49056098D01*
X120502841Y-49056099D01*
X120502842Y-49056101D01*
X120517969Y-49068290D01*
X120518325Y-49067890D01*
X120521104Y-49070355D01*
X120594061Y-49127669D01*
X120614968Y-49148575D01*
X120633479Y-49172138D01*
X120672284Y-49221534D01*
X120672286Y-49221536D01*
X120672290Y-49221541D01*
X120803947Y-49353198D01*
X120876904Y-49410512D01*
X120897811Y-49431418D01*
X120920413Y-49460188D01*
X120955127Y-49504377D01*
X120955129Y-49504379D01*
X120955133Y-49504384D01*
X121086790Y-49636041D01*
X121159748Y-49693356D01*
X121180655Y-49714262D01*
X121190800Y-49727176D01*
X121237969Y-49787219D01*
X121237971Y-49787221D01*
X121237975Y-49787226D01*
X121369632Y-49918883D01*
X121442589Y-49976197D01*
X121463496Y-49997103D01*
X121497694Y-50040634D01*
X121520812Y-50070062D01*
X121520814Y-50070064D01*
X121520818Y-50070069D01*
X121652469Y-50201720D01*
X121652473Y-50201723D01*
X121652478Y-50201728D01*
X121722542Y-50256769D01*
X121722544Y-50256770D01*
X121722547Y-50256772D01*
X121799711Y-50290288D01*
X121861342Y-50317058D01*
X122011262Y-50337664D01*
X122161183Y-50317058D01*
X122277557Y-50266510D01*
X122299977Y-50256772D01*
X122299978Y-50256771D01*
X122299983Y-50256769D01*
X122370047Y-50201728D01*
X122754432Y-49817343D01*
X122815755Y-49783858D01*
X122885446Y-49788842D01*
X122929794Y-49817343D01*
X123314170Y-50201720D01*
X123314174Y-50201723D01*
X123314179Y-50201728D01*
X123384243Y-50256769D01*
X123384245Y-50256770D01*
X123384248Y-50256772D01*
X123461412Y-50290288D01*
X123523043Y-50317058D01*
X123649073Y-50334380D01*
X123672963Y-50337664D01*
X123672963Y-50337663D01*
X123672964Y-50337664D01*
X123822884Y-50317058D01*
X123884513Y-50290289D01*
X123961678Y-50256772D01*
X123961679Y-50256771D01*
X123961684Y-50256769D01*
X124031748Y-50201728D01*
X124163414Y-50070062D01*
X124218455Y-49999998D01*
X124218456Y-49999995D01*
X124220726Y-49997106D01*
X124241635Y-49976197D01*
X124244524Y-49973927D01*
X124244527Y-49973926D01*
X124314591Y-49918885D01*
X124446257Y-49787219D01*
X124501298Y-49717155D01*
X124501300Y-49717149D01*
X124503567Y-49714264D01*
X124524478Y-49693353D01*
X124527363Y-49691086D01*
X124527369Y-49691084D01*
X124597433Y-49636043D01*
X124729099Y-49504377D01*
X124784140Y-49434313D01*
X124784141Y-49434310D01*
X124786411Y-49431421D01*
X124807320Y-49410512D01*
X124810209Y-49408242D01*
X124810212Y-49408241D01*
X124880276Y-49353200D01*
X125011942Y-49221534D01*
X125041803Y-49183522D01*
X125098694Y-49142967D01*
X125168483Y-49139606D01*
X125201308Y-49152737D01*
X125328689Y-49226281D01*
X125475057Y-49265500D01*
X125475058Y-49265500D01*
X125475059Y-49265500D01*
X126375712Y-49265500D01*
X126375714Y-49265500D01*
X126522083Y-49226281D01*
X126653313Y-49150515D01*
X128192009Y-47611819D01*
X128253332Y-47578334D01*
X128279690Y-47575500D01*
X129800500Y-47575500D01*
X129867539Y-47595185D01*
X129913294Y-47647989D01*
X129924500Y-47699500D01*
X129924500Y-48400500D01*
X129904815Y-48467539D01*
X129852011Y-48513294D01*
X129800501Y-48524500D01*
X129676663Y-48524500D01*
X129676644Y-48524501D01*
X129577292Y-48534650D01*
X129577289Y-48534651D01*
X129416305Y-48587996D01*
X129416294Y-48588001D01*
X129271959Y-48677029D01*
X129271955Y-48677032D01*
X129152032Y-48796955D01*
X129152029Y-48796959D01*
X129063001Y-48941294D01*
X129062996Y-48941305D01*
X129009651Y-49102290D01*
X128999500Y-49201647D01*
X128999500Y-49798337D01*
X128999501Y-49798355D01*
X129009650Y-49897707D01*
X129009651Y-49897710D01*
X129062996Y-50058694D01*
X129063001Y-50058705D01*
X129152029Y-50203040D01*
X129152032Y-50203044D01*
X129271955Y-50322967D01*
X129271959Y-50322970D01*
X129416294Y-50411998D01*
X129416297Y-50411999D01*
X129416303Y-50412003D01*
X129577292Y-50465349D01*
X129676655Y-50475500D01*
X130223344Y-50475499D01*
X130223352Y-50475498D01*
X130223355Y-50475498D01*
X130277760Y-50469940D01*
X130322708Y-50465349D01*
X130483697Y-50412003D01*
X130628044Y-50322968D01*
X130747968Y-50203044D01*
X130837003Y-50058697D01*
X130890349Y-49897708D01*
X130900500Y-49798345D01*
X130900499Y-49414742D01*
X130920183Y-49347704D01*
X130936816Y-49327063D01*
X130960514Y-49303366D01*
X130964603Y-49296285D01*
X130979946Y-49269711D01*
X131007760Y-49221534D01*
X131036281Y-49172135D01*
X131040012Y-49158211D01*
X131042075Y-49150514D01*
X131054995Y-49102292D01*
X131075500Y-49025767D01*
X131075500Y-48874234D01*
X131075500Y-47569500D01*
X131095185Y-47502461D01*
X131147989Y-47456706D01*
X131199500Y-47445500D01*
X132275154Y-47445500D01*
X132275156Y-47445500D01*
X132421525Y-47406281D01*
X132552755Y-47330515D01*
X133212819Y-46670451D01*
X133274142Y-46636966D01*
X133343834Y-46641950D01*
X133399767Y-46683822D01*
X133424184Y-46749286D01*
X133424500Y-46758132D01*
X133424500Y-49172059D01*
X133404815Y-49239098D01*
X133388181Y-49259740D01*
X133378213Y-49269707D01*
X133378210Y-49269711D01*
X133290609Y-49400814D01*
X133290602Y-49400827D01*
X133230264Y-49546498D01*
X133230261Y-49546510D01*
X133199500Y-49701153D01*
X133199500Y-49858846D01*
X133230261Y-50013489D01*
X133230264Y-50013501D01*
X133290602Y-50159172D01*
X133290609Y-50159185D01*
X133378210Y-50290288D01*
X133378213Y-50290292D01*
X133489707Y-50401786D01*
X133489711Y-50401789D01*
X133620814Y-50489390D01*
X133620827Y-50489397D01*
X133766498Y-50549735D01*
X133766503Y-50549737D01*
X133912823Y-50578842D01*
X133921153Y-50580499D01*
X133921156Y-50580500D01*
X133921158Y-50580500D01*
X134078844Y-50580500D01*
X134078845Y-50580499D01*
X134233497Y-50549737D01*
X134379179Y-50489394D01*
X134510289Y-50401789D01*
X134621789Y-50290289D01*
X134709394Y-50159179D01*
X134769737Y-50013497D01*
X134800500Y-49858842D01*
X134800500Y-49701158D01*
X134800500Y-49701155D01*
X134800499Y-49701153D01*
X134787547Y-49636041D01*
X134769737Y-49546503D01*
X134752288Y-49504377D01*
X134709397Y-49400827D01*
X134709390Y-49400814D01*
X134621789Y-49269711D01*
X134621786Y-49269707D01*
X134611819Y-49259740D01*
X134578334Y-49198417D01*
X134575500Y-49172059D01*
X134575500Y-48166228D01*
X137149500Y-48166228D01*
X137149500Y-48333771D01*
X137182182Y-48498074D01*
X137182184Y-48498082D01*
X137246295Y-48652860D01*
X137339373Y-48792162D01*
X137457837Y-48910626D01*
X137503749Y-48941303D01*
X137597137Y-49003703D01*
X137751918Y-49067816D01*
X137916228Y-49100499D01*
X137916232Y-49100500D01*
X137916233Y-49100500D01*
X138083768Y-49100500D01*
X138083769Y-49100499D01*
X138248082Y-49067816D01*
X138402863Y-49003703D01*
X138542162Y-48910626D01*
X138660626Y-48792162D01*
X138753703Y-48652863D01*
X138817816Y-48498082D01*
X138850500Y-48333767D01*
X138850500Y-48166233D01*
X138817816Y-48001918D01*
X138768227Y-47882201D01*
X138753704Y-47847139D01*
X138753077Y-47846201D01*
X138689132Y-47750500D01*
X138660626Y-47707837D01*
X138542162Y-47589373D01*
X138402860Y-47496295D01*
X138248082Y-47432184D01*
X138248074Y-47432182D01*
X138083771Y-47399500D01*
X138083767Y-47399500D01*
X137916233Y-47399500D01*
X137916228Y-47399500D01*
X137751925Y-47432182D01*
X137751917Y-47432184D01*
X137597139Y-47496295D01*
X137457837Y-47589373D01*
X137339373Y-47707837D01*
X137246295Y-47847139D01*
X137182184Y-48001917D01*
X137182182Y-48001925D01*
X137149500Y-48166228D01*
X134575500Y-48166228D01*
X134575500Y-44034236D01*
X134575500Y-44034234D01*
X134536281Y-43887865D01*
X134460515Y-43756635D01*
X134370108Y-43666228D01*
X137149500Y-43666228D01*
X137149500Y-43833771D01*
X137182182Y-43998074D01*
X137182184Y-43998082D01*
X137246295Y-44152860D01*
X137339373Y-44292162D01*
X137457837Y-44410626D01*
X137550494Y-44472537D01*
X137597137Y-44503703D01*
X137751918Y-44567816D01*
X137867744Y-44590855D01*
X137916228Y-44600499D01*
X137916232Y-44600500D01*
X137916233Y-44600500D01*
X138083768Y-44600500D01*
X138083769Y-44600499D01*
X138248082Y-44567816D01*
X138402863Y-44503703D01*
X138542162Y-44410626D01*
X138660626Y-44292162D01*
X138753703Y-44152863D01*
X138817816Y-43998082D01*
X138850500Y-43833767D01*
X138850500Y-43666233D01*
X138817816Y-43501918D01*
X138753703Y-43347137D01*
X138689527Y-43251091D01*
X138660626Y-43207837D01*
X138542162Y-43089373D01*
X138402860Y-42996295D01*
X138248082Y-42932184D01*
X138248074Y-42932182D01*
X138083771Y-42899500D01*
X138083767Y-42899500D01*
X137916233Y-42899500D01*
X137916228Y-42899500D01*
X137751925Y-42932182D01*
X137751917Y-42932184D01*
X137597139Y-42996295D01*
X137457837Y-43089373D01*
X137339373Y-43207837D01*
X137246295Y-43347139D01*
X137182184Y-43501917D01*
X137182182Y-43501925D01*
X137149500Y-43666228D01*
X134370108Y-43666228D01*
X134353365Y-43649485D01*
X133616819Y-42912939D01*
X133583334Y-42851616D01*
X133580500Y-42825258D01*
X133580500Y-42811155D01*
X133580499Y-42811153D01*
X133578219Y-42799692D01*
X133549737Y-42656503D01*
X133525671Y-42598401D01*
X133489397Y-42510827D01*
X133489390Y-42510814D01*
X133401789Y-42379711D01*
X133401786Y-42379707D01*
X133290292Y-42268213D01*
X133290288Y-42268210D01*
X133159185Y-42180609D01*
X133159172Y-42180602D01*
X133013501Y-42120264D01*
X133013489Y-42120261D01*
X132858845Y-42089500D01*
X132858842Y-42089500D01*
X132701158Y-42089500D01*
X132701155Y-42089500D01*
X132546510Y-42120261D01*
X132546498Y-42120264D01*
X132400827Y-42180602D01*
X132400814Y-42180609D01*
X132269711Y-42268210D01*
X132269707Y-42268213D01*
X132158213Y-42379707D01*
X132158210Y-42379711D01*
X132070609Y-42510814D01*
X132070602Y-42510827D01*
X132010264Y-42656498D01*
X132010261Y-42656508D01*
X131981780Y-42799692D01*
X131949395Y-42861603D01*
X131888679Y-42896177D01*
X131860163Y-42899500D01*
X131319998Y-42899500D01*
X131319980Y-42899501D01*
X131217203Y-42910000D01*
X131217200Y-42910001D01*
X131050668Y-42965185D01*
X131050663Y-42965187D01*
X130901342Y-43057289D01*
X130777289Y-43181342D01*
X130685187Y-43330663D01*
X130685186Y-43330666D01*
X130630001Y-43497203D01*
X130630001Y-43497204D01*
X130630000Y-43497204D01*
X130619500Y-43599983D01*
X130619500Y-44400001D01*
X130619501Y-44400019D01*
X130630000Y-44502796D01*
X130630002Y-44502803D01*
X130652298Y-44570088D01*
X130654700Y-44639916D01*
X130618968Y-44699958D01*
X130556447Y-44731150D01*
X130486988Y-44723589D01*
X130469500Y-44714632D01*
X130389334Y-44665186D01*
X130222797Y-44610001D01*
X130222795Y-44610000D01*
X130120016Y-44599500D01*
X130120009Y-44599500D01*
X129384742Y-44599500D01*
X129355301Y-44590855D01*
X129325315Y-44584332D01*
X129320299Y-44580577D01*
X129317703Y-44579815D01*
X129297061Y-44563181D01*
X129251819Y-44517939D01*
X129218334Y-44456616D01*
X129215500Y-44430258D01*
X129215500Y-43639741D01*
X129235185Y-43572702D01*
X129251819Y-43552060D01*
X129302060Y-43501819D01*
X129363383Y-43468334D01*
X129389741Y-43465500D01*
X129658646Y-43465500D01*
X129720644Y-43482112D01*
X129727865Y-43486281D01*
X129874234Y-43525500D01*
X129874236Y-43525500D01*
X130025764Y-43525500D01*
X130025766Y-43525500D01*
X130172135Y-43486281D01*
X130303365Y-43410515D01*
X130410515Y-43303365D01*
X130486281Y-43172135D01*
X130525500Y-43025766D01*
X130525500Y-42814234D01*
X130525500Y-41955424D01*
X130545185Y-41888385D01*
X130584402Y-41849886D01*
X130628044Y-41822968D01*
X130747968Y-41703044D01*
X130837003Y-41558697D01*
X130890349Y-41397708D01*
X130900500Y-41298345D01*
X130900499Y-40701656D01*
X130896996Y-40667367D01*
X130890349Y-40602292D01*
X130890348Y-40602289D01*
X130869537Y-40539486D01*
X130837003Y-40441303D01*
X130836999Y-40441297D01*
X130836998Y-40441294D01*
X130747970Y-40296959D01*
X130747967Y-40296955D01*
X130628044Y-40177032D01*
X130628040Y-40177029D01*
X130483705Y-40088001D01*
X130483699Y-40087998D01*
X130483697Y-40087997D01*
X130473768Y-40084707D01*
X130322709Y-40034651D01*
X130223346Y-40024500D01*
X129676662Y-40024500D01*
X129676644Y-40024501D01*
X129577292Y-40034650D01*
X129577289Y-40034651D01*
X129416305Y-40087996D01*
X129416294Y-40088001D01*
X129271959Y-40177029D01*
X129211266Y-40237721D01*
X129149942Y-40271205D01*
X129099398Y-40271656D01*
X129078843Y-40267568D01*
X129078842Y-40267568D01*
X128921158Y-40267568D01*
X128921153Y-40267568D01*
X128765349Y-40298559D01*
X128695757Y-40292332D01*
X128653477Y-40264623D01*
X128478341Y-40089487D01*
X128478339Y-40089485D01*
X128383364Y-40034651D01*
X128347108Y-40013718D01*
X128347104Y-40013717D01*
X128338813Y-40011495D01*
X128283231Y-39979403D01*
X127275382Y-38971554D01*
X127275380Y-38971552D01*
X127159221Y-38904487D01*
X127144151Y-38895786D01*
X127070965Y-38876176D01*
X126997781Y-38856567D01*
X126997780Y-38856567D01*
X124331768Y-38856567D01*
X124269767Y-38839953D01*
X124250313Y-38828721D01*
X124250310Y-38828720D01*
X124250309Y-38828719D01*
X124250308Y-38828719D01*
X124103939Y-38789500D01*
X123627593Y-38789500D01*
X123476060Y-38789500D01*
X123329690Y-38828719D01*
X123198462Y-38904485D01*
X123198459Y-38904487D01*
X123124766Y-38978181D01*
X123063443Y-39011666D01*
X123037085Y-39014500D01*
X121959258Y-39014500D01*
X121887945Y-39033607D01*
X121887946Y-39033608D01*
X121812890Y-39053719D01*
X121812888Y-39053719D01*
X121812888Y-39053720D01*
X121681660Y-39129485D01*
X121681657Y-39129487D01*
X120271660Y-40539486D01*
X120143779Y-40667367D01*
X120082456Y-40700852D01*
X120012764Y-40695868D01*
X119968417Y-40667367D01*
X119860398Y-40559348D01*
X119826913Y-40498025D01*
X119826462Y-40495858D01*
X119815610Y-40441303D01*
X119799737Y-40361503D01*
X119765526Y-40278909D01*
X119739397Y-40215827D01*
X119739390Y-40215814D01*
X119651789Y-40084711D01*
X119651786Y-40084707D01*
X119540292Y-39973213D01*
X119540288Y-39973210D01*
X119409185Y-39885609D01*
X119409172Y-39885602D01*
X119263501Y-39825264D01*
X119263489Y-39825261D01*
X119108845Y-39794500D01*
X119108842Y-39794500D01*
X118951158Y-39794500D01*
X118951155Y-39794500D01*
X118796510Y-39825261D01*
X118796498Y-39825264D01*
X118650827Y-39885602D01*
X118650814Y-39885609D01*
X118519711Y-39973210D01*
X118519707Y-39973213D01*
X118509740Y-39983181D01*
X118448417Y-40016666D01*
X118422059Y-40019500D01*
X117492952Y-40019500D01*
X117425913Y-39999815D01*
X117386835Y-39959650D01*
X117363236Y-39920612D01*
X117363234Y-39920610D01*
X117363233Y-39920608D01*
X117249391Y-39806766D01*
X117111602Y-39723469D01*
X117111596Y-39723467D01*
X116957887Y-39675570D01*
X116957885Y-39675569D01*
X116957883Y-39675569D01*
X116911117Y-39671319D01*
X116891091Y-39669500D01*
X116891088Y-39669500D01*
X115483901Y-39669500D01*
X115417117Y-39675568D01*
X115417106Y-39675571D01*
X115263401Y-39723467D01*
X115125608Y-39806766D01*
X115011766Y-39920608D01*
X114928469Y-40058397D01*
X114880569Y-40212116D01*
X114874500Y-40278911D01*
X114874500Y-40711098D01*
X114880568Y-40777882D01*
X114880571Y-40777893D01*
X114928467Y-40931599D01*
X115009625Y-41065850D01*
X115027461Y-41133405D01*
X115009625Y-41194150D01*
X114928469Y-41328397D01*
X114880569Y-41482116D01*
X114874500Y-41548911D01*
X114874500Y-41981098D01*
X114880568Y-42047882D01*
X114880571Y-42047893D01*
X114928467Y-42201599D01*
X115009625Y-42335850D01*
X115027461Y-42403405D01*
X115009625Y-42464150D01*
X114928469Y-42598397D01*
X114880569Y-42752116D01*
X114874500Y-42818911D01*
X114874500Y-43251098D01*
X114880568Y-43317882D01*
X114880571Y-43317893D01*
X114928467Y-43471599D01*
X115009625Y-43605850D01*
X115027461Y-43673405D01*
X115009625Y-43734150D01*
X114928469Y-43868397D01*
X114880569Y-44022116D01*
X114879468Y-44034236D01*
X114875552Y-44077338D01*
X114874500Y-44088911D01*
X114874500Y-44521098D01*
X114880568Y-44587882D01*
X114880571Y-44587893D01*
X114928467Y-44741598D01*
X114928468Y-44741600D01*
X114928469Y-44741602D01*
X115011764Y-44879388D01*
X115011766Y-44879391D01*
X115125608Y-44993233D01*
X115125610Y-44993234D01*
X115125612Y-44993236D01*
X115263398Y-45076531D01*
X115417113Y-45124430D01*
X115483909Y-45130500D01*
X115950536Y-45130499D01*
X116017574Y-45150183D01*
X116063329Y-45202987D01*
X116073273Y-45272146D01*
X116044248Y-45335702D01*
X116038216Y-45342180D01*
X115517217Y-45863181D01*
X115455894Y-45896666D01*
X115429536Y-45899500D01*
X111734716Y-45899500D01*
X111667677Y-45879815D01*
X111647035Y-45863181D01*
X111368342Y-45584487D01*
X111368341Y-45584486D01*
X111368340Y-45584485D01*
X111237110Y-45508719D01*
X111133974Y-45481084D01*
X111133972Y-45481083D01*
X111133970Y-45481082D01*
X111090743Y-45469500D01*
X111090742Y-45469500D01*
X111090741Y-45469500D01*
X108629716Y-45469500D01*
X108600275Y-45460855D01*
X108570289Y-45454332D01*
X108565273Y-45450577D01*
X108562677Y-45449815D01*
X108542035Y-45433181D01*
X108536819Y-45427965D01*
X108503334Y-45366642D01*
X108500500Y-45340284D01*
X108500500Y-44246519D01*
X108520185Y-44179480D01*
X108536815Y-44158842D01*
X108798839Y-43896817D01*
X108860162Y-43863333D01*
X108886520Y-43860499D01*
X109716097Y-43860499D01*
X109782882Y-43854431D01*
X109782885Y-43854430D01*
X109782887Y-43854430D01*
X109936602Y-43806531D01*
X110074388Y-43723236D01*
X110188236Y-43609388D01*
X110271531Y-43471602D01*
X110319430Y-43317887D01*
X110325500Y-43251091D01*
X110325499Y-42818910D01*
X110325499Y-42818909D01*
X110325499Y-42818901D01*
X110319431Y-42752117D01*
X110319428Y-42752106D01*
X110271532Y-42598401D01*
X110271531Y-42598400D01*
X110271531Y-42598398D01*
X110190373Y-42464147D01*
X110172538Y-42396596D01*
X110190373Y-42335852D01*
X110271531Y-42201602D01*
X110319430Y-42047887D01*
X110325500Y-41981091D01*
X110325499Y-41548910D01*
X110325499Y-41548909D01*
X110325499Y-41548901D01*
X110319431Y-41482117D01*
X110319428Y-41482106D01*
X110271532Y-41328401D01*
X110271531Y-41328400D01*
X110271531Y-41328398D01*
X110190373Y-41194147D01*
X110172538Y-41126596D01*
X110190373Y-41065852D01*
X110271531Y-40931602D01*
X110319430Y-40777887D01*
X110325500Y-40711091D01*
X110325499Y-40278910D01*
X110325499Y-40278909D01*
X110325499Y-40278901D01*
X110319431Y-40212117D01*
X110319428Y-40212106D01*
X110271532Y-40058401D01*
X110271531Y-40058400D01*
X110271531Y-40058398D01*
X110188236Y-39920612D01*
X110188234Y-39920610D01*
X110188233Y-39920608D01*
X110074391Y-39806766D01*
X109936602Y-39723469D01*
X109936596Y-39723467D01*
X109782887Y-39675570D01*
X109782885Y-39675569D01*
X109782883Y-39675569D01*
X109736117Y-39671319D01*
X109716091Y-39669500D01*
X109716088Y-39669500D01*
X108308901Y-39669500D01*
X108242117Y-39675568D01*
X108242106Y-39675571D01*
X108088401Y-39723467D01*
X107950608Y-39806766D01*
X107836766Y-39920608D01*
X107753467Y-40058400D01*
X107753467Y-40058402D01*
X107731212Y-40129821D01*
X107700508Y-40180611D01*
X107476635Y-40404486D01*
X107369487Y-40511633D01*
X107369485Y-40511636D01*
X107293719Y-40642864D01*
X107254500Y-40789235D01*
X107254500Y-41997061D01*
X107234815Y-42064100D01*
X107218181Y-42084742D01*
X106854193Y-42448729D01*
X106854194Y-42448730D01*
X106764485Y-42538439D01*
X106688719Y-42669667D01*
X106649500Y-42816038D01*
X105000500Y-42816038D01*
X105000500Y-39504427D01*
X105000816Y-39495581D01*
X105015130Y-39295443D01*
X105015131Y-39295434D01*
X105017646Y-39277938D01*
X105059356Y-39086200D01*
X105064335Y-39069242D01*
X105132911Y-38885382D01*
X105140251Y-38869310D01*
X105234294Y-38697083D01*
X105243850Y-38682214D01*
X105361443Y-38525128D01*
X105373017Y-38511771D01*
X105511771Y-38373017D01*
X105525128Y-38361443D01*
X105682214Y-38243850D01*
X105697083Y-38234294D01*
X105869310Y-38140251D01*
X105885382Y-38132911D01*
X106069242Y-38064335D01*
X106086200Y-38059356D01*
X106277938Y-38017646D01*
X106295436Y-38015130D01*
X106495582Y-38000816D01*
X106504428Y-38000500D01*
X106565892Y-38000500D01*
X138934108Y-38000500D01*
X138995572Y-38000500D01*
X139004418Y-38000816D01*
G37*
%TD.AperFunction*%
%TD*%
M02*
