M48
; DRILL file KiCad 10.0.1 date 2026-10-01T15:00:17
; FORMAT={-:-/ absolute / inch / decimal}
; #@! TF.CreationDate,2026-10-01T15:00:17+03:00
; #@! TF.GenerationSoftware,Kicad,Pcbnew,10.0.1
; #@! TF.FileFunction,Plated,1,2,PTH
FMAT,2
INCH
; #@! TA.AperFunction,Plated,PTH,ViaDrill
T1C0.0118
; #@! TA.AperFunction,Plated,PTH,ComponentDrill
T2C0.0354
%
G90
G05
T1
X4.3701Y-1.9685
X4.3858Y-1.6142
X4.3866Y-1.8976
X4.6259Y-1.8307
X4.6862Y-1.5982
X4.7358Y-1.5433
X4.7543Y-2.0732
X4.8736Y-1.5724
X4.9098Y-1.5977
X4.9311Y-1.6295
X4.9606Y-1.9882
X4.9761Y-1.6026
X4.9803Y-1.6339
X4.9803Y-1.6732
X5.078Y-1.6496
X5.0787Y-1.5354
X5.0787Y-1.6169
X5.2276Y-1.6886
X5.2756Y-1.9598
T2
G00X5.4016Y-1.5807
M15
G01X5.4646Y-1.5807
M16
G05
G00X5.4016Y-2.0413
M15
G01X5.4646Y-2.0413
M16
G05
M30
