%TF.GenerationSoftware,KiCad,Pcbnew,10.0.1*%
%TF.CreationDate,2026-09-27T14:45:39+03:00*%
%TF.ProjectId,hakkit_badusb,68616b6b-6974-45f6-9261-647573622e6b,rev?*%
%TF.SameCoordinates,Original*%
%TF.FileFunction,Copper,L1,Top*%
%TF.FilePolarity,Positive*%
%FSLAX46Y46*%
G04 Gerber Fmt 4.6, Leading zero omitted, Abs format (unit mm)*
G04 Created by KiCad (PCBNEW 10.0.1) date 2026-09-27 14:45:39*
%MOMM*%
%LPD*%
G01*
G04 APERTURE LIST*
G04 Aperture macros list*
%AMRoundRect*
0 Rectangle with rounded corners*
0 $1 Rounding radius*
0 $2 $3 $4 $5 $6 $7 $8 $9 X,Y pos of 4 corners*
0 Add a 4 corners polygon primitive as box body*
4,1,4,$2,$3,$4,$5,$6,$7,$8,$9,$2,$3,0*
0 Add four circle primitives for the rounded corners*
1,1,$1+$1,$2,$3*
1,1,$1+$1,$4,$5*
1,1,$1+$1,$6,$7*
1,1,$1+$1,$8,$9*
0 Add four rect primitives between the rounded corners*
20,1,$1+$1,$2,$3,$4,$5,0*
20,1,$1+$1,$4,$5,$6,$7,0*
20,1,$1+$1,$6,$7,$8,$9,0*
20,1,$1+$1,$8,$9,$2,$3,0*%
G04 Aperture macros list end*
%TA.AperFunction,SMDPad,CuDef*%
%ADD10RoundRect,0.100000X-0.712500X-0.100000X0.712500X-0.100000X0.712500X0.100000X-0.712500X0.100000X0*%
%TD*%
%TA.AperFunction,SMDPad,CuDef*%
%ADD11RoundRect,0.125000X-0.250000X-0.125000X0.250000X-0.125000X0.250000X0.125000X-0.250000X0.125000X0*%
%TD*%
%TA.AperFunction,HeatsinkPad*%
%ADD12R,3.400000X4.300000*%
%TD*%
%TA.AperFunction,SMDPad,CuDef*%
%ADD13RoundRect,0.050000X-0.387500X-0.050000X0.387500X-0.050000X0.387500X0.050000X-0.387500X0.050000X0*%
%TD*%
%TA.AperFunction,SMDPad,CuDef*%
%ADD14RoundRect,0.050000X-0.050000X-0.387500X0.050000X-0.387500X0.050000X0.387500X-0.050000X0.387500X0*%
%TD*%
%TA.AperFunction,HeatsinkPad*%
%ADD15R,3.200000X3.200000*%
%TD*%
%TA.AperFunction,SMDPad,CuDef*%
%ADD16RoundRect,0.175000X0.725000X-0.175000X0.725000X0.175000X-0.725000X0.175000X-0.725000X-0.175000X0*%
%TD*%
%TA.AperFunction,SMDPad,CuDef*%
%ADD17RoundRect,0.175000X-0.725000X-0.175000X0.725000X-0.175000X0.725000X0.175000X-0.725000X0.175000X0*%
%TD*%
%TA.AperFunction,ComponentPad*%
%ADD18O,4.000000X1.600000*%
%TD*%
G04 APERTURE END LIST*
D10*
%TO.P,U3,1,OUT_1*%
%TO.N,+3V3*%
X100162500Y-86045000D03*
%TO.P,U3,2,SENSE_2*%
X100162500Y-86695000D03*
%TO.P,U3,3,BYP_3*%
%TO.N,Net-(U3-BYP)*%
X100162500Y-87345000D03*
%TO.P,U3,4,GND_4*%
%TO.N,GND*%
X100162500Y-87995000D03*
%TO.P,U3,5,~{SHDN}_5*%
%TO.N,+5V*%
X104387500Y-87995000D03*
%TO.P,U3,6,NC_6*%
%TO.N,unconnected-(U3-NC-Pad6)*%
X104387500Y-87345000D03*
%TO.P,U3,7,NC_7*%
%TO.N,unconnected-(U3-NC-Pad7)*%
X104387500Y-86695000D03*
%TO.P,U3,8,IN_8*%
%TO.N,+5V*%
X104387500Y-86045000D03*
%TD*%
D11*
%TO.P,U2,1,~{CS}_1*%
%TO.N,Net-(U1-~{QSPI_SS})*%
X92020000Y-86060000D03*
%TO.P,U2,2,DO/IO_{1}_2*%
%TO.N,Net-(U1-QSPI_SD1)*%
X92020000Y-87330000D03*
%TO.P,U2,3,~{WP}/IO_{2}_3*%
%TO.N,Net-(U1-QSPI_SD2)*%
X92020000Y-88600000D03*
%TO.P,U2,4,GND_4*%
%TO.N,GND*%
X92020000Y-89870000D03*
%TO.P,U2,5,DI/IO_{0}_5*%
%TO.N,Net-(U1-QSPI_SD0)*%
X97420000Y-89870000D03*
%TO.P,U2,6,CLK_6*%
%TO.N,Net-(U1-QSPI_SCLK)*%
X97420000Y-88600000D03*
%TO.P,U2,7,~{HOLD}/~{RESET}/IO_{3}_7*%
%TO.N,Net-(U1-QSPI_SD3)*%
X97420000Y-87330000D03*
%TO.P,U2,8,VCC_8*%
%TO.N,+3V3*%
X97420000Y-86060000D03*
D12*
%TO.P,U2,9,EP_9*%
%TO.N,GND*%
X94720000Y-87965000D03*
%TD*%
D13*
%TO.P,U1,1,IOVDD_1*%
%TO.N,Net-(U1-RUN)*%
X82402500Y-86745000D03*
%TO.P,U1,2,GPIO0_2*%
%TO.N,unconnected-(U1-GPIO0-Pad2)*%
X82402500Y-87145000D03*
%TO.P,U1,3,GPIO1_3*%
%TO.N,unconnected-(U1-GPIO1-Pad3)*%
X82402500Y-87545000D03*
%TO.P,U1,4,GPIO2_4*%
%TO.N,unconnected-(U1-GPIO2-Pad4)*%
X82402500Y-87945000D03*
%TO.P,U1,5,GPIO3_5*%
%TO.N,unconnected-(U1-GPIO3-Pad5)*%
X82402500Y-88345000D03*
%TO.P,U1,6,GPIO4_6*%
%TO.N,unconnected-(U1-GPIO4-Pad6)*%
X82402500Y-88745000D03*
%TO.P,U1,7,GPIO5_7*%
%TO.N,Net-(U1-GPIO5)*%
X82402500Y-89145000D03*
%TO.P,U1,8,GPIO6_8*%
%TO.N,Net-(U1-GPIO6)*%
X82402500Y-89545000D03*
%TO.P,U1,9,GPIO7_9*%
%TO.N,Net-(U1-GPIO7)*%
X82402500Y-89945000D03*
%TO.P,U1,10,IOVDD_10*%
%TO.N,Net-(U1-RUN)*%
X82402500Y-90345000D03*
%TO.P,U1,11,GPIO8_11*%
%TO.N,unconnected-(U1-GPIO8-Pad11)*%
X82402500Y-90745000D03*
%TO.P,U1,12,GPIO9_12*%
%TO.N,unconnected-(U1-GPIO9-Pad12)*%
X82402500Y-91145000D03*
%TO.P,U1,13,GPIO10_13*%
%TO.N,unconnected-(U1-GPIO10-Pad13)*%
X82402500Y-91545000D03*
%TO.P,U1,14,GPIO11_14*%
%TO.N,unconnected-(U1-GPIO11-Pad14)*%
X82402500Y-91945000D03*
D14*
%TO.P,U1,15,GPIO12_15*%
%TO.N,unconnected-(U1-GPIO12-Pad15)*%
X83240000Y-92782500D03*
%TO.P,U1,16,GPIO13_16*%
%TO.N,unconnected-(U1-GPIO13-Pad16)*%
X83640000Y-92782500D03*
%TO.P,U1,17,GPIO14_17*%
%TO.N,unconnected-(U1-GPIO14-Pad17)*%
X84040000Y-92782500D03*
%TO.P,U1,18,GPIO15_18*%
%TO.N,unconnected-(U1-GPIO15-Pad18)*%
X84440000Y-92782500D03*
%TO.P,U1,19,TESTEN_19*%
%TO.N,GND*%
X84840000Y-92782500D03*
%TO.P,U1,20,XIN_20*%
%TO.N,Net-(U1-XIN)*%
X85240000Y-92782500D03*
%TO.P,U1,21,XOUT_21*%
%TO.N,Net-(U1-XOUT)*%
X85640000Y-92782500D03*
%TO.P,U1,22,IOVDD_22*%
%TO.N,Net-(U1-RUN)*%
X86040000Y-92782500D03*
%TO.P,U1,23,DVDD_23*%
%TO.N,Net-(U1-VREG_VOUT)*%
X86440000Y-92782500D03*
%TO.P,U1,24,SWCLK_24*%
%TO.N,unconnected-(U1-SWCLK-Pad24)*%
X86840000Y-92782500D03*
%TO.P,U1,25,SWDIO_25*%
%TO.N,unconnected-(U1-SWDIO-Pad25)*%
X87240000Y-92782500D03*
%TO.P,U1,26,RUN_26*%
%TO.N,Net-(U1-RUN)*%
X87640000Y-92782500D03*
%TO.P,U1,27,GPIO16_27*%
%TO.N,/SD_MISO*%
X88040000Y-92782500D03*
%TO.P,U1,28,GPIO17_28*%
%TO.N,/SD_CS*%
X88440000Y-92782500D03*
D13*
%TO.P,U1,29,GPIO18_29*%
%TO.N,/SD_SCK*%
X89277500Y-91945000D03*
%TO.P,U1,30,GPIO19_30*%
%TO.N,/SD_MOSI*%
X89277500Y-91545000D03*
%TO.P,U1,31,GPIO20_31*%
%TO.N,unconnected-(U1-GPIO20-Pad31)*%
X89277500Y-91145000D03*
%TO.P,U1,32,GPIO21_32*%
%TO.N,unconnected-(U1-GPIO21-Pad32)*%
X89277500Y-90745000D03*
%TO.P,U1,33,IOVDD_33*%
%TO.N,Net-(U1-RUN)*%
X89277500Y-90345000D03*
%TO.P,U1,34,GPIO22_34*%
%TO.N,unconnected-(U1-GPIO22-Pad34)*%
X89277500Y-89945000D03*
%TO.P,U1,35,GPIO23_35*%
%TO.N,unconnected-(U1-GPIO23-Pad35)*%
X89277500Y-89545000D03*
%TO.P,U1,36,GPIO24_36*%
%TO.N,unconnected-(U1-GPIO24-Pad36)*%
X89277500Y-89145000D03*
%TO.P,U1,37,GPIO25_37*%
%TO.N,unconnected-(U1-GPIO25-Pad37)*%
X89277500Y-88745000D03*
%TO.P,U1,38,GPIO26/ADC0_38*%
%TO.N,unconnected-(U1-GPIO26{slash}ADC0-Pad38)*%
X89277500Y-88345000D03*
%TO.P,U1,39,GPIO27/ADC1_39*%
%TO.N,unconnected-(U1-GPIO27{slash}ADC1-Pad39)*%
X89277500Y-87945000D03*
%TO.P,U1,40,GPIO28/ADC2_40*%
%TO.N,unconnected-(U1-GPIO28{slash}ADC2-Pad40)*%
X89277500Y-87545000D03*
%TO.P,U1,41,GPIO29/ADC3_41*%
%TO.N,unconnected-(U1-GPIO29{slash}ADC3-Pad41)*%
X89277500Y-87145000D03*
%TO.P,U1,42,IOVDD_42*%
%TO.N,Net-(U1-RUN)*%
X89277500Y-86745000D03*
D14*
%TO.P,U1,43,ADC_AVDD_43*%
%TO.N,+3V3*%
X88440000Y-85907500D03*
%TO.P,U1,44,VREG_VIN_44*%
X88040000Y-85907500D03*
%TO.P,U1,45,VREG_VOUT_45*%
%TO.N,Net-(U1-VREG_VOUT)*%
X87640000Y-85907500D03*
%TO.P,U1,46,USB_DM_46*%
%TO.N,Net-(U1-USB_DM)*%
X87240000Y-85907500D03*
%TO.P,U1,47,USB_DP_47*%
%TO.N,Net-(U1-USB_DP)*%
X86840000Y-85907500D03*
%TO.P,U1,48,USB_VDD_48*%
%TO.N,+3V3*%
X86440000Y-85907500D03*
%TO.P,U1,49,IOVDD_49*%
%TO.N,Net-(U1-RUN)*%
X86040000Y-85907500D03*
%TO.P,U1,50,DVDD_50*%
%TO.N,Net-(U1-VREG_VOUT)*%
X85640000Y-85907500D03*
%TO.P,U1,51,QSPI_SD3_51*%
%TO.N,Net-(U1-QSPI_SD3)*%
X85240000Y-85907500D03*
%TO.P,U1,52,QSPI_SCLK_52*%
%TO.N,Net-(U1-QSPI_SCLK)*%
X84840000Y-85907500D03*
%TO.P,U1,53,QSPI_SD0_53*%
%TO.N,Net-(U1-QSPI_SD0)*%
X84440000Y-85907500D03*
%TO.P,U1,54,QSPI_SD2_54*%
%TO.N,Net-(U1-QSPI_SD2)*%
X84040000Y-85907500D03*
%TO.P,U1,55,QSPI_SD1_55*%
%TO.N,Net-(U1-QSPI_SD1)*%
X83640000Y-85907500D03*
%TO.P,U1,56,~{QSPI_SS}_56*%
%TO.N,Net-(U1-~{QSPI_SS})*%
X83240000Y-85907500D03*
D15*
%TO.P,U1,57,GND_57*%
%TO.N,GND*%
X85840000Y-89345000D03*
%TD*%
D16*
%TO.P,J1,1,VBUS_1*%
%TO.N,+5V*%
X82735000Y-74015000D03*
%TO.P,J1,2,D-_2*%
%TO.N,/USB_D-*%
X82735000Y-76015000D03*
%TO.P,J1,3,D+_3*%
%TO.N,/USB_D+*%
X82735000Y-78015000D03*
%TO.P,J1,4,GND_4*%
%TO.N,GND*%
X82735000Y-80015000D03*
%TO.P,J1,5,SSRX-_5*%
%TO.N,unconnected-(J1-SSRX--Pad5)*%
X82735000Y-81015000D03*
%TO.P,J1,6,SSRX+_6*%
%TO.N,unconnected-(J1-SSRX+-Pad6)*%
X82735000Y-79015000D03*
%TO.P,J1,7,DRAIN_7*%
%TO.N,Net-(J1-DRAIN)*%
X82735000Y-77015000D03*
%TO.P,J1,8,SSTX-_8*%
%TO.N,unconnected-(J1-SSTX--Pad8)*%
X82735000Y-75015000D03*
D17*
%TO.P,J1,9,SSTX+_9*%
%TO.N,unconnected-(J1-SSTX+-Pad9)*%
X82735000Y-73015000D03*
D18*
%TO.P,J1,SH,SHIELD_SH*%
%TO.N,Net-(J1-DRAIN)*%
X85185000Y-71165000D03*
X85185000Y-82865000D03*
%TD*%
M02*
